<?xml version="1.0" encoding="UTF-8"?> <svg xmlns="http://www.w3.org/2000/svg" id="Component_18_1" data-name="Component 18 – 1" viewBox="0 0 163 49.505"><path id="Path_46" data-name="Path 46" d="M126.216,49.5c-1.264-.578-1.441-1.6-1.248-2.845.258-1.675.415-3.365.635-5.046a.942.942,0,0,0-.4-.953,40.557,40.557,0,0,1-6.842-7.292,1.256,1.256,0,0,0-1.192-.566c-3.711.159-7.422.2-11.134.028-1.459-.068-2.171-.665-2.211-2.127-.113-4.031-.132-8.064-.017-12.1a1.845,1.845,0,0,1,1.875-1.879c3.949-.129,7.9-.3,11.85-.067a.915.915,0,0,0,.877-.4A41.336,41.336,0,0,1,125.2,9.037a.793.793,0,0,0,.294-.831c-.249-1.838-.437-3.684-.709-5.518A2.234,2.234,0,0,1,126.057,0h9.392a2.459,2.459,0,0,1,1.308,2.56c-.062,2.412-.013,4.826-.021,7.239-.006,1.6-.853,2.321-2.438,2.114-1.785-.234-3.573-.451-5.357-.7a1.07,1.07,0,0,0-.877.244,40.854,40.854,0,0,0-7.716,8.411,1.294,1.294,0,0,0-.194.828c.018,2.784.036,5.568.036,8.353a1.653,1.653,0,0,0,.334,1.028,43.827,43.827,0,0,0,6.959,7.72,1.815,1.815,0,0,0,1.545.384c1.813-.228,3.628-.447,5.439-.69a1.834,1.834,0,0,1,2.264,1.9c.021,2.731,0,5.463.012,8.194a2.173,2.173,0,0,1-1.293,1.923Z" transform="translate(-87.217)" fill="#007bc7"></path><path id="Path_47" data-name="Path 47" d="M111.41,255.478a2.51,2.51,0,0,1-1.443-2.274c-.189-1.843-.457-3.679-.7-5.516-.252-1.889.449-2.729,2.327-2.681,3.393.086,6.785.025,10.177-.039,1.75-.033,2.474.79,2.272,2.509-.228,1.946-.5,3.886-.771,5.827a2.754,2.754,0,0,1-1.355,2.175Z" transform="translate(-91.831 -205.973)" fill="#5c0b78"></path><path id="Path_48" data-name="Path 48" d="M121.571,0a2.611,2.611,0,0,1,1.35,2.172c.228,2.052.562,4.092.822,6.141a1.862,1.862,0,0,1-2.061,2.145c-2.89-.1-5.778-.046-8.666.018-.689.015-1.379.043-2.067.036a1.784,1.784,0,0,1-1.944-2c.2-2.376.554-4.734.968-7.082C110.1.705,110.685.369,111.224,0Z" transform="translate(-91.645)" fill="#5c0b78"></path><path id="Path_49" data-name="Path 49" d="M0,112.218a2.488,2.488,0,0,1,2.262-1.458c1.816-.2,3.623-.48,5.435-.721,1.953-.259,2.713.437,2.69,2.389-.038,3.207-.1,6.415.066,9.622.1,1.924-.7,2.669-2.639,2.436-2.024-.243-4.039-.566-6.064-.806-.793-.094-1.217-.667-1.749-1.116Z" transform="translate(0 -92.479)" fill="#5c0b78"></path><path id="Path_50" data-name="Path 50" d="M10.665,0c1.2.622,1.4,1.591,1.187,2.862C11.5,5.023,11.3,7.21,11.02,9.385a1.8,1.8,0,0,1-1.764,1.795c-2.331.3-4.666.577-7,.886A2.209,2.209,0,0,1,0,10.824V1.433A2.518,2.518,0,0,1,1.433,0Z" fill="#5c0b78"></path><path id="Path_51" data-name="Path 51" d="M0,236.979A2.222,2.222,0,0,1,2.668,235.7c2.2.321,4.4.552,6.6.828a1.809,1.809,0,0,1,1.775,1.716c.32,2.435.59,4.877.878,7.317a2.082,2.082,0,0,1-1.261,2.086H1.433A2.53,2.53,0,0,1,0,246.211Z" transform="translate(0 -198.139)" fill="#5c0b78"></path><path id="Path_52" data-name="Path 52" d="M956.881,138.033c-.431.488-.88.95-1.618.649s-.769-.925-.766-1.591c.01-2.387,0-4.773,0-7.16a6.571,6.571,0,0,0-.134-1.341c-.395-1.91-1.449-2.99-3.089-3.132a3.876,3.876,0,0,0-4.29,2.551,8,8,0,0,0-.412,2.9q-.015,3.222,0,6.444c0,.723-.245,1.257-1,1.4-.784.15-1.375-.453-1.387-1.429-.018-1.511-.005-3.023-.005-4.535,0-2.519-.008-5.038,0-7.558,0-.949.531-1.521,1.293-1.466.66.047.979.467,1.171,1.552.274.065.342-.195.476-.325a5.6,5.6,0,0,1,5.788-1.453,5.245,5.245,0,0,1,3.765,4.222c.046.191-.037.44.2.564Z" transform="translate(-793.881 -103.65)" fill="#5d5d61"></path><path id="Path_53" data-name="Path 53" d="M245.406,116.433c0-1.723.014-3.447,0-5.17a1.88,1.88,0,0,1,2.235-2.12c2.21.259,4.414.575,6.614.906a1.727,1.727,0,0,1,1.6,1.861q.028,4.536,0,9.072a1.767,1.767,0,0,1-1.633,1.924c-2.124.31-4.251.609-6.385.832-1.635.17-2.354-.566-2.348-2.212.006-1.7,0-3.4,0-5.093h-.083" transform="translate(-206.339 -91.753)" fill="#5c0b78"></path><path id="Path_54" data-name="Path 54" d="M621.641,106.6c0,.584.017.969,0,1.352a1.125,1.125,0,0,1-1.1,1.149,1.16,1.16,0,0,1-1.254-1.073,4.977,4.977,0,0,1-.02-.715q.013-8.753.028-17.506c0-.159,0-.318,0-.477.046-.868.509-1.363,1.246-1.337.706.025,1.133.5,1.137,1.35.008,1.963-.012,3.926-.02,5.888,0,.232,0,.464,0,.918A7.159,7.159,0,0,1,632.8,96.4a8.309,8.309,0,0,1-.4,10.295,6.989,6.989,0,0,1-5.3,2.334,7.439,7.439,0,0,1-5.456-2.433m-.178-5.285c0,.159-.012.319,0,.477a5.22,5.22,0,0,0,3.245,4.711,4.884,4.884,0,0,0,5.413-.862,5.679,5.679,0,0,0,1.791-3.953,5.413,5.413,0,0,0-3.668-5.757c-3.628-1.034-6.778,1.464-6.783,5.384" transform="translate(-520.69 -73.983)" fill="#5d5d61"></path><path id="Path_55" data-name="Path 55" d="M403.349,97.431c1.561-1.624,3.065-3.187,4.566-4.752q2.009-2.094,4.012-4.2a1.286,1.286,0,0,1,1.489-.45,1.186,1.186,0,0,1,.274,2.03q-2.407,2.484-4.852,4.932c-.542.541-1.145,1.02-1.765,1.568,1.031,1.27,1.925,2.377,2.825,3.479q2.793,3.417,5.594,6.827a1.314,1.314,0,0,1,.117,1.8,1.3,1.3,0,0,1-2.107-.169q-3.629-4.428-7.249-8.864a4.284,4.284,0,0,0-.958-1.028q-.959,1.006-1.913,2c-.232.242-.17.545-.171.83,0,2.121.009,4.242-.012,6.363a1.207,1.207,0,0,1-1.247,1.265,1.224,1.224,0,0,1-1.2-1.229c-.019-.264-.01-.53-.01-.795q0-7.556,0-15.112c0-.822-.007-1.644,0-2.466.011-.991.441-1.52,1.222-1.522s1.241.524,1.244,1.5c.006,2.36,0,4.719.007,7.079a1.5,1.5,0,0,0,.135.9" transform="translate(-336.948 -73.944)" fill="#5d5d61"></path><path id="Path_56" data-name="Path 56" d="M835.449,138.723a7.706,7.706,0,1,1,7.736-7.7,7.618,7.618,0,0,1-7.736,7.7m.028-2.178a5.543,5.543,0,0,0-.039-11.071,5.175,5.175,0,0,0-5.2,5.521,5.353,5.353,0,0,0,5.24,5.55" transform="translate(-696.019 -103.682)" fill="#5d5d61"></path><path id="Path_57" data-name="Path 57" d="M502.576,130.955a7.71,7.71,0,1,1,7.667,7.768,7.531,7.531,0,0,1-7.667-7.768m7.721,5.59a5.544,5.544,0,0,0-.038-11.072,5.19,5.19,0,0,0-5.208,5.52,5.374,5.374,0,0,0,5.246,5.552" transform="translate(-422.576 -103.682)" fill="#5d5d61"></path><path id="Path_58" data-name="Path 58" d="M767.316,104.117c-1.425-.093-1.863-.36-1.859-1.062,0-.671.417-.915,1.859-1.045,0-.932-.006-1.878,0-2.823a3.148,3.148,0,0,1,.083-.864,1.1,1.1,0,0,1,1.276-.833,1.074,1.074,0,0,1,1.018,1.128c.019,1.109.005,2.218.005,3.367a15.691,15.691,0,0,0,2.5.076c.89.025,1.36.347,1.374.979.015.666-.472,1.03-1.4,1.034-.79,0-1.58,0-2.329,0-.067.116-.116.16-.116.2,0,2.757-.043,5.515.035,8.27.055,1.96.667,2.451,2.623,2.419.861-.014,1.28.281,1.31.922s-.366,1.007-1.192,1.082c-3.485.315-5.015-.965-5.15-4.479-.1-2.489-.034-4.984-.042-7.476,0-.286,0-.571,0-.9" transform="translate(-643.612 -81.962)" fill="#5d5d61"></path><path id="Path_59" data-name="Path 59" d="M734.142,133.692c0-1.934,0-3.869,0-5.8,0-.99.45-1.553,1.2-1.541s1.173.564,1.174,1.569q0,5.922,0,11.844c0,.875-.354,1.385-1,1.484-.779.119-1.364-.433-1.371-1.354-.015-2.067,0-4.134,0-6.2" transform="translate(-617.279 -106.237)" fill="#5d5d61"></path><path id="Path_60" data-name="Path 60" d="M733.9,91.3a1.4,1.4,0,0,1-1.44-1.387,1.418,1.418,0,0,1,1.516-1.4A1.394,1.394,0,1,1,733.9,91.3" transform="translate(-615.87 -74.427)" fill="#5d5d61"></path></svg> 