<svg id="logo-perfecto-reg" xmlns="http://www.w3.org/2000/svg" viewBox="0 0 482.7 92"><g fill="#414141"><path d="M159.4 20.5c-4-3.4-9.9-5.1-17.6-5.1h-24.3v67.9h15.8v-25h8.4c7.7 0 13.6-1.7 17.7-5.1 4.7-4.1 7.1-9.5 7.1-16.4 0-7-2.4-12.4-7.1-16.3zm-12.2 23.6c-1.7 1.3-4.3 1.9-7.7 1.9h-6.2V27.9h6.2c3.4 0 6 .7 7.7 1.9 2.2 1.5 3.3 3.9 3.3 7.1s-1.1 5.6-3.3 7.2zM205.3 36.9c-3.7-1.9-7.9-2.9-12.6-2.9-3.7 0-7 .6-10.2 1.7s-5.9 2.7-8.3 4.8c-2.3 2.1-4.2 4.8-5.6 8-1.4 3.2-2.1 6.8-2.1 10.7 0 3.9.7 7.5 2.1 10.6 1.3 3.2 3.1 5.9 5.4 8 2.3 2.1 5 3.8 8.2 4.9 3.1 1.1 6.6 1.7 10.3 1.7 2.1 0 4-.1 5.9-.3 1.9-.2 3.5-.6 5-1 1.4-.4 2.8-.9 3.9-1.3s2.2-1 3.2-1.6c1-.6 1.8-1.1 2.3-1.5.5-.3 1.1-.8 1.7-1.3l.9-.8-6.2-8.2c-1.8 1.2-3.9 2.3-6.5 3.2-2.6.9-5.3 1.4-8.1 1.4-3.4 0-6.2-.9-8.5-2.6s-3.6-4.2-3.9-7.5h34.6l.2-5.3c0-4.7-1.1-8.8-3.1-12.4s-4.9-6.3-8.6-8.3zm-23 17c0-.8.2-1.7.5-2.6.3-.9.7-1.7 1.3-2.5.6-.8 1.2-1.5 2-2.1.8-.6 1.7-1 2.8-1.4 1.1-.3 2.2-.5 3.5-.5 1.6 0 3 .2 4.3.8 1.3.6 2.3 1.3 3.1 2.2.8.9 1.4 1.8 1.8 2.9.4 1.1.7 2.1.7 3.2h-20zM252.5 34.2c-.8-.1-1.7-.2-2.7-.2-5.4 0-9.3 2.6-12 7.8h-.2l.1-7H222v48.4h15.7V61.7c0-4.6.8-7.9 2.4-10.1.4-.6 1-1.1 1.6-1.6.6-.5 1.5-.9 2.5-1.3s2.1-.6 3.2-.6h6.4l.9-13.3-.5-.2c-.3-.1-.9-.3-1.7-.4zM280 32c0-2 .4-3.5 1.3-4.6.8-1.1 2.3-1.6 4.5-1.6 1.8 0 3.8.3 5.8.9l.8-11.1-1.3-.3c-.9-.2-2.2-.4-4-.6-1.8-.2-3.6-.3-5.4-.3-3 0-5.6.4-7.9 1.3-2.3.9-4.1 2.2-5.6 3.7-2.6 2.7-3.9 7-3.9 13V35H258v12h6.3v36.5H280V47h10.5V35.1H280V32zM329.8 36.9c-3.7-1.9-7.9-2.9-12.6-2.9-3.7 0-7 .6-10.2 1.7s-5.9 2.7-8.3 4.8c-2.3 2.1-4.2 4.8-5.6 8-1.4 3.2-2.1 6.8-2.1 10.7 0 3.9.6 7.5 2.1 10.6 1.3 3.2 3.1 5.9 5.4 8 2.3 2.1 5 3.8 8.2 4.9 3.1 1.1 6.6 1.7 10.3 1.7 2.1 0 4-.1 5.9-.3 1.9-.2 3.5-.6 5-1 1.4-.4 2.8-.9 3.9-1.3s2.2-1 3.2-1.6c1-.6 1.8-1.1 2.3-1.5.5-.3 1.1-.8 1.7-1.3l.9-.8-6.2-8.2c-1.8 1.2-3.9 2.3-6.5 3.2-2.6.9-5.3 1.4-8.1 1.4-3.4 0-6.2-.9-8.5-2.6s-3.6-4.2-3.9-7.5h34.6l.2-5.3c0-4.7-1.1-8.8-3.1-12.4s-4.9-6.3-8.6-8.3zm-23.1 17c.1-.8.2-1.7.5-2.6.3-.9.7-1.7 1.3-2.5.6-.8 1.2-1.5 2-2.1.8-.6 1.7-1 2.8-1.4 1.1-.3 2.2-.5 3.5-.5 1.6 0 3 .2 4.3.8 1.3.6 2.3 1.3 3.1 2.2.8.9 1.4 1.8 1.8 2.9.4 1.1.7 2.1.7 3.2h-20zM385.8 66.9c-.1.2-.5.4-.8.7s-.8.6-1.3.9c-.6.3-1.2.7-1.9 1-.8.3-1.5.6-2.3.9s-1.7.5-2.7.7c-1 .2-2 .3-3 .3-3.7 0-6.7-1.1-8.9-3.4-2.2-2.2-3.3-5.3-3.3-9.1s1.1-6.8 3.4-9 5.2-3.3 8.6-3.3c4.7 0 8.9 1.4 12.5 4.3l3.5-11.9-.3-.3c-.2-.2-.6-.4-1.1-.7s-1.1-.6-1.8-1-1.6-.8-2.6-1.1c-1.1-.4-2.1-.7-3.3-1-1.2-.3-2.5-.5-4.1-.7-1.6-.2-3.2-.3-4.9-.3-2.6 0-5.2.4-7.7 1.1s-4.8 1.8-7 3.2c-2.2 1.4-4.1 3.1-5.7 5.1-1.7 2-3 4.4-3.9 7.1-.9 2.8-1.4 5.7-1.4 8.9 0 3.1.5 6.1 1.2 8.5.9 2.8 2.2 5.1 3.8 7.1 1.6 2 3.5 3.7 5.7 5.1s4.5 2.5 7 3.2 5 1.1 7.7 1.1c1.2 0 2.4-.1 3.6-.2 1.2-.1 2.3-.2 3.2-.4 1-.2 1.9-.4 2.8-.6s1.7-.5 2.4-.7c.7-.2 1.4-.5 2-.8.7-.3 1.2-.5 1.6-.8s.8-.5 1.2-.8.7-.5.9-.7c.2-.1.4-.3.6-.5l.3-.2-3.7-11.9-.3.2zM415.8 21.8h-15.7V35h-7v12h6.8v18.8c0 3.7.3 6.6.8 8.8s1.4 4 2.6 5.4c2.7 3.1 6.6 4.6 11.8 4.6.8 0 1.5-.1 2.3-.1s1.5-.1 2.2-.2 1.3-.2 1.9-.3c.6-.1 1.1-.2 1.7-.3.5-.1 1-.2 1.3-.3.4-.1.7-.2 1.1-.3.4-.1.6-.2.7-.2l-.8-12.3-.6.2c-.4.2-1 .3-1.8.5-.8.1-1.6.2-2.3.2-1.8 0-3-.4-3.7-1.2-.3-.3-.5-.7-.7-1-.2-.4-.4-1-.5-1.8-.1-.8-.2-1.9-.2-3.2V46.9h10.9V35h-10.8V21.8zM481.4 50.6c-.8-2.6-2.1-5-3.7-7s-3.5-3.8-5.7-5.2c-2.2-1.5-4.7-2.6-7.4-3.3S459 34 455.9 34c-3.8 0-7.3.6-10.6 1.8s-6.1 2.9-8.5 5c-2.4 2.2-4.3 4.8-5.7 8-1.4 3.1-2.1 6.7-2.1 10.5 0 3 .5 5.9 1.5 8.4.9 2.7 2.2 5 3.8 7 1.6 2 3.5 3.8 5.7 5.2 2.2 1.5 4.7 2.6 7.4 3.3 2.7.7 5.6 1.1 8.6 1.1 2.2 0 4.3-.2 6.3-.6s3.9-1 5.7-1.7c1.7-.7 3.4-1.6 4.9-2.7 1.5-1 2.9-2.3 4.1-3.7 1.2-1.4 2.2-2.9 3.1-4.6.8-1.6 1.5-3.5 1.9-5.5.5-2 .7-4.1.7-6.3 0-3.1-.4-5.9-1.3-8.6zM464 68.1c-2 2.3-4.8 3.5-8.1 3.5s-6-1.2-8-3.5c-2-2.4-3-5.4-3-9.1s1-6.8 3-9.1c1.9-2.3 4.6-3.4 8-3.4s6.1 1.2 8.1 3.5 3 5.3 3 9-1 6.7-3 9.1z"/></g><path fill="#83BC41" d="M76.1 3.7C67.9-.4 58.7-1.1 50 1.7c-8.7 2.9-15.8 8.9-19.9 17.1-3 6-4.2 12.6-3.5 19.3.4 3.6 3.6 6.1 7.2 5.7 3.6-.4 6.1-3.6 5.7-7.2-.5-4.1.3-8.2 2.2-12 2.6-5.1 6.9-8.8 12.3-10.6 5.4-1.8 11.2-1.3 16.2 1.2 10.5 5.3 14.7 18.1 9.4 28.6-2.6 5.1-6.9 8.8-12.3 10.6-4.1 1.3-8.3 1.4-12.3.3l12.2-17.5c2-2.9 1.3-7-1.6-9-2.9-2.1-7-1.3-9 1.6L26.9 72.4l-16-14.9c-2.6-2.4-6.7-2.3-9.2.3-2.4 2.6-2.3 6.7.3 9.2l26.9 25 18.3-26.3c4.3 1.8 8.8 2.8 13.4 2.8 3.6 0 7.2-.6 10.7-1.7 8.7-2.9 15.8-8.9 19.9-17.1 8.5-16.8 1.7-37.5-15.1-46z"/></svg>