<?xml version="1.0" standalone="no"?>
<!DOCTYPE svg PUBLIC "-//W3C//DTD SVG 20010904//EN"
 "http://www.w3.org/TR/2001/REC-SVG-20010904/DTD/svg10.dtd">
<svg version="1.0" xmlns="http://www.w3.org/2000/svg"
 width="8021.000000pt" height="1990.000000pt" viewBox="0 0 8021.000000 1990.000000"
 preserveAspectRatio="xMidYMid meet">

<g transform="translate(0.000000,1990.000000) scale(0.100000,-0.100000)"
fill="#000000" stroke="none">
<path d="M7399 18370 c-139 -22 -329 -122 -447 -235 -221 -211 -316 -528 -253
-837 85 -410 455 -708 879 -708 76 0 130 6 187 21 119 31 112 33 172 -51 30
-41 62 -86 73 -100 17 -21 76 -103 240 -328 l32 -44 -133 -136 c-190 -194
-224 -232 -312 -346 -227 -294 -405 -604 -556 -966 -28 -65 -38 -79 -79 -104
-580 -360 -1015 -714 -1486 -1210 -82 -86 -155 -155 -161 -152 -7 2 -74 55
-149 118 -325 270 -422 350 -561 468 -176 150 -395 332 -565 472 -69 56 -134
112 -145 123 -22 24 -166 141 -205 168 -81 56 -107 70 -177 94 -105 36 -262
39 -368 6 -364 -115 -538 -523 -368 -865 20 -39 58 -94 84 -121 27 -28 49 -54
49 -58 0 -4 57 -53 126 -109 69 -56 138 -114 152 -127 15 -14 72 -62 127 -106
55 -44 123 -101 150 -127 28 -25 106 -92 175 -148 69 -56 184 -152 255 -212
72 -60 198 -166 280 -235 83 -69 175 -146 206 -173 30 -26 90 -75 132 -110
l77 -62 -32 -59 c-194 -347 -287 -530 -377 -736 -29 -66 -57 -129 -62 -140
-19 -44 -71 -171 -79 -195 -4 -14 -25 -70 -44 -125 -62 -171 -136 -398 -141
-435 -2 -8 -12 -44 -24 -79 -11 -35 -21 -70 -21 -79 0 -8 -9 -45 -20 -81 -10
-36 -22 -82 -25 -101 -3 -19 -15 -71 -25 -115 -23 -99 -62 -300 -66 -338 -1
-15 -11 -89 -23 -165 -22 -150 -49 -402 -58 -554 l-6 -98 -1080 0 c-1200 0
-1134 4 -1272 -68 -100 -52 -209 -164 -258 -263 -108 -219 -83 -464 65 -657
75 -96 179 -166 317 -211 64 -21 74 -21 1167 -21 1042 0 1103 -1 1108 -17 2
-10 12 -67 21 -128 23 -151 62 -362 87 -470 12 -49 22 -99 23 -110 9 -69 165
-610 200 -690 7 -16 19 -50 25 -75 7 -25 15 -49 19 -55 4 -5 18 -39 30 -75 13
-36 27 -69 32 -74 5 -6 9 -16 9 -24 0 -7 9 -32 19 -56 11 -23 30 -67 41 -97
26 -66 59 -135 162 -344 123 -251 208 -403 346 -624 l65 -105 -24 -19 c-13
-10 -62 -52 -109 -92 -47 -40 -123 -105 -170 -144 -121 -100 -363 -303 -515
-431 -71 -60 -186 -156 -255 -212 -69 -56 -147 -123 -175 -148 -27 -26 -95
-83 -150 -127 -55 -44 -112 -92 -127 -106 -14 -13 -83 -71 -152 -127 -69 -56
-126 -106 -126 -111 0 -6 -22 -32 -49 -59 -55 -55 -112 -162 -136 -255 -20
-77 -19 -221 1 -299 50 -194 194 -351 390 -426 81 -31 251 -39 347 -16 68 16
158 58 212 99 57 43 200 161 220 182 11 11 76 67 145 123 170 140 389 322 565
472 138 116 220 185 552 461 70 59 146 123 168 143 22 20 64 55 93 78 l53 41
177 -174 c147 -145 342 -321 496 -450 81 -67 357 -275 438 -330 35 -24 68 -47
73 -52 21 -18 293 -190 383 -242 35 -20 158 -90 197 -111 118 -66 521 -261
604 -294 30 -11 74 -30 97 -41 24 -10 49 -19 56 -19 8 0 18 -4 24 -9 9 -9 104
-45 214 -82 30 -11 64 -23 75 -29 21 -10 303 -97 420 -129 230 -64 604 -145
742 -161 43 -5 114 -16 159 -24 44 -8 114 -17 155 -21 41 -3 146 -14 234 -23
232 -24 884 -24 1165 1 382 33 814 105 1102 183 48 13 93 24 101 24 14 0 81
19 237 66 187 58 217 68 273 90 32 13 63 24 69 24 11 0 97 32 188 69 25 11 97
40 160 66 185 77 608 283 710 346 14 9 70 42 125 73 55 31 127 74 160 96 33
21 80 51 105 66 132 81 512 359 620 453 30 27 98 85 151 129 l96 81 66 -59
c36 -31 110 -94 164 -139 54 -45 168 -140 253 -211 85 -72 205 -171 265 -221
61 -50 126 -105 145 -123 32 -30 100 -87 418 -349 59 -49 136 -114 171 -145
99 -87 182 -152 195 -152 6 0 28 -13 48 -30 46 -38 117 -74 193 -96 81 -24
239 -24 320 0 202 60 355 206 421 403 33 98 38 253 10 348 -46 157 -101 226
-339 424 -70 58 -193 160 -272 226 -79 66 -194 162 -257 214 -62 51 -140 117
-173 146 -70 62 -236 201 -415 347 -69 56 -136 113 -150 126 -14 14 -69 60
-122 104 -54 43 -98 82 -98 86 0 5 21 35 48 68 70 86 233 317 302 424 22 36
61 97 86 135 24 39 55 90 69 115 14 25 29 52 35 60 71 111 235 432 338 660
128 285 257 639 340 935 39 138 109 417 117 465 3 19 14 78 25 130 25 127 61
339 62 370 0 14 2 37 5 52 l5 28 1108 0 1109 0 79 28 c112 40 183 85 262 169
216 227 223 582 15 820 -64 73 -179 147 -276 178 l-80 25 -1088 0 -1088 0 -6
158 c-3 86 -13 207 -22 267 -8 61 -18 139 -21 175 -6 77 -42 295 -81 480 -36
174 -91 400 -124 506 -11 33 -22 71 -24 84 -12 60 -164 498 -209 602 -8 18
-29 69 -46 113 -18 44 -38 91 -45 105 -6 14 -21 45 -32 70 -53 118 -238 477
-297 580 l-66 115 52 48 c29 26 112 96 183 155 72 58 146 121 165 139 19 18
87 75 150 127 200 166 411 342 545 456 72 60 198 166 280 235 283 236 323 270
387 337 112 116 168 256 168 421 0 171 -56 303 -180 428 -118 119 -226 167
-395 176 -121 6 -211 -9 -288 -48 -70 -35 -175 -109 -235 -164 -32 -28 -117
-101 -190 -161 -73 -60 -190 -157 -260 -216 -70 -59 -183 -154 -252 -210 -69
-56 -147 -123 -175 -148 -27 -26 -95 -83 -150 -127 -55 -44 -113 -92 -128
-107 -16 -14 -83 -71 -150 -126 -67 -55 -151 -125 -186 -156 l-65 -56 -49 53
c-197 213 -372 391 -511 517 -88 81 -165 152 -171 158 -14 16 -246 201 -318
254 -34 25 -85 63 -114 85 -80 62 -177 129 -310 215 -68 44 -123 85 -123 91 0
10 -25 77 -73 198 -24 59 -205 425 -239 481 -156 261 -370 540 -575 749 -68
69 -123 128 -123 131 0 3 7 15 15 25 8 11 45 67 81 125 36 58 79 124 95 147
16 23 29 44 29 47 0 3 22 38 49 78 26 40 53 83 59 94 11 20 16 21 149 17 141
-5 149 -4 339 46 17 5 73 30 124 57 155 82 292 219 374 374 27 51 52 107 57
124 49 186 51 200 46 326 -3 97 -10 144 -31 210 -28 93 -92 228 -128 274 -70
88 -111 131 -177 184 -85 70 -163 113 -281 155 -84 31 -87 31 -280 31 -188 0
-198 -1 -270 -28 -208 -78 -338 -171 -452 -327 -59 -81 -91 -143 -134 -264
-28 -78 -29 -85 -29 -270 1 -186 1 -192 32 -275 44 -122 85 -196 165 -294 l69
-85 -20 -28 c-36 -52 -151 -233 -151 -239 0 -3 -9 -18 -21 -32 -11 -15 -39
-57 -63 -94 l-43 -68 -44 32 c-52 38 -188 128 -193 128 -3 0 -39 20 -81 45
-101 60 -287 153 -400 200 -49 21 -108 45 -130 55 -22 10 -51 21 -65 24 -14 4
-47 16 -75 26 -196 73 -491 141 -790 182 -147 20 -211 23 -470 23 -259 0 -323
-3 -470 -23 -239 -33 -471 -82 -635 -134 -36 -12 -78 -24 -95 -29 -33 -8 -147
-50 -270 -98 -121 -49 -409 -193 -509 -255 -48 -31 -90 -56 -93 -56 -3 0 -35
-21 -71 -47 -62 -44 -66 -45 -78 -27 -7 10 -19 26 -26 33 -7 8 -38 50 -68 92
-57 79 -158 218 -235 324 -24 33 -44 65 -45 70 0 6 18 37 40 70 36 54 96 182
105 224 2 9 11 49 19 89 24 111 21 257 -8 377 -44 179 -111 298 -242 429 -111
111 -197 164 -354 218 -78 28 -98 31 -240 34 -85 1 -180 -1 -211 -6z m7723
-6142 c30 -35 80 -97 113 -138 32 -41 62 -77 66 -80 9 -7 121 -161 177 -245
26 -38 51 -74 55 -80 11 -14 83 -126 139 -215 45 -73 64 -106 116 -200 28 -52
187 -370 207 -415 7 -16 22 -50 33 -75 69 -152 237 -624 256 -720 4 -19 16
-64 26 -100 38 -137 119 -520 118 -560 0 -8 9 -80 20 -160 11 -80 26 -221 32
-315 11 -174 15 -633 5 -702 -3 -21 -10 -108 -15 -193 -5 -85 -16 -193 -25
-240 -8 -47 -17 -110 -20 -140 -5 -56 -31 -189 -66 -340 -10 -47 -21 -96 -24
-110 -10 -54 -51 -194 -116 -400 -80 -250 -114 -338 -227 -595 -58 -130 -167
-346 -229 -453 -30 -51 -60 -102 -66 -115 -16 -30 -109 -179 -124 -197 -6 -8
-46 -67 -89 -130 -380 -562 -939 -1110 -1529 -1497 -160 -105 -199 -129 -241
-152 -21 -12 -61 -35 -89 -52 -77 -45 -411 -213 -495 -248 -41 -18 -82 -35
-90 -40 -30 -16 -232 -94 -375 -144 -315 -110 -828 -231 -1082 -256 l-73 -7 0
3787 0 3786 -26 27 -27 26 -622 0 -621 0 -22 -25 -22 -25 0 -3789 0 -3788 -52
4 c-106 8 -443 71 -633 120 -33 8 -80 19 -105 24 -24 5 -69 17 -100 27 -30 10
-89 29 -130 41 -106 33 -111 34 -250 84 -69 25 -141 52 -160 60 -19 9 -69 30
-110 47 -106 44 -113 48 -325 152 -104 51 -204 103 -223 116 -18 12 -36 22
-40 22 -5 0 -29 13 -54 29 -25 16 -66 41 -92 55 -26 14 -52 31 -59 36 -7 6
-64 44 -127 85 -128 82 -240 162 -305 215 -23 19 -80 64 -126 100 -242 187
-635 579 -836 833 -40 51 -88 110 -106 132 -18 22 -52 67 -75 100 -23 33 -51
71 -61 85 -11 14 -51 75 -90 135 -39 61 -74 115 -78 120 -20 26 -123 202 -123
210 0 5 -6 16 -14 24 -23 26 -220 426 -276 561 -17 41 -39 95 -50 120 -33 79
-93 251 -135 385 -16 50 -37 115 -46 145 -10 30 -21 73 -25 95 -3 22 -9 47
-13 55 -4 8 -14 42 -21 75 -7 33 -21 94 -31 135 -10 41 -20 93 -23 114 -3 21
-14 88 -25 149 -20 112 -42 277 -61 457 -14 123 -14 829 0 951 19 170 41 332
61 449 11 63 22 130 24 148 4 34 29 141 66 287 11 44 23 91 25 105 5 25 19 72
71 240 42 136 141 404 178 485 8 17 31 68 51 115 43 99 188 388 239 475 19 33
46 80 60 105 88 159 350 533 470 673 24 29 71 85 105 125 l61 72 4234 0 4233
0 54 -62z"/>
<path d="M6924 8166 c-91 -22 -123 -35 -219 -83 -67 -35 -120 -73 -180 -130
-132 -128 -187 -212 -248 -383 -31 -84 -31 -87 -31 -280 0 -193 1 -196 31
-275 62 -160 122 -259 220 -358 114 -115 302 -215 457 -242 307 -55 594 31
808 241 237 231 325 579 228 899 -39 129 -120 267 -213 364 -215 222 -556 321
-853 247z"/>
<path d="M14325 8166 c-216 -55 -399 -179 -522 -356 -46 -65 -118 -208 -127
-252 -3 -13 -12 -54 -20 -93 -24 -109 -21 -261 9 -382 13 -57 29 -111 34 -120
5 -10 24 -49 43 -87 82 -169 266 -335 463 -417 95 -40 199 -59 330 -59 196 0
339 43 512 153 71 46 205 192 261 284 28 48 52 93 52 99 0 6 7 24 14 40 29 58
56 211 56 319 0 499 -401 897 -900 894 -85 0 -138 -6 -205 -23z"/>
<path d="M64102 14610 c-1227 -73 -2193 -482 -2927 -1241 -191 -197 -321 -359
-469 -586 -544 -835 -795 -1907 -755 -3228 49 -1607 581 -2829 1581 -3626 641
-511 1446 -810 2408 -894 908 -79 1794 42 2501 340 l83 35 501 -334 c648 -432
728 -483 920 -576 171 -84 438 -192 573 -233 l82 -25 22 41 c60 120 549 1069
604 1174 l64 121 -73 27 c-295 111 -686 296 -942 445 -230 135 -488 309 -477
323 303 376 473 631 626 936 241 481 401 1069 470 1731 50 469 50 1102 0 1570
-126 1202 -555 2163 -1276 2856 -690 663 -1547 1032 -2625 1129 -203 19 -693
27 -891 15z m764 -1619 c447 -68 821 -230 1149 -496 122 -99 308 -292 398
-414 246 -330 418 -754 511 -1262 85 -464 106 -1120 51 -1619 -77 -696 -273
-1239 -607 -1682 l-81 -108 -46 35 c-491 368 -1077 688 -1638 894 l-83 30 -24
-47 c-162 -322 -496 -1026 -489 -1031 4 -4 69 -31 143 -61 310 -121 579 -260
948 -489 28 -18 52 -34 52 -36 0 -10 -202 -67 -312 -89 -190 -39 -329 -50
-538 -43 -279 9 -466 41 -705 121 -340 114 -619 290 -890 561 -322 321 -525
680 -665 1176 -213 754 -225 1860 -28 2643 165 658 479 1149 958 1497 337 246
738 393 1190 438 156 16 554 6 706 -18z"/>
<path d="M22910 9821 l0 -4641 935 0 935 0 0 1935 0 1935 308 0 c689 0 987
-52 1249 -217 225 -141 360 -280 645 -663 230 -310 364 -507 1622 -2382 l407
-608 1119 0 1119 0 -118 188 c-65 103 -360 574 -656 1047 -864 1381 -1139
1779 -1464 2117 -232 242 -566 503 -878 687 -40 24 -73 47 -73 51 0 4 25 10
56 14 193 22 548 113 774 198 924 345 1470 1039 1586 2018 20 171 19 527 -1
705 -87 752 -465 1408 -1025 1780 -415 275 -864 387 -1835 457 -110 7 -866 12
-2432 15 l-2273 4 0 -4640z m4330 3059 c324 -11 431 -24 577 -71 300 -96 509
-269 633 -523 150 -306 156 -762 17 -1085 -95 -219 -286 -414 -500 -511 -173
-78 -337 -107 -822 -141 -86 -6 -624 -13 -1257 -16 l-1108 -5 0 1181 0 1181
1083 0 c595 0 1215 -5 1377 -10z"/>
<path d="M40090 9820 l0 -4640 820 0 820 0 0 490 c0 270 3 490 8 490 4 -1 35
-38 69 -83 422 -561 1054 -934 1743 -1029 138 -19 495 -16 645 6 468 67 879
244 1241 533 725 580 1109 1407 1194 2573 14 198 15 690 0 885 -44 608 -176
1121 -399 1552 -263 505 -683 922 -1181 1172 -283 141 -540 217 -895 262 -133
17 -533 17 -655 0 -443 -61 -825 -219 -1171 -482 -120 -91 -163 -130 -321
-287 l-148 -146 0 1672 0 1672 -885 0 -885 0 0 -4640z m3545 842 c126 -28 204
-55 321 -113 257 -128 497 -378 630 -656 87 -182 156 -431 194 -698 59 -411
55 -1017 -11 -1385 -76 -432 -208 -721 -439 -963 -202 -212 -402 -331 -654
-390 -124 -29 -419 -31 -545 -4 -371 80 -642 261 -888 593 -269 364 -393 875
-393 1620 0 483 62 847 200 1164 156 361 464 657 816 783 67 24 228 62 304 71
88 11 377 -3 465 -22z"/>
<path d="M73055 14418 c-9 -24 -813 -2088 -1785 -4588 -973 -2500 -1778 -4569
-1789 -4597 l-21 -53 993 0 993 0 384 1055 384 1055 1854 -2 1855 -3 369 -960
c202 -528 384 -1002 404 -1052 l36 -93 1015 0 c962 0 1015 1 1011 18 -4 14
-2405 6025 -3403 8520 l-297 742 -993 0 -993 0 -17 -42z m1625 -3834 c349
-938 637 -1710 638 -1715 2 -5 -508 -9 -1263 -9 -1009 0 -1266 3 -1263 13 53
156 1245 3417 1248 3417 3 0 291 -768 640 -1706z"/>
<path d="M56963 13763 l-883 -515 0 -669 0 -669 -405 0 -405 0 0 -710 0 -710
405 0 405 0 0 -1527 c0 -1487 8 -2130 30 -2397 30 -369 112 -674 238 -890 54
-94 212 -260 307 -323 222 -149 515 -256 816 -298 405 -57 980 -8 1412 119
121 36 274 89 318 112 l25 13 -76 683 c-41 376 -79 682 -83 682 -4 -1 -63 -20
-130 -42 -331 -110 -565 -145 -712 -107 -186 48 -307 177 -336 361 -8 48 -13
610 -16 1842 l-4 1772 606 0 605 0 0 710 0 710 -605 0 -605 0 0 1185 c0 942
-3 1185 -12 1184 -7 0 -410 -233 -895 -516z"/>
<path d="M35080 12044 c-389 -27 -683 -81 -990 -184 -949 -316 -1588 -918
-1977 -1865 -216 -524 -301 -1062 -264 -1675 53 -874 286 -1546 728 -2100 86
-109 303 -326 413 -414 363 -290 881 -538 1385 -661 814 -199 1683 -135 2392
175 695 305 1305 893 1643 1585 182 372 276 698 337 1160 26 200 26 775 0 985
-53 429 -158 792 -332 1145 -174 353 -377 630 -676 920 -538 525 -1191 824
-1981 910 -137 15 -564 27 -678 19z m543 -1473 c282 -57 529 -187 746 -396
246 -237 392 -491 486 -847 136 -518 120 -1219 -40 -1703 -93 -285 -205 -473
-399 -674 -232 -238 -487 -380 -798 -443 -96 -19 -143 -23 -318 -22 -174 0
-221 4 -310 23 -298 64 -530 187 -751 398 -313 301 -484 673 -556 1210 -24
180 -24 666 0 846 40 301 106 530 217 752 87 175 191 315 339 458 247 236 525
371 861 417 114 15 402 5 523 -19z"/>
<path d="M50910 12044 c-389 -27 -683 -81 -990 -184 -949 -316 -1588 -918
-1977 -1865 -216 -524 -301 -1062 -264 -1675 53 -874 286 -1546 728 -2100 86
-109 303 -326 413 -414 363 -290 881 -538 1385 -661 814 -199 1683 -135 2392
175 695 305 1305 893 1643 1585 182 372 276 698 337 1160 26 200 26 775 0 985
-53 429 -158 792 -332 1145 -174 353 -377 630 -676 920 -538 525 -1191 824
-1981 910 -137 15 -564 27 -678 19z m543 -1473 c282 -57 529 -187 746 -396
246 -237 392 -491 486 -847 136 -518 120 -1219 -40 -1703 -93 -285 -205 -473
-399 -674 -232 -238 -487 -380 -798 -443 -96 -19 -143 -23 -318 -22 -174 0
-221 4 -310 23 -298 64 -530 187 -751 398 -313 301 -484 673 -556 1210 -24
180 -24 666 0 846 40 301 106 530 217 752 87 175 191 315 339 458 247 236 525
371 861 417 114 15 402 5 523 -19z"/>
<path d="M70085 4228 c-462 -52 -818 -325 -969 -746 -73 -203 -100 -400 -93
-662 6 -202 28 -347 73 -485 140 -430 452 -705 895 -790 265 -50 609 -18 840
80 261 110 463 337 572 642 30 83 60 193 54 199 -2 2 -141 26 -308 54 -167 27
-316 52 -330 54 -26 5 -27 3 -49 -82 -69 -278 -227 -412 -483 -412 -237 0
-425 139 -501 368 -46 139 -60 248 -60 472 1 237 20 360 79 487 84 182 262
292 471 293 246 0 414 -125 466 -348 11 -45 16 -52 33 -48 21 5 643 116 650
116 9 0 -58 177 -92 245 -114 227 -295 397 -514 483 -195 77 -482 109 -734 80z"/>
<path d="M72942 4229 c-296 -35 -583 -168 -772 -359 -219 -223 -359 -556 -377
-894 -17 -337 68 -681 229 -922 297 -444 982 -648 1558 -464 364 117 684 439
809 817 50 151 62 225 68 428 8 272 -25 454 -118 663 -97 215 -301 439 -514
564 -242 142 -569 203 -883 167z m327 -564 c162 -39 321 -168 399 -325 58
-118 82 -225 89 -397 16 -393 -105 -665 -357 -797 -96 -51 -184 -69 -300 -63
-166 9 -287 63 -400 180 -144 149 -204 330 -204 617 0 166 11 241 50 361 52
159 164 297 305 373 110 60 286 82 418 51z"/>
<path d="M76248 4230 c-103 -16 -182 -41 -277 -86 -119 -56 -205 -118 -308
-220 l-83 -83 0 175 0 174 -315 0 -315 0 0 -1300 0 -1300 340 0 340 0 0 678
c0 892 10 1028 89 1187 87 176 260 274 464 263 189 -11 283 -105 317 -319 9
-51 14 -338 17 -941 l5 -868 339 0 339 0 0 703 c0 822 7 936 66 1102 48 136
152 245 281 296 86 34 246 34 321 0 74 -33 143 -112 165 -187 36 -123 39 -183
44 -1051 l5 -863 339 0 339 0 0 893 c0 1097 -4 1159 -96 1347 -39 79 -61 109
-133 181 -103 102 -202 158 -346 194 -241 61 -479 38 -690 -67 -106 -53 -162
-94 -277 -207 -54 -52 -99 -93 -101 -90 -2 2 -24 33 -49 69 -109 155 -256 255
-443 301 -92 23 -291 33 -377 19z"/>
<path d="M67780 1935 l0 -345 340 0 340 0 0 345 0 345 -340 0 -340 0 0 -345z"/>
</g>
</svg>
