<svg width="150" height="29" viewBox="0 0 150 29" fill="none" xmlns="http://www.w3.org/2000/svg">
<path d="M94.4444 2.39746C93.4625 2.39746 92.6666 3.1934 92.6666 4.17524C92.6666 5.15708 93.4625 5.95302 94.4444 5.95302C95.4262 5.95302 96.2221 5.15708 96.2221 4.17524C96.2221 3.1934 95.4262 2.39746 94.4444 2.39746Z" fill="url(#paint0_linear_3690_933)"/>
<path d="M94.4444 2.39746C93.4625 2.39746 92.6666 3.1934 92.6666 4.17524C92.6666 5.15708 93.4625 5.95302 94.4444 5.95302C95.4262 5.95302 96.2221 5.15708 96.2221 4.17524C96.2221 3.1934 95.4262 2.39746 94.4444 2.39746Z" fill="url(#paint1_radial_3690_933)"/>
<path d="M94.4444 8.17524C93.4625 8.17524 92.6666 8.97118 92.6666 9.95302V17.0641C92.6666 20.2551 95.2534 22.8419 98.4444 22.8419H100.222C101.204 22.8419 102 22.046 102 21.0641C102 20.0823 101.204 19.2864 100.222 19.2864H98.8888C97.416 19.2864 96.2221 18.0924 96.2221 16.6197V9.95302C96.2221 8.97118 95.4262 8.17524 94.4444 8.17524Z" fill="url(#paint2_linear_3690_933)"/>
<path d="M94.4444 8.17524C93.4625 8.17524 92.6666 8.97118 92.6666 9.95302V17.0641C92.6666 20.2551 95.2534 22.8419 98.4444 22.8419H100.222C101.204 22.8419 102 22.046 102 21.0641C102 20.0823 101.204 19.2864 100.222 19.2864H98.8888C97.416 19.2864 96.2221 18.0924 96.2221 16.6197V9.95302C96.2221 8.97118 95.4262 8.17524 94.4444 8.17524Z" fill="url(#paint3_radial_3690_933)"/>
<path d="M36.6666 8.17524C33.7211 8.17524 31.3333 10.5631 31.3333 13.5086V21.0641C31.3333 22.046 32.1292 22.8419 33.111 22.8419C34.0929 22.8419 34.8888 22.046 34.8888 21.0641V14.3975C34.8888 12.9247 36.0827 11.7308 37.5555 11.7308H39.3333C39.8242 11.7308 40.2221 12.1288 40.2221 12.6197V19.2864C40.2221 20.2682 41.0181 21.0641 41.9999 21.0641C42.9818 21.0641 43.7777 20.2682 43.7777 19.2864V12.6197C43.7777 12.1288 44.1757 11.7308 44.6666 11.7308H45.9999C47.4727 11.7308 48.6666 12.9247 48.6666 14.3975V21.0641C48.6666 22.046 49.4625 22.8419 50.4444 22.8419C51.4262 22.8419 52.2221 22.046 52.2221 21.0641V13.5086C52.2221 10.5631 49.8343 8.17524 46.8888 8.17524H36.6666Z" fill="url(#paint4_linear_3690_933)"/>
<path d="M36.6666 8.17524C33.7211 8.17524 31.3333 10.5631 31.3333 13.5086V21.0641C31.3333 22.046 32.1292 22.8419 33.111 22.8419C34.0929 22.8419 34.8888 22.046 34.8888 21.0641V14.3975C34.8888 12.9247 36.0827 11.7308 37.5555 11.7308H39.3333C39.8242 11.7308 40.2221 12.1288 40.2221 12.6197V19.2864C40.2221 20.2682 41.0181 21.0641 41.9999 21.0641C42.9818 21.0641 43.7777 20.2682 43.7777 19.2864V12.6197C43.7777 12.1288 44.1757 11.7308 44.6666 11.7308H45.9999C47.4727 11.7308 48.6666 12.9247 48.6666 14.3975V21.0641C48.6666 22.046 49.4625 22.8419 50.4444 22.8419C51.4262 22.8419 52.2221 22.046 52.2221 21.0641V13.5086C52.2221 10.5631 49.8343 8.17524 46.8888 8.17524H36.6666Z" fill="url(#paint5_radial_3690_933)"/>
<path d="M125.555 8.17524C122.61 8.17524 120.222 10.5631 120.222 13.5086V21.0641C120.222 22.046 121.018 22.8419 122 22.8419C122.982 22.8419 123.778 22.046 123.778 21.0641V13.953C123.778 12.7257 124.773 11.7308 126 11.7308H130.889C131.871 11.7308 132.667 10.9349 132.667 9.95302C132.667 8.97118 131.871 8.17524 130.889 8.17524H125.555Z" fill="url(#paint6_linear_3690_933)"/>
<path d="M125.555 8.17524C122.61 8.17524 120.222 10.5631 120.222 13.5086V21.0641C120.222 22.046 121.018 22.8419 122 22.8419C122.982 22.8419 123.778 22.046 123.778 21.0641V13.953C123.778 12.7257 124.773 11.7308 126 11.7308H130.889C131.871 11.7308 132.667 10.9349 132.667 9.95302C132.667 8.97118 131.871 8.17524 130.889 8.17524H125.555Z" fill="url(#paint7_radial_3690_933)"/>
<path fill-rule="evenodd" clip-rule="evenodd" d="M55.7777 15.5086C55.7777 19.5587 59.0609 22.8419 63.111 22.8419C67.1611 22.8419 70.4444 19.5587 70.4444 15.5086C70.4444 11.4585 67.1611 8.17524 63.111 8.17524C59.0609 8.17524 55.7777 11.4585 55.7777 15.5086ZM63.111 19.2864C65.1974 19.2864 66.8888 17.595 66.8888 15.5086C66.8888 13.4222 65.1974 11.7308 63.111 11.7308C61.0246 11.7308 59.3333 13.4222 59.3333 15.5086C59.3333 17.595 61.0246 19.2864 63.111 19.2864Z" fill="url(#paint8_linear_3690_933)"/>
<path fill-rule="evenodd" clip-rule="evenodd" d="M55.7777 15.5086C55.7777 19.5587 59.0609 22.8419 63.111 22.8419C67.1611 22.8419 70.4444 19.5587 70.4444 15.5086C70.4444 11.4585 67.1611 8.17524 63.111 8.17524C59.0609 8.17524 55.7777 11.4585 55.7777 15.5086ZM63.111 19.2864C65.1974 19.2864 66.8888 17.595 66.8888 15.5086C66.8888 13.4222 65.1974 11.7308 63.111 11.7308C61.0246 11.7308 59.3333 13.4222 59.3333 15.5086C59.3333 17.595 61.0246 19.2864 63.111 19.2864Z" fill="url(#paint9_radial_3690_933)"/>
<path d="M135.333 9.95302C135.333 8.97118 136.129 8.17524 137.111 8.17524C138.093 8.17524 138.889 8.97118 138.889 9.95302V15.5086C138.889 17.595 140.58 19.2864 142.667 19.2864C144.753 19.2864 146.444 17.595 146.444 15.5086V9.95302C146.444 8.97118 147.24 8.17524 148.222 8.17524C149.204 8.17524 150 8.97118 150 9.95302V15.5086C150 19.5587 146.717 22.8419 142.667 22.8419C138.617 22.8419 135.333 19.5587 135.333 15.5086V9.95302Z" fill="url(#paint10_linear_3690_933)"/>
<path d="M135.333 9.95302C135.333 8.97118 136.129 8.17524 137.111 8.17524C138.093 8.17524 138.889 8.97118 138.889 9.95302V15.5086C138.889 17.595 140.58 19.2864 142.667 19.2864C144.753 19.2864 146.444 17.595 146.444 15.5086V9.95302C146.444 8.97118 147.24 8.17524 148.222 8.17524C149.204 8.17524 150 8.97118 150 9.95302V15.5086C150 19.5587 146.717 22.8419 142.667 22.8419C138.617 22.8419 135.333 19.5587 135.333 15.5086V9.95302Z" fill="url(#paint11_radial_3690_933)"/>
<path fill-rule="evenodd" clip-rule="evenodd" d="M73.9999 4.17524C73.9999 3.1934 74.7959 2.39746 75.7777 2.39746C76.7595 2.39746 77.5555 3.1934 77.5555 4.17524V8.17524H81.3333C85.3833 8.17524 88.6666 11.4585 88.6666 15.5086C88.6666 19.5587 85.3833 22.8419 81.3333 22.8419C77.2832 22.8419 73.9999 19.5587 73.9999 15.5086V4.17524ZM77.5555 15.5086C77.5555 17.595 79.2468 19.2864 81.3333 19.2864C83.4197 19.2864 85.111 17.595 85.111 15.5086C85.111 13.4222 83.4197 11.7308 81.3333 11.7308C79.2468 11.7308 77.5555 13.4222 77.5555 15.5086Z" fill="url(#paint12_linear_3690_933)"/>
<path fill-rule="evenodd" clip-rule="evenodd" d="M73.9999 4.17524C73.9999 3.1934 74.7959 2.39746 75.7777 2.39746C76.7595 2.39746 77.5555 3.1934 77.5555 4.17524V8.17524H81.3333C85.3833 8.17524 88.6666 11.4585 88.6666 15.5086C88.6666 19.5587 85.3833 22.8419 81.3333 22.8419C77.2832 22.8419 73.9999 19.5587 73.9999 15.5086V4.17524ZM77.5555 15.5086C77.5555 17.595 79.2468 19.2864 81.3333 19.2864C83.4197 19.2864 85.111 17.595 85.111 15.5086C85.111 13.4222 83.4197 11.7308 81.3333 11.7308C79.2468 11.7308 77.5555 13.4222 77.5555 15.5086Z" fill="url(#paint13_radial_3690_933)"/>
<path d="M104.667 4.17524C104.667 3.1934 105.463 2.39746 106.444 2.39746C107.426 2.39746 108.222 3.1934 108.222 4.17524V8.17524H111.778C112.76 8.17524 113.555 8.97118 113.555 9.95302C113.555 10.9349 112.76 11.7308 111.778 11.7308H108.222V14.8419C108.222 17.2965 110.212 19.2864 112.667 19.2864H115.333C116.315 19.2864 117.111 20.0823 117.111 21.0641C117.111 22.046 116.315 22.8419 115.333 22.8419H111.778C107.85 22.8419 104.667 19.6582 104.667 15.7308V4.17524Z" fill="url(#paint14_linear_3690_933)"/>
<path d="M104.667 4.17524C104.667 3.1934 105.463 2.39746 106.444 2.39746C107.426 2.39746 108.222 3.1934 108.222 4.17524V8.17524H111.778C112.76 8.17524 113.555 8.97118 113.555 9.95302C113.555 10.9349 112.76 11.7308 111.778 11.7308H108.222V14.8419C108.222 17.2965 110.212 19.2864 112.667 19.2864H115.333C116.315 19.2864 117.111 20.0823 117.111 21.0641C117.111 22.046 116.315 22.8419 115.333 22.8419H111.778C107.85 22.8419 104.667 19.6582 104.667 15.7308V4.17524Z" fill="url(#paint15_radial_3690_933)"/>
<path d="M26.0074 16.1412C26.6101 23.4781 19.7136 28.573 13.0943 26.4104C10.5925 25.5931 8.19067 24.4344 5.96013 22.969C0.0111787 19.0608 -0.35534 10.1116 5.26413 5.78419C6.94598 4.48905 8.74664 3.39005 10.6326 2.50016C16.1948 -0.1243 23.127 3.53723 24.8703 9.7849C25.4472 11.8521 25.8301 13.9819 26.0074 16.1412Z" fill="url(#paint16_linear_3690_933)"/>
<path d="M20.5921 22.0936C18.2968 25.8445 13.2844 26.5819 10.0383 23.6438C7.02301 20.9146 4.65275 17.4854 3.14935 13.6782C1.51778 9.54639 3.95696 4.98053 8.25574 4.11507C11.6746 3.42677 15.1739 3.45744 18.5376 4.16635C22.299 4.9591 24.7672 8.60758 24.1476 12.4588C23.6017 15.8514 22.4038 19.133 20.5921 22.0936Z" fill="url(#paint17_linear_3690_933)"/>
<path d="M21.346 19.6485C20.6951 21.8094 19.2218 23.481 16.6123 22.9676C14.0029 22.4542 8.98004 20.1145 5.98273 16.5857C4.49257 14.8313 4.62653 12.1708 6.28058 10.5865C9.24407 7.74806 12.9171 5.93531 16.7891 5.29196C18.7276 4.96985 20.6084 6.10979 21.312 8.03331C22.7007 11.83 22.3777 16.2239 21.346 19.6485Z" fill="#33109F"/>
<defs>
<linearGradient id="paint0_linear_3690_933" x1="31.3333" y1="22.8886" x2="150" y2="12.6663" gradientUnits="userSpaceOnUse">
<stop stop-color="#33109F"/>
<stop offset="0.49017" stop-color="#33109F"/>
<stop offset="0.646231" stop-color="#45B7DE"/>
<stop offset="0.829925" stop-color="#4AE7F0"/>
<stop offset="1" stop-color="#4CDDE9"/>
</linearGradient>
<radialGradient id="paint1_radial_3690_933" cx="0" cy="0" r="1" gradientUnits="userSpaceOnUse" gradientTransform="translate(85.8423 39.731) rotate(-92.2615) scale(29.2584 26.3644)">
<stop stop-color="#EA673E"/>
<stop offset="1" stop-color="#EA673E" stop-opacity="0"/>
</radialGradient>
<linearGradient id="paint2_linear_3690_933" x1="31.3333" y1="22.8886" x2="150" y2="12.6663" gradientUnits="userSpaceOnUse">
<stop stop-color="#33109F"/>
<stop offset="0.49017" stop-color="#33109F"/>
<stop offset="0.646231" stop-color="#45B7DE"/>
<stop offset="0.829925" stop-color="#4AE7F0"/>
<stop offset="1" stop-color="#4CDDE9"/>
</linearGradient>
<radialGradient id="paint3_radial_3690_933" cx="0" cy="0" r="1" gradientUnits="userSpaceOnUse" gradientTransform="translate(85.8423 39.731) rotate(-92.2615) scale(29.2584 26.3644)">
<stop stop-color="#EA673E"/>
<stop offset="1" stop-color="#EA673E" stop-opacity="0"/>
</radialGradient>
<linearGradient id="paint4_linear_3690_933" x1="31.3333" y1="22.8886" x2="150" y2="12.6663" gradientUnits="userSpaceOnUse">
<stop stop-color="#33109F"/>
<stop offset="0.49017" stop-color="#33109F"/>
<stop offset="0.646231" stop-color="#45B7DE"/>
<stop offset="0.829925" stop-color="#4AE7F0"/>
<stop offset="1" stop-color="#4CDDE9"/>
</linearGradient>
<radialGradient id="paint5_radial_3690_933" cx="0" cy="0" r="1" gradientUnits="userSpaceOnUse" gradientTransform="translate(85.8423 39.731) rotate(-92.2615) scale(29.2584 26.3644)">
<stop stop-color="#EA673E"/>
<stop offset="1" stop-color="#EA673E" stop-opacity="0"/>
</radialGradient>
<linearGradient id="paint6_linear_3690_933" x1="31.3333" y1="22.8886" x2="150" y2="12.6663" gradientUnits="userSpaceOnUse">
<stop stop-color="#33109F"/>
<stop offset="0.49017" stop-color="#33109F"/>
<stop offset="0.646231" stop-color="#45B7DE"/>
<stop offset="0.829925" stop-color="#4AE7F0"/>
<stop offset="1" stop-color="#4CDDE9"/>
</linearGradient>
<radialGradient id="paint7_radial_3690_933" cx="0" cy="0" r="1" gradientUnits="userSpaceOnUse" gradientTransform="translate(85.8423 39.731) rotate(-92.2615) scale(29.2584 26.3644)">
<stop stop-color="#EA673E"/>
<stop offset="1" stop-color="#EA673E" stop-opacity="0"/>
</radialGradient>
<linearGradient id="paint8_linear_3690_933" x1="31.3333" y1="22.8886" x2="150" y2="12.6663" gradientUnits="userSpaceOnUse">
<stop stop-color="#33109F"/>
<stop offset="0.49017" stop-color="#33109F"/>
<stop offset="0.646231" stop-color="#45B7DE"/>
<stop offset="0.829925" stop-color="#4AE7F0"/>
<stop offset="1" stop-color="#4CDDE9"/>
</linearGradient>
<radialGradient id="paint9_radial_3690_933" cx="0" cy="0" r="1" gradientUnits="userSpaceOnUse" gradientTransform="translate(85.8423 39.731) rotate(-92.2615) scale(29.2584 26.3644)">
<stop stop-color="#EA673E"/>
<stop offset="1" stop-color="#EA673E" stop-opacity="0"/>
</radialGradient>
<linearGradient id="paint10_linear_3690_933" x1="31.3333" y1="22.8886" x2="150" y2="12.6663" gradientUnits="userSpaceOnUse">
<stop stop-color="#33109F"/>
<stop offset="0.49017" stop-color="#33109F"/>
<stop offset="0.646231" stop-color="#45B7DE"/>
<stop offset="0.829925" stop-color="#4AE7F0"/>
<stop offset="1" stop-color="#4CDDE9"/>
</linearGradient>
<radialGradient id="paint11_radial_3690_933" cx="0" cy="0" r="1" gradientUnits="userSpaceOnUse" gradientTransform="translate(85.8423 39.731) rotate(-92.2615) scale(29.2584 26.3644)">
<stop stop-color="#EA673E"/>
<stop offset="1" stop-color="#EA673E" stop-opacity="0"/>
</radialGradient>
<linearGradient id="paint12_linear_3690_933" x1="31.3333" y1="22.8886" x2="150" y2="12.6663" gradientUnits="userSpaceOnUse">
<stop stop-color="#33109F"/>
<stop offset="0.49017" stop-color="#33109F"/>
<stop offset="0.646231" stop-color="#45B7DE"/>
<stop offset="0.829925" stop-color="#4AE7F0"/>
<stop offset="1" stop-color="#4CDDE9"/>
</linearGradient>
<radialGradient id="paint13_radial_3690_933" cx="0" cy="0" r="1" gradientUnits="userSpaceOnUse" gradientTransform="translate(85.8423 39.731) rotate(-92.2615) scale(29.2584 26.3644)">
<stop stop-color="#EA673E"/>
<stop offset="1" stop-color="#EA673E" stop-opacity="0"/>
</radialGradient>
<linearGradient id="paint14_linear_3690_933" x1="31.3333" y1="22.8886" x2="150" y2="12.6663" gradientUnits="userSpaceOnUse">
<stop stop-color="#33109F"/>
<stop offset="0.49017" stop-color="#33109F"/>
<stop offset="0.646231" stop-color="#45B7DE"/>
<stop offset="0.829925" stop-color="#4AE7F0"/>
<stop offset="1" stop-color="#4CDDE9"/>
</linearGradient>
<radialGradient id="paint15_radial_3690_933" cx="0" cy="0" r="1" gradientUnits="userSpaceOnUse" gradientTransform="translate(85.8423 39.731) rotate(-92.2615) scale(29.2584 26.3644)">
<stop stop-color="#EA673E"/>
<stop offset="1" stop-color="#EA673E" stop-opacity="0"/>
</radialGradient>
<linearGradient id="paint16_linear_3690_933" x1="10.9006" y1="5.81964" x2="24.4391" y2="29.3862" gradientUnits="userSpaceOnUse">
<stop stop-color="#5DEAF4" stop-opacity="0"/>
<stop offset="1" stop-color="#5DEAF4"/>
</linearGradient>
<linearGradient id="paint17_linear_3690_933" x1="-7.19792" y1="4.78829" x2="27.8799" y2="28.8552" gradientUnits="userSpaceOnUse">
<stop offset="0.182292" stop-color="#8146FF"/>
<stop offset="0.771826" stop-color="#7000FF" stop-opacity="0"/>
</linearGradient>
</defs>
</svg>
