<svg xmlns="http://www.w3.org/2000/svg" xmlns:xlink="http://www.w3.org/1999/xlink" version="1.1" id="layer" x="0px" y="0px" style="enable-background:new -153 -46 652 652;" xml:space="preserve" viewBox="-131.3 185.7 599.9 179.6"><style type="text/css">	.st0{fill:#50E4EA;}	.st1{fill:#173647;}</style><rect x="-127.6" y="191.3" class="st0" width="170.2" height="170.2"></rect><path class="st1" d="M38.8,195.1v160.7h-160.7V195.1H38.8 M48.3,185.7h-179.6v179.6H48.3V185.7z"></path><path class="st1" d="M0.4,300.9c-2.6,0-5.1,1-7,2.9c-3.9,4-3.9,10.3,0,14.3c4,3.7,10.1,3.7,14,0c3.9-3.8,4-10.1,0.2-14  c-0.1-0.1-0.1-0.1-0.2-0.2C5.6,301.9,3.1,300.8,0.4,300.9z M-59.5,228.4l-15.5,2.6v86.2l0.5,0.2c7.7,2.2,15.7,3.3,23.7,3.4  c4.4,0.1,8.8-0.7,13-2.3c3.7-1.4,7.1-3.6,9.8-6.5c2.8-2.9,4.9-6.4,6.2-10.2l0,0c1.5-4.3,2.3-8.8,2.2-13.4c0-4.4-0.6-8.8-1.9-13  c-1-3.7-2.8-7.2-5.2-10.3c-2.3-2.9-5.3-5.1-8.6-6.5c-3.6-1.6-7.6-2.4-11.6-2.4c-2.1,0-4.2,0.3-6.3,0.7v13.2c1.3-0.3,2.7-0.4,4-0.4  c4.9,0,8.2,1.6,10.4,4.8l0,0c2.5,4.1,3.7,8.8,3.4,13.6c0.3,5-1.2,10-4.2,14c-2.8,3.3-7,5.1-11.3,4.9c-2.2,0-4.1,0-5.7-0.2  c-1.3-0.2-2.2-0.4-3.1-0.6L-59.5,228.4L-59.5,228.4z"></path><path class="st1" d="M100.7,264.4h25.9c12.2,0,21,1.8,26.5,5.5c5.5,3.6,8.2,9.4,8.2,17.3c0.2,4.9-1.4,9.7-4.6,13.5  c-3.5,3.8-8.2,6.2-13.2,6.9v0.6c13.9,2.4,20.9,9.7,20.9,22c0,8.2-2.8,14.6-8.3,19.2c-5.5,4.6-13.2,6.9-23.3,6.9h-32.1V264.4z   M111.4,303.7H129c7.6,0,13-1.2,16.3-3.5c3.3-2.4,4.9-6.3,5-12c0-5.1-1.9-8.9-5.5-11.1c-3.6-2.3-9.5-3.4-17.6-3.4h-15.7V303.7z   M111.4,312.7v34.4h19.1c7.4,0,13-1.4,16.7-4.3c3.8-2.9,5.7-7.4,5.7-13.5c0-5.7-1.9-9.9-5.7-12.6s-9.7-4-17.7-4H111.4z M184.1,268.7  c-0.2-1.9,0.5-3.8,1.8-5.2c1.2-1.1,2.8-1.7,4.4-1.7c1.6,0,3.2,0.6,4.3,1.7c1.3,1.4,2,3.3,1.9,5.2c0.1,1.9-0.5,3.8-1.9,5.2  c-2.5,2.3-6.3,2.3-8.7,0C184.6,272.5,184,270.6,184.1,268.7z M195.5,356.2H185v-68.8h10.4V356.2z M243.1,348.8  c1.8,0,3.6-0.1,5.3-0.4c1.4-0.2,2.7-0.5,4.1-0.9v8c-1.6,0.7-3.3,1.1-5,1.3c-2,0.3-3.9,0.5-5.9,0.5c-13.3,0-20-7-20-21v-40.9h-9.9v-5  l9.9-4.3l4.5-14.7h6v15.9h20v8.1h-20V336c-0.2,3.4,0.8,6.8,2.9,9.5C237.1,347.7,240,348.9,243.1,348.8z M270.3,264.4h25.9  c12.2,0,21,1.8,26.5,5.5c5.5,3.6,8.2,9.4,8.2,17.3c0.2,4.9-1.5,9.7-4.6,13.5c-3.5,3.8-8.2,6.2-13.2,6.9v0.6  c13.9,2.4,20.8,9.7,20.8,22c0,8.2-2.8,14.6-8.3,19.2c-5.5,4.6-13.3,6.9-23.3,6.9h-32V264.4z M281,303.7h17.6c7.6,0,13-1.2,16.3-3.5  c3.3-2.4,5-6.4,5-12c0-5.1-1.9-8.9-5.5-11.1c-3.6-2.3-9.5-3.4-17.6-3.4H281L281,303.7z M281,312.7v34.4h19.1c7.4,0,13-1.4,16.7-4.3  c3.8-2.9,5.7-7.4,5.7-13.5c0-5.7-1.9-9.9-5.7-12.6c-3.8-2.7-9.6-4-17.5-4H281z M397.9,356.2l-2.1-9.8h-0.5  c-2.7,3.7-6.2,6.7-10.3,8.8c-4.1,1.7-8.4,2.4-12.8,2.3c-6.8,0-12.2-1.7-16-5.3c-3.9-3.5-5.8-8.5-5.8-15c0-13.9,11.1-21.1,33.3-21.8  l11.7-0.4v-4.3c0-5.4-1.2-9.4-3.5-12c-2.3-2.6-6-3.8-11.1-3.8c-6.8,0.3-13.5,2.1-19.5,5.3l-3.2-8c3.5-1.9,7.3-3.3,11.2-4.3  c4-1,8-1.6,12.1-1.6c8.2,0,14.3,1.8,18.2,5.5c4,3.6,5.9,9.5,6,17.4v47H397.9z M374.4,348.8c6.5,0,11.6-1.8,15.3-5.4  c3.7-3.6,5.6-8.5,5.5-14.9v-6.2l-10.3,0.5c-8.3,0.3-14.3,1.6-17.9,3.8c-3.6,2.3-5.8,6.4-5.5,10.6c-0.2,3.2,1,6.4,3.4,8.6  C367.6,347.9,371,349,374.4,348.8L374.4,348.8z M460.4,286.1c2.8,0,5.5,0.2,8.2,0.7l-1.4,9.7c-2.5-0.6-5-0.9-7.6-0.9  c-5.5,0-10.8,2.5-14.2,6.8c-4,4.7-6.1,10.7-5.9,16.9v36.9H429v-68.8h8.6l1.2,12.7h0.5c2.2-4.1,5.4-7.7,9.2-10.4  C452.1,287.3,456.2,286.1,460.4,286.1z M123.3,201c0,0-8.1-0.9-11.3-0.9c-4.8,0-7.3,1.7-7.3,5.1c0,3.7,2.1,4.5,8.8,6.4  c8.3,2.3,11.3,4.5,11.3,11.2c0,8.6-5.4,12.4-13.2,12.4c-4.3-0.2-8.6-0.7-12.9-1.6l0.6-5.1c0,0,7.8,1,11.8,1c4.9,0,7.1-2.2,7.1-6.3  c0-3.3-1.8-4.5-7.8-5.9c-8.5-2.2-12.2-4.8-12.2-11.6c0-7.9,5.2-11.2,13.1-11.2c4.2,0.2,8.4,0.6,12.5,1.4L123.3,201z M138.2,195.1  h11.1l8.7,30.7l8.9-30.7H178v39.4h-6.4v-34h-0.4l-9.8,32.5h-6.7l-9.9-32.5h-0.3v34h-6.4L138.2,195.1z M273.2,195.1H302v5.7h-11.1  v33.7h-6.4v-33.7h-11.2L273.2,195.1z M329.7,195.1c7.8,0,12,2.9,12,10.2c0,4.8-1.5,7.1-4.7,8.9c3.4,1.3,5.7,3.8,5.7,9.1  c0,8.1-4.9,11.2-12.5,11.2h-15.4v-39.4H329.7z M321.2,200.7V212h8.5c3.9,0,5.7-1.9,5.7-5.8s-1.9-5.5-5.9-5.5L321.2,200.7z   M321.2,217.3V229h8.7c4,0,6.3-1.3,6.3-6c0-4.7-3.3-5.7-6.4-5.7H321.2z M358.6,195.1h24.8v5.7H365V212h15v5.5h-15V229h18.5v5.7  h-24.8V195.1z M404.5,195.1h12.7l9.8,39.4h-6.4l-2.9-11.6H404l-2.9,11.6h-6.4L404.5,195.1z M405.3,217.3h11l-4.1-16.9h-2.8  L405.3,217.3z M445.7,222.8v11.7h-6.4v-39.4h15c8.7,0,13.3,5,13.3,13.7c0,5.6-2.3,10.6-6.4,12.6l6.5,13.1h-7l-5.7-11.7L445.7,222.8z   M454.3,200.6h-8.6v16.7h8.7c4.8,0,6.7-4.3,6.7-8.4C461.1,204.4,458.9,200.6,454.3,200.6L454.3,200.6z M199.8,195.1h12.7l9.7,39.4  h-6.4l-2.9-11.6h-13.5l-2.9,11.6h-6.4L199.8,195.1z M200.7,217.3h11l-4.1-16.8h-2.9L200.7,217.3z M241.1,222.8v11.7h-6.4v-39.4h15  c8.7,0,13.4,5,13.4,13.7c0,5.6-2.3,10.6-6.4,12.6l6.5,13.1h-7l-5.7-11.7L241.1,222.8z M249.6,200.6h-8.6v16.7h8.7  c4.8,0,6.7-4.3,6.7-8.4C256.4,204.4,254.2,200.6,249.6,200.6z"></path></svg>