<?xml version="1.0" encoding="UTF-8"?>
<svg version="1.1" xmlns="http://www.w3.org/2000/svg" width="2000" height="313">
<path d="M0 0 C15.97520562 13.26612355 25.77847282 32.79740311 28.140625 53.328125 C30.2740424 76.59304171 24.08065374 98.73553032 9.30395126 117.05254936 C3.4784734 123.9384123 -3.12144491 130.16608522 -9.50537109 136.52563477 C-11.13917503 138.16051306 -12.77254557 139.79582456 -14.40551758 141.43153381 C-18.81783126 145.84867158 -23.23633092 150.2595724 -27.65614271 154.6692059 C-32.28428401 159.28853587 -36.90712451 163.91316518 -41.53067017 168.53709412 C-49.28590609 176.29174919 -57.04532235 184.04220524 -64.80712891 191.7902832 C-72.79384518 199.76288044 -80.77701843 207.73900353 -88.75634766 215.71899414 C-89.24895633 216.21164277 -89.741565 216.7042914 -90.24910121 217.21186877 C-90.74086402 217.70367194 -91.23262683 218.19547511 -91.73929155 218.7021814 C-100.37379207 227.33733617 -109.01118548 235.96959037 -117.65016556 244.6002636 C-121.32795098 248.27451298 -125.00488097 251.94961532 -128.68116379 255.62536812 C-133.00112521 259.94432821 -137.32361656 264.26074023 -141.64811707 268.57515526 C-143.23813448 270.1622423 -144.82729721 271.75018611 -146.41556168 273.3390274 C-148.57538782 275.49934128 -150.73824373 277.65657395 -152.90194702 279.81300354 C-153.5365618 280.44916692 -154.17117657 281.0853303 -154.8250221 281.74077135 C-160.42756302 287.31201947 -160.42756302 287.31201947 -165.640625 287.48046875 C-170.26937443 287.42829283 -172.85423149 286.27309476 -176.390625 283.16796875 C-178.72103876 280.2019876 -178.68647454 277.07025641 -178.8515625 273.36328125 C-177.47526109 266.80835421 -171.3753798 261.89111472 -166.80810547 257.39013672 C-166.04995544 256.63490723 -165.29180542 255.87967773 -164.51068115 255.1015625 C-162.87052664 253.46899602 -161.22806635 251.83874345 -159.58355331 250.21056747 C-156.9819481 247.6345462 -154.38669206 245.05227851 -151.79299927 242.46829224 C-146.28944829 236.98756441 -140.77809912 231.51471974 -135.265625 226.04296875 C-128.8704173 219.69493972 -122.47843578 213.34373269 -116.09482193 206.98404312 C-113.53624585 204.43844537 -110.97172709 201.89893826 -108.4069519 199.35958862 C-106.84245858 197.80235882 -105.27824451 196.24484839 -103.71435547 194.68701172 C-102.9984726 193.98146149 -102.28258972 193.27591125 -101.54501343 192.54898071 C-100.56510437 191.56928314 -100.56510437 191.56928314 -99.56539917 190.5697937 C-98.71315923 189.72421559 -98.71315923 189.72421559 -97.84370232 188.8615551 C-95.46248871 186.0862101 -94.46511659 183.8681897 -94.078125 180.23046875 C-94.43733727 176.7101885 -95.22683024 174.94999058 -97.390625 172.16796875 C-101.13634172 169.83869513 -103.8704195 169.93340937 -108.13245201 170.5389576 C-111.93803562 171.59899797 -114.10813319 173.84380066 -116.76489258 176.66577148 C-117.33524231 177.23816559 -117.90559204 177.81055969 -118.4932251 178.40029907 C-120.35991859 180.28266676 -122.19687404 182.19147574 -124.03515625 184.1015625 C-125.33359373 185.42002174 -126.63397514 186.73656914 -127.936203 188.05128479 C-131.3503851 191.50722547 -134.74070745 194.98562083 -138.12561035 198.47021484 C-143.55415722 204.04963443 -149.0206801 209.59192343 -154.48282433 215.13841438 C-156.38579005 217.0767435 -158.28003863 219.02325879 -160.17280579 220.97154236 C-161.33621094 222.16138606 -162.49971377 223.35113428 -163.66333008 224.54077148 C-164.44808968 225.35516945 -164.44808968 225.35516945 -165.248703 226.1860199 C-169.27465715 230.28453393 -171.59034794 232.02508962 -177.328125 232.48046875 C-181.10141235 232.37526557 -183.38905479 231.56922492 -186.390625 229.16796875 C-189.65453575 225.4651458 -190.11941671 222.72669949 -189.90160656 217.88175583 C-189.31276472 214.75445831 -188.45599952 213.59274261 -186.30085754 211.29425049 C-185.66383722 210.60761574 -185.0268169 209.92098099 -184.37049294 209.21353912 C-183.39045831 208.20098179 -183.39045831 208.20098179 -182.390625 207.16796875 C-181.81119329 206.56594383 -181.23176159 205.96391891 -180.63477135 205.34365082 C-178.84104629 203.51018044 -177.02538561 201.70132452 -175.2019043 199.89746094 C-174.52134476 199.21996796 -173.84078522 198.54247498 -173.13960266 197.8444519 C-171.6768088 196.38875648 -170.2128869 194.93419387 -168.74793053 193.48067474 C-166.42950337 191.17977048 -164.11475179 188.87522581 -161.80097961 186.56964111 C-155.22730287 180.02031356 -148.64790133 173.47675888 -142.06420898 166.9375 C-138.02542579 162.92547012 -133.99150356 158.90860596 -129.96055031 154.88871002 C-128.42621821 153.36058668 -126.88999112 151.83436359 -125.35184288 150.31008148 C-123.20746049 148.18487803 -121.06927479 146.05361975 -118.93237305 143.92089844 C-118.29600922 143.2932962 -117.65964539 142.66569397 -117.0039978 142.01907349 C-116.42237381 141.43614532 -115.84074982 140.85321716 -115.24150085 140.25262451 C-114.7362321 139.75049816 -114.23096334 139.24837181 -113.71038342 138.73102951 C-111.24391359 135.80985685 -110.43126977 133.54054583 -110.015625 129.73046875 C-110.46405619 125.47037241 -111.21714022 124.01596791 -114.390625 121.16796875 C-118.2247656 119.43175414 -120.36647532 118.89256578 -124.45385742 119.99169922 C-130.34775445 122.71953525 -134.59950092 127.90988013 -139.06640625 132.48828125 C-140.08198652 133.513876 -141.09853839 134.53850947 -142.11601257 135.56222534 C-144.77900982 138.24606044 -147.43018758 140.94126048 -150.07855225 143.63952637 C-154.33143625 147.96798666 -158.60340529 152.27763775 -162.87306786 156.58953476 C-164.36188055 158.09605307 -165.84640067 159.60669529 -167.33015442 161.11819458 C-168.22836411 162.02939056 -169.12657379 162.94058655 -170.05200195 163.87939453 C-170.84363235 164.68531036 -171.63526276 165.4912262 -172.45088196 166.32156372 C-176.02986859 169.72833399 -179.1468407 169.5012393 -183.91015625 169.453125 C-187.42259619 169.04933269 -189.06864618 167.78019492 -191.390625 165.16796875 C-193.65474325 162.14914442 -193.68613299 159.07792568 -193.8515625 155.36328125 C-192.41271901 148.51048431 -185.99963152 143.57377775 -181.203125 138.91796875 C-179.74912744 137.49831759 -178.29719585 136.07654642 -176.84765625 134.65234375 C-176.20803955 134.03069336 -175.56842285 133.40904297 -174.90942383 132.76855469 C-172.1175626 129.82635212 -172.06130824 127.20531185 -172.09765625 123.20703125 C-172.55317467 120.03662308 -174.14378157 118.34872855 -176.390625 116.16796875 C-179.70078138 114.51289056 -182.83778314 114.43004364 -186.390625 115.16796875 C-193.49600447 119.82869141 -199.37879918 127.03781151 -205.36111069 133.06328964 C-207.16614108 134.88122307 -208.9743994 136.69589147 -210.78347778 138.50979614 C-214.61370067 142.35136343 -218.43993699 146.19688602 -222.265625 150.04296875 C-226.72205389 154.52301264 -231.18010927 159.00141325 -235.64236832 163.47565079 C-237.42483589 165.26460512 -239.20427099 167.05653901 -240.98361206 168.84860229 C-242.0694941 169.93811448 -243.15551544 171.02748785 -244.24169922 172.11669922 C-244.73623093 172.61639725 -245.23076263 173.11609528 -245.74028015 173.63093567 C-249.27814629 177.1693512 -251.15320821 178.34649476 -256.140625 178.54296875 C-259.88166438 178.52131295 -262.0473225 178.19679563 -264.953125 175.79296875 C-267.96864263 172.54548822 -268.62265998 170.87060376 -268.890625 166.54296875 C-268.99890625 165.31707031 -268.99890625 165.31707031 -269.109375 164.06640625 C-266.72631209 154.45644603 -253.54450915 145.1493544 -246.68139648 138.26586914 C-245.18568304 136.76224287 -243.69014846 135.25843864 -242.19477844 133.75447083 C-237.30416983 128.83778666 -232.40823842 123.92642133 -227.51171875 119.015625 C-225.81967109 117.3182124 -224.12762972 115.62079352 -222.43559456 113.92336845 C-215.39384853 106.86001824 -208.35066829 99.7981033 -201.30375576 92.73990726 C-191.23670315 82.65662295 -181.17822516 72.56495697 -171.13158363 62.46133429 C-164.04794708 55.33890634 -156.95466611 48.22617424 -149.85424668 41.12047762 C-145.62227682 36.88486808 -141.39452807 32.64524394 -137.17706108 28.39518929 C-133.2063129 24.39419727 -129.22365285 20.40544691 -125.23190117 16.42541313 C-123.77724497 14.97097627 -122.32678436 13.51232774 -120.88110733 12.04896545 C-87.15292484 -22.06890532 -39.49583857 -30.26723577 0 0 Z " fill="#2E75B6" transform="translate(276.390625,21.83203125)"/>
<path d="M0 0 C1.27746094 -0.02835938 2.55492187 -0.05671875 3.87109375 -0.0859375 C9.84538067 0.66005812 13.00930895 3.52442172 16.71875 8.03515625 C17.84319748 9.49505942 18.95725929 10.96300267 20.0625 12.4375 C20.66707031 13.22898437 21.27164062 14.02046875 21.89453125 14.8359375 C26.77709429 21.25504212 31.5506262 27.75554747 36.31054688 34.26586914 C40.30155288 39.71123422 44.39536124 45.06349635 48.5625 50.375 C53.8893458 57.16735848 59.05289278 64.06177362 64.14990234 71.02783203 C68.76250357 77.31986001 73.45696151 83.5462182 78.1875 89.75 C79.20046143 91.07898315 79.20046143 91.07898315 80.23388672 92.43481445 C83.30156007 96.44964068 86.38028109 100.4497249 89.5625 104.375 C94.84627617 98.02947211 99.94704978 91.60475386 104.87109375 84.9765625 C108.26907564 80.41171652 111.73305555 75.89715939 115.1875 71.375 C120.55848657 64.34017178 125.89125541 57.27874096 131.1875 50.1875 C136.53777956 43.02761861 141.97192034 35.94055317 147.48901367 28.90844727 C150.33147689 25.27733309 153.13326023 21.62575188 155.859375 17.90625 C156.38893799 17.18598633 156.91850098 16.46572266 157.46411133 15.72363281 C158.44789401 14.37939565 159.42495482 13.03019729 160.39331055 11.67480469 C164.42626169 6.16943699 168.34121768 1.00436818 175.28125 -0.3515625 C188.33569893 -0.00092647 188.33569893 -0.00092647 193.5625 4.375 C195.57729364 7.5325281 195.81028146 10.00645624 195.80300903 13.71539307 C195.80713303 15.33915863 195.80713303 15.33915863 195.81134033 16.99572754 C195.8005545 18.76949768 195.8005545 18.76949768 195.78955078 20.57910156 C195.78984283 21.8281427 195.79013489 23.07718384 195.79043579 24.36407471 C195.78928146 27.78531111 195.77925323 31.20630594 195.76528788 34.62749958 C195.75278265 38.20427552 195.75161018 41.7810547 195.74923706 45.35784912 C195.74302168 52.12927987 195.72661008 58.90064602 195.70653808 65.67204833 C195.68418089 73.38177974 195.6731861 81.09151425 195.66314721 88.80127001 C195.64224389 104.65922378 195.60556694 120.51708858 195.5625 136.375 C186.3225 136.375 177.0825 136.375 167.5625 136.375 C167.2325 108.985 166.9025 81.595 166.5625 53.375 C159.23520346 62.39321112 151.97588562 71.35839815 144.93603516 80.58349609 C142.24687662 84.0909695 139.52791942 87.57534548 136.8125 91.0625 C136.21961182 91.8241748 135.62672363 92.58584961 135.01586914 93.37060547 C133.80300174 94.92862961 132.59002898 96.48657174 131.37695312 98.04443359 C129.01730956 101.07526748 126.65899897 104.10713553 124.30151367 107.13964844 C123.14655344 108.62424985 121.99047411 110.10798136 120.83325195 111.59082031 C117.77797134 115.50866221 114.74671455 119.44243935 111.74609375 123.40234375 C111.11896484 124.22412109 110.49183594 125.04589844 109.84570312 125.89257812 C108.6460627 127.46544002 107.45296389 129.04332051 106.26757812 130.62695312 C100.9207861 137.61012989 100.9207861 137.61012989 96.5625 139.375 C93.2578125 139.80859375 93.2578125 139.80859375 89.6875 139.8125 C88.51445313 139.83183594 87.34140625 139.85117188 86.1328125 139.87109375 C80.15216609 139.04008489 76.34426081 136.64957937 72.67578125 132.01171875 C71.72981395 130.7041758 70.7967261 129.38724288 69.875 128.0625 C68.83166695 126.61687039 67.78603487 125.17289766 66.73828125 123.73046875 C66.21186035 123.00134277 65.68543945 122.2722168 65.14306641 121.52099609 C62.71526348 118.22467424 60.14473381 115.05082158 57.5625 111.875 C53.44824229 106.78897593 49.4631938 101.6265202 45.5625 96.375 C41.14076883 90.42378004 36.5896934 84.59837428 31.93725586 78.82617188 C25.2404107 70.51117099 18.76970425 62.06508595 12.5625 53.375 C12.2325 80.765 11.9025 108.155 11.5625 136.375 C2.3225 136.375 -6.9175 136.375 -16.4375 136.375 C-16.52780125 119.64183155 -16.60148235 102.90887108 -16.64474869 86.17552662 C-16.66537214 78.40591012 -16.69348841 70.63645578 -16.73925781 62.86694336 C-16.77913245 56.09485903 -16.8049344 49.32289215 -16.81385398 42.55069369 C-16.81906774 38.96495601 -16.83131689 35.37955431 -16.86042023 31.79392433 C-16.8926501 27.79060602 -16.89345903 23.78787145 -16.89160156 19.78442383 C-16.91317322 18.00202049 -16.91317322 18.00202049 -16.93518066 16.18360901 C-16.89473818 8.14977621 -16.89473818 8.14977621 -14.55194092 4.17997742 C-10.01605798 0.30795328 -5.85428599 0.05895555 0 0 Z " fill="#2E75B6" transform="translate(1689.4375,44.625)"/>
<path d="M0 0 C2.52091552 2.20195822 4.89775422 4.48274386 7.25 6.86328125 C7.95898438 7.55035156 8.66796875 8.23742187 9.3984375 8.9453125 C20.77118423 20.68843603 25.84305403 36.10104808 25.6875 52.17578125 C25.67920166 53.28083008 25.67090332 54.38587891 25.66235352 55.52441406 C25.49371216 63.66481008 24.70693037 70.40413089 21.25 77.86328125 C20.775625 78.93191406 20.30125 80.00054687 19.8125 81.1015625 C12.03308494 97.01570245 -0.91667057 108.85783877 -17.609375 114.85546875 C-19.16398437 115.35433594 -19.16398437 115.35433594 -20.75 115.86328125 C-21.77222656 116.229375 -22.79445313 116.59546875 -23.84765625 116.97265625 C-29.25299165 118.47769456 -34.87079832 118.23191567 -40.4375 118.23828125 C-41.54544922 118.26277344 -42.65339844 118.28726563 -43.79492188 118.3125 C-59.88971697 118.36893996 -74.82484605 111.35835366 -86.49633789 100.39526367 C-96.07249032 90.83831796 -101.19642441 79.77672112 -104.75 66.86328125 C-105.01937378 65.89684692 -105.01937378 65.89684692 -105.29418945 64.91088867 C-108.9911011 48.3034982 -104.04621187 30.44449688 -95.5625 16.23828125 C-86.18030952 2.17512749 -72.23982936 -7.60323002 -55.88671875 -11.88671875 C-36.04728737 -15.75258901 -16.24725544 -12.62393285 0 0 Z " fill="#FCFDFE" transform="translate(261.75,33.13671875)"/>
<path d="M0 0 C20.17125 -0.061875 40.3425 -0.12375 61.125 -0.1875 C70.64432373 -0.22846802 70.64432373 -0.22846802 80.35595703 -0.27026367 C88.16381836 -0.28381348 88.16381836 -0.28381348 91.83029175 -0.28633118 C94.36635929 -0.29090854 96.9024207 -0.30139818 99.43844604 -0.31672668 C137.00316129 -0.53223706 137.00316129 -0.53223706 148.6875 9.25 C157.29799434 19.48950678 158.35772609 29.28355495 158.31567383 42.37426758 C158.31251094 44.43038894 158.33605514 46.48507078 158.36132812 48.54101562 C158.41382227 59.52123515 157.34154141 69.25151476 149.5390625 77.5546875 C137.25624983 89.14551072 119.62602098 88.35235341 103.875 88.625 C102.04164951 88.66324883 100.20831566 88.70230438 98.375 88.7421875 C93.91680432 88.83743468 89.45852483 88.92173561 85 89 C85.57105469 89.32049316 86.14210938 89.64098633 86.73046875 89.97119141 C98.82565216 96.76631929 110.86497896 103.64445729 122.8269043 110.67163086 C128.17474875 113.80259835 133.5468742 116.88261593 138.96484375 119.890625 C140.10904785 120.52621338 141.25325195 121.16180176 142.43212891 121.81665039 C144.64140582 123.03936374 146.85322293 124.25750147 149.06787109 125.47045898 C150.06254395 126.02032471 151.0572168 126.57019043 152.08203125 127.13671875 C153.40037964 127.85927856 153.40037964 127.85927856 154.74536133 128.59643555 C156.84246663 129.90193185 158.29999119 131.23345592 160 133 C102.60107281 136.2957931 102.60107281 136.2957931 82.56201172 119.11572266 C78.49846325 115.76002311 74.02621396 113.17698092 69.5 110.5 C67.82446874 109.46735174 66.15131972 108.43082905 64.48046875 107.390625 C58.52008029 103.70112563 52.55470084 100.01974164 46.58642578 96.34301758 C45.41062591 95.61853973 44.23500523 94.89377098 43.05957031 94.16870117 C41.4217341 93.15851488 39.78314925 92.14954266 38.14453125 91.140625 C37.19940674 90.55829102 36.25428223 89.97595703 35.28051758 89.37597656 C33.0779521 88.00599395 33.0779521 88.00599395 31 87 C30.67 102.18 30.34 117.36 30 133 C20.1 133 10.2 133 0 133 C0 89.11 0 45.22 0 0 Z M30 25 C30 38.53 30 52.06 30 66 C42.63281031 66.02915404 42.63281031 66.02915404 55.265625 66.04882812 C60.42872158 66.0547731 65.59180019 66.06175539 70.75488281 66.07543945 C74.92406789 66.08641838 79.09323366 66.09230814 83.2624321 66.09487724 C84.84178343 66.09670476 86.42113388 66.10027242 88.00047684 66.10573006 C107.36009482 67.06687251 107.36009482 67.06687251 125 61 C128.05097238 56.32587503 127.36830247 51.00981496 127.375 45.625 C127.41173828 44.08199219 127.41173828 44.08199219 127.44921875 42.5078125 C127.47297934 36.36174109 127.16603061 32.6434685 123 28 C116.75352218 24.25211331 107.82734213 24.8503309 100.72631836 24.88647461 C99.56854889 24.88625557 99.56854889 24.88625557 98.38739014 24.8860321 C95.87151134 24.88672102 93.35570939 24.89446487 90.83984375 24.90234375 C89.08150778 24.90421157 87.32317128 24.90563375 85.56483459 24.90663147 C80.96341485 24.91042802 76.36202726 24.9202335 71.76062012 24.93133545 C66.22548334 24.94342195 60.69033574 24.94796545 55.15518951 24.95378876 C46.77010406 24.96344708 38.385089 24.98262358 30 25 Z " fill="#2E75B6" transform="translate(1501,48)"/>
<path d="M0 0 C20.17125 -0.061875 40.3425 -0.12375 61.125 -0.1875 C70.64432373 -0.22846802 70.64432373 -0.22846802 80.35595703 -0.27026367 C88.16381836 -0.28381348 88.16381836 -0.28381348 91.83029175 -0.28633118 C94.36635929 -0.29090854 96.9024207 -0.30139818 99.43844604 -0.31672668 C137.00316129 -0.53223706 137.00316129 -0.53223706 148.6875 9.25 C157.29799434 19.48950678 158.35772609 29.28355495 158.31567383 42.37426758 C158.31251094 44.43038894 158.33605514 46.48507078 158.36132812 48.54101562 C158.41382227 59.52123515 157.34154141 69.25151476 149.5390625 77.5546875 C137.25624983 89.14551072 119.62602098 88.35235341 103.875 88.625 C102.04164951 88.66324883 100.20831566 88.70230438 98.375 88.7421875 C93.91680432 88.83743468 89.45852483 88.92173561 85 89 C85.57105469 89.32049316 86.14210938 89.64098633 86.73046875 89.97119141 C98.82565216 96.76631929 110.86497896 103.64445729 122.8269043 110.67163086 C128.17474875 113.80259835 133.5468742 116.88261593 138.96484375 119.890625 C140.10904785 120.52621338 141.25325195 121.16180176 142.43212891 121.81665039 C144.64140582 123.03936374 146.85322293 124.25750147 149.06787109 125.47045898 C150.06254395 126.02032471 151.0572168 126.57019043 152.08203125 127.13671875 C153.40037964 127.85927856 153.40037964 127.85927856 154.74536133 128.59643555 C156.84246663 129.90193185 158.29999119 131.23345592 160 133 C102.60107281 136.2957931 102.60107281 136.2957931 82.56201172 119.11572266 C78.49846325 115.76002311 74.02621396 113.17698092 69.5 110.5 C67.82446874 109.46735174 66.15131972 108.43082905 64.48046875 107.390625 C58.52008029 103.70112563 52.55470084 100.01974164 46.58642578 96.34301758 C45.41062591 95.61853973 44.23500523 94.89377098 43.05957031 94.16870117 C41.4217341 93.15851488 39.78314925 92.14954266 38.14453125 91.140625 C37.19940674 90.55829102 36.25428223 89.97595703 35.28051758 89.37597656 C33.0779521 88.00599395 33.0779521 88.00599395 31 87 C30.67 102.18 30.34 117.36 30 133 C20.1 133 10.2 133 0 133 C0 89.11 0 45.22 0 0 Z M30 25 C30 38.53 30 52.06 30 66 C42.63281031 66.02915404 42.63281031 66.02915404 55.265625 66.04882812 C60.42872158 66.0547731 65.59180019 66.06175539 70.75488281 66.07543945 C74.92406789 66.08641838 79.09323366 66.09230814 83.2624321 66.09487724 C84.84178343 66.09670476 86.42113388 66.10027242 88.00047684 66.10573006 C107.36009482 67.06687251 107.36009482 67.06687251 125 61 C128.05097238 56.32587503 127.36830247 51.00981496 127.375 45.625 C127.41173828 44.08199219 127.41173828 44.08199219 127.44921875 42.5078125 C127.47297934 36.36174109 127.16603061 32.6434685 123 28 C116.75352218 24.25211331 107.82734213 24.8503309 100.72631836 24.88647461 C99.56854889 24.88625557 99.56854889 24.88625557 98.38739014 24.8860321 C95.87151134 24.88672102 93.35570939 24.89446487 90.83984375 24.90234375 C89.08150778 24.90421157 87.32317128 24.90563375 85.56483459 24.90663147 C80.96341485 24.91042802 76.36202726 24.9202335 71.76062012 24.93133545 C66.22548334 24.94342195 60.69033574 24.94796545 55.15518951 24.95378876 C46.77010406 24.96344708 38.385089 24.98262358 30 25 Z " fill="#2E75B6" transform="translate(818,48)"/>
<path d="M0 0 C1.88270664 -0.00389488 3.7654124 -0.00823116 5.64811707 -0.01298523 C9.5825791 -0.02041813 13.51695135 -0.02017779 17.45141602 -0.01489258 C22.46087452 -0.00910599 27.46996232 -0.02602377 32.47935963 -0.04923725 C36.36502687 -0.06406365 40.2506067 -0.06483418 44.13629723 -0.06172752 C45.9816327 -0.0622364 47.82697363 -0.0673915 49.67228127 -0.07753944 C65.03440488 -0.15165761 79.1850793 0.47070158 91.4765625 10.82421875 C101.23821068 20.80495629 100.82865844 36.31281851 100.87109375 49.2734375 C100.87533482 50.28017423 100.87533482 50.28017423 100.87966156 51.30724907 C100.89459588 54.8636094 100.90385999 58.41992982 100.90820312 61.97631836 C100.91366016 65.60807409 100.93764558 69.2394497 100.96617508 72.87108707 C100.98501263 75.69993577 100.99001825 78.52869703 100.991539 81.35760307 C100.99595155 83.33472449 101.01449485 85.3117987 101.0335083 87.28883362 C101.0050504 99.02490181 100.2283395 113.06946349 91.94921875 122.1953125 C79.35554401 134.06435119 63.5778198 133.61561188 47.3359375 133.6015625 C45.45323086 133.60545738 43.5705251 133.60979366 41.68782043 133.61454773 C37.7533584 133.62198063 33.81898615 133.62174029 29.88452148 133.61645508 C24.87506298 133.61066849 19.86597518 133.62758627 14.85657787 133.65079975 C10.97091063 133.66562615 7.0853308 133.66639668 3.19964027 133.66329002 C1.3543048 133.6637989 -0.49103613 133.668954 -2.33634377 133.67910194 C-17.35076041 133.75154251 -32.06375399 133.40565764 -43.91796875 122.89453125 C-53.57415872 112.36050582 -53.64237958 97.34594589 -53.6328125 83.9375 C-53.63671392 82.57428358 -53.64105148 81.21106835 -53.64579773 79.84785461 C-53.65320592 77.00635825 -53.65300876 74.16498623 -53.64770508 71.32348633 C-53.64192336 67.72319919 -53.65883616 64.12342869 -53.68204975 60.52322674 C-53.69694714 57.71152384 -53.69763727 54.89994073 -53.69454002 52.08820534 C-53.69528721 50.12882331 -53.70902654 48.16945954 -53.72322083 46.21012878 C-53.65963987 33.70842617 -52.47064003 20.24248352 -43.76953125 10.5625 C-31.66885526 -0.72586209 -15.44540998 -0.01336042 0 0 Z M-17.33203125 30.30078125 C-21.46311745 34.76682038 -22.45321894 37.97524973 -22.49316406 43.9621582 C-22.50277161 45.12378983 -22.51237915 46.28542145 -22.52227783 47.48225403 C-22.52652771 48.73850082 -22.53077759 49.99474762 -22.53515625 51.2890625 C-22.54085632 52.58015427 -22.5465564 53.87124603 -22.5524292 55.20146179 C-22.56292919 57.93598829 -22.56877815 60.67048548 -22.57226562 63.4050293 C-22.57774317 66.89868912 -22.60175901 70.39195781 -22.63023758 73.88549519 C-22.6534126 77.22834318 -22.65531696 80.57113836 -22.66015625 83.9140625 C-22.67250305 85.1642366 -22.68484985 86.41441071 -22.6975708 87.70246887 C-22.80237172 95.97366115 -22.80237172 95.97366115 -19.33203125 103.30078125 C-11.94603267 109.64521433 -1.17456754 108.59770261 8.015625 108.56640625 C9.26750107 108.5683197 10.51937714 108.57023315 11.80918884 108.57220459 C15.11173641 108.57390348 18.41409165 108.56592842 21.71661377 108.5546875 C23.73048926 108.55078121 25.74419068 108.55468041 27.75805664 108.56152344 C31.65649379 108.57392745 35.55467689 108.57236946 39.453125 108.56640625 C40.64398209 108.57045471 41.83483917 108.57450317 43.06178284 108.57867432 C54.71027669 108.65848756 54.71027669 108.65848756 65.10546875 104.05078125 C70.78339071 97.95740159 69.98891349 90.6200086 70.00390625 82.74609375 C70.01056305 81.53057831 70.01721985 80.31506287 70.02407837 79.06271362 C70.03418731 76.49576324 70.03889593 73.92878667 70.03857422 71.36181641 C70.04294562 67.44649727 70.07928178 63.53230726 70.1171875 59.6171875 C70.12305641 57.11849342 70.12702531 54.61979401 70.12890625 52.12109375 C70.14327728 50.95627472 70.15764832 49.79145569 70.17245483 48.59133911 C70.13385442 41.68338184 69.38364074 37.17449756 65.66796875 31.30078125 C58.45710445 24.52693903 45.72891284 26.14844046 36.48046875 26.16796875 C34.94483276 26.16653366 34.94483276 26.16653366 33.37817383 26.16506958 C31.23030536 26.16439412 29.08243477 26.16620373 26.93457031 26.17041016 C23.67638495 26.17576741 20.41833741 26.17044339 17.16015625 26.1640625 C15.05859345 26.16472339 12.95703074 26.16600479 10.85546875 26.16796875 C9.41747925 26.1649324 9.41747925 26.1649324 7.95043945 26.16183472 C-5.29837002 25.79762719 -5.29837002 25.79762719 -17.33203125 30.30078125 Z " fill="#2E75B6" transform="translate(1041.33203125,47.69921875)"/>
<path d="M0 0 C7.10022268 4.28397764 11.61422437 11.24849782 15.58789062 18.30932617 C16.62292832 20.0895578 17.66079541 21.86814677 18.70117188 23.64526367 C19.23436035 24.55888672 19.76754883 25.47250977 20.31689453 26.41381836 C23.03351728 30.98638362 25.90228882 35.45901062 28.77539062 39.93432617 C33.76019771 47.7179005 38.6974285 55.52859685 43.58789062 63.37182617 C48.02652321 70.48862103 52.47672197 77.59739217 56.96289062 84.68432617 C62.8055427 93.91666906 68.59691467 103.18074149 74.38085938 112.44995117 C76.62644652 116.04816448 78.87807265 119.64240113 81.13867188 123.23120117 C81.61030762 123.98119385 82.08194336 124.73118652 82.56787109 125.50390625 C83.4335834 126.87987808 84.30100135 128.25477879 85.17041016 129.62841797 C87.96289062 134.07242365 87.96289062 134.07242365 87.96289062 135.18432617 C82.96447762 135.43269927 77.96969328 135.61347876 72.96655273 135.73364258 C71.26767398 135.78374746 69.56922262 135.85185963 67.87182617 135.9387207 C54.0727543 136.62685277 54.0727543 136.62685277 49.67041016 133.61694336 C47.25539107 130.28411447 45.58493164 126.59823065 43.93172455 122.84047699 C39.26237349 111.83770676 39.26237349 111.83770676 30.72810555 104.04439926 C24.47362944 102.31616027 18.08563643 102.73780684 11.66601562 103.01245117 C9.62054865 103.02734183 7.57499972 103.03336078 5.52947998 103.03094482 C0.17926744 103.04818893 -5.16128753 103.18476924 -10.50878906 103.34747314 C-15.97845164 103.49238173 -21.44866608 103.52279488 -26.91992188 103.56323242 C-37.6292221 103.65907063 -48.33181021 103.88117438 -59.03710938 104.18432617 C-59.34101593 104.96171646 -59.64492249 105.73910675 -59.95803833 106.54005432 C-61.02214837 109.1476641 -62.26299965 111.4276421 -63.71679688 113.83666992 C-64.49216797 115.12541016 -64.49216797 115.12541016 -65.28320312 116.44018555 C-65.82074219 117.32512695 -66.35828125 118.21006836 -66.91210938 119.12182617 C-67.44191406 120.00290039 -67.97171875 120.88397461 -68.51757812 121.79174805 C-70.01082057 124.26504663 -71.50562886 126.73449712 -73.03710938 129.18432617 C-73.58737793 130.26093506 -74.13764648 131.33754395 -74.70458984 132.44677734 C-77.03710938 135.18432617 -77.03710938 135.18432617 -80.79589844 135.86547852 C-82.29851201 135.86453332 -83.80134435 135.83089741 -85.30273438 135.77026367 C-86.0961322 135.76177399 -86.88953003 135.7532843 -87.70697021 135.74453735 C-90.23507918 135.71101309 -92.759969 135.63574597 -95.28710938 135.55932617 C-97.00320905 135.52922484 -98.71935887 135.50184931 -100.43554688 135.47729492 C-104.63730346 135.41122631 -108.83666118 135.30771987 -113.03710938 135.18432617 C-109.12717374 127.80655527 -104.94307838 120.69585529 -100.41210938 113.68432617 C-99.16834337 111.7443992 -97.9248584 109.80429202 -96.68164062 107.86401367 C-95.75859131 106.42687012 -95.75859131 106.42687012 -94.81689453 104.96069336 C-92.22728841 100.92104991 -89.66057757 96.86716764 -87.09960938 92.80932617 C-86.62056152 92.05071289 -86.14151367 91.29209961 -85.64794922 90.51049805 C-80.9452728 83.05439296 -76.27874705 75.5757405 -71.61035156 68.09814453 C-66.2697545 59.5473039 -60.89369242 51.01938828 -55.50195312 42.50073242 C-53.46132186 39.27381417 -51.42578544 36.04369339 -49.39038086 32.81347656 C-47.88187498 30.42295726 -46.36789482 28.03597136 -44.85351562 25.64916992 C-43.0631765 22.82381943 -41.30024166 19.98488552 -39.56445312 17.12573242 C-30.88384665 2.95753345 -17.64506692 -8.34543723 0 0 Z M-13.03710938 31.18432617 C-18.61412058 38.36110945 -23.25504852 46.24618767 -27.97460938 53.99682617 C-29.31705729 56.19083659 -30.65950521 58.38484701 -32.00195312 60.57885742 C-32.6579248 61.65474121 -33.31389648 62.730625 -33.98974609 63.83911133 C-35.42692407 66.18733607 -36.87009968 68.53079517 -38.32275391 70.86938477 C-38.69404922 71.46829025 -39.06534454 72.06719574 -39.44789124 72.68424988 C-40.48720841 74.35932352 -41.52882028 76.03297276 -42.57055664 77.70654297 C-44.12200089 79.84787477 -44.12200089 79.84787477 -44.03710938 81.18432617 C-23.57710937 81.18432617 -3.11710937 81.18432617 17.96289062 81.18432617 C16.45180174 77.40660395 15.07693782 74.55539938 12.94335938 71.18432617 C12.3389502 70.22397461 11.73454102 69.26362305 11.11181641 68.27416992 C10.14091064 66.74469727 10.14091064 66.74469727 9.15039062 65.18432617 C7.79696257 63.03884819 6.44410989 60.89300715 5.09179688 58.74682617 C4.40617676 57.66014648 3.72055664 56.5734668 3.01416016 55.45385742 C1.03000848 52.29130574 -0.93228961 49.11651333 -2.88476562 45.93432617 C-3.47990967 44.96495117 -4.07505371 43.99557617 -4.68823242 42.99682617 C-5.82375772 41.1442201 -6.95679761 39.29008798 -8.0871582 37.43432617 C-8.59400146 36.60932617 -9.10084473 35.78432617 -9.62304688 34.93432617 C-10.06696777 34.20729492 -10.51088867 33.48026367 -10.96826172 32.73120117 C-11.32098145 32.22073242 -11.67370117 31.71026367 -12.03710938 31.18432617 C-12.36710937 31.18432617 -12.69710938 31.18432617 -13.03710938 31.18432617 Z " fill="#2E75B6" transform="translate(1406.037109375,45.815673828125)"/>
<path d="M0 0 C7.10022268 4.28397764 11.61422437 11.24849782 15.58789062 18.30932617 C16.62292832 20.0895578 17.66079541 21.86814677 18.70117188 23.64526367 C19.23436035 24.55888672 19.76754883 25.47250977 20.31689453 26.41381836 C23.03351728 30.98638362 25.90228882 35.45901062 28.77539062 39.93432617 C33.76019771 47.7179005 38.6974285 55.52859685 43.58789062 63.37182617 C48.02652321 70.48862103 52.47672197 77.59739217 56.96289062 84.68432617 C62.8055427 93.91666906 68.59691467 103.18074149 74.38085938 112.44995117 C76.62644652 116.04816448 78.87807265 119.64240113 81.13867188 123.23120117 C81.61030762 123.98119385 82.08194336 124.73118652 82.56787109 125.50390625 C83.4335834 126.87987808 84.30100135 128.25477879 85.17041016 129.62841797 C87.96289062 134.07242365 87.96289062 134.07242365 87.96289062 135.18432617 C82.96447762 135.43269927 77.96969328 135.61347876 72.96655273 135.73364258 C71.26767398 135.78374746 69.56922262 135.85185963 67.87182617 135.9387207 C54.0727543 136.62685277 54.0727543 136.62685277 49.67041016 133.61694336 C47.25539107 130.28411447 45.58493164 126.59823065 43.93172455 122.84047699 C39.26237349 111.83770676 39.26237349 111.83770676 30.72810555 104.04439926 C24.47362944 102.31616027 18.08563643 102.73780684 11.66601562 103.01245117 C9.62054865 103.02734183 7.57499972 103.03336078 5.52947998 103.03094482 C0.17926744 103.04818893 -5.16128753 103.18476924 -10.50878906 103.34747314 C-15.97845164 103.49238173 -21.44866608 103.52279488 -26.91992188 103.56323242 C-37.6292221 103.65907063 -48.33181021 103.88117438 -59.03710938 104.18432617 C-59.34101593 104.96171646 -59.64492249 105.73910675 -59.95803833 106.54005432 C-61.02214837 109.1476641 -62.26299965 111.4276421 -63.71679688 113.83666992 C-64.49216797 115.12541016 -64.49216797 115.12541016 -65.28320312 116.44018555 C-65.82074219 117.32512695 -66.35828125 118.21006836 -66.91210938 119.12182617 C-67.44191406 120.00290039 -67.97171875 120.88397461 -68.51757812 121.79174805 C-70.01082057 124.26504663 -71.50562886 126.73449712 -73.03710938 129.18432617 C-73.58737793 130.26093506 -74.13764648 131.33754395 -74.70458984 132.44677734 C-77.03710938 135.18432617 -77.03710938 135.18432617 -80.79589844 135.86547852 C-82.29851201 135.86453332 -83.80134435 135.83089741 -85.30273438 135.77026367 C-86.0961322 135.76177399 -86.88953003 135.7532843 -87.70697021 135.74453735 C-90.23507918 135.71101309 -92.759969 135.63574597 -95.28710938 135.55932617 C-97.00320905 135.52922484 -98.71935887 135.50184931 -100.43554688 135.47729492 C-104.63730346 135.41122631 -108.83666118 135.30771987 -113.03710938 135.18432617 C-109.12717374 127.80655527 -104.94307838 120.69585529 -100.41210938 113.68432617 C-99.16834337 111.7443992 -97.9248584 109.80429202 -96.68164062 107.86401367 C-95.75859131 106.42687012 -95.75859131 106.42687012 -94.81689453 104.96069336 C-92.22728841 100.92104991 -89.66057757 96.86716764 -87.09960938 92.80932617 C-86.62056152 92.05071289 -86.14151367 91.29209961 -85.64794922 90.51049805 C-80.9452728 83.05439296 -76.27874705 75.5757405 -71.61035156 68.09814453 C-66.2697545 59.5473039 -60.89369242 51.01938828 -55.50195312 42.50073242 C-53.46132186 39.27381417 -51.42578544 36.04369339 -49.39038086 32.81347656 C-47.88187498 30.42295726 -46.36789482 28.03597136 -44.85351562 25.64916992 C-43.0631765 22.82381943 -41.30024166 19.98488552 -39.56445312 17.12573242 C-30.88384665 2.95753345 -17.64506692 -8.34543723 0 0 Z M-13.03710938 31.18432617 C-18.61412058 38.36110945 -23.25504852 46.24618767 -27.97460938 53.99682617 C-29.31705729 56.19083659 -30.65950521 58.38484701 -32.00195312 60.57885742 C-32.6579248 61.65474121 -33.31389648 62.730625 -33.98974609 63.83911133 C-35.42692407 66.18733607 -36.87009968 68.53079517 -38.32275391 70.86938477 C-38.69404922 71.46829025 -39.06534454 72.06719574 -39.44789124 72.68424988 C-40.48720841 74.35932352 -41.52882028 76.03297276 -42.57055664 77.70654297 C-44.12200089 79.84787477 -44.12200089 79.84787477 -44.03710938 81.18432617 C-23.57710937 81.18432617 -3.11710937 81.18432617 17.96289062 81.18432617 C16.45180174 77.40660395 15.07693782 74.55539938 12.94335938 71.18432617 C12.3389502 70.22397461 11.73454102 69.26362305 11.11181641 68.27416992 C10.14091064 66.74469727 10.14091064 66.74469727 9.15039062 65.18432617 C7.79696257 63.03884819 6.44410989 60.89300715 5.09179688 58.74682617 C4.40617676 57.66014648 3.72055664 56.5734668 3.01416016 55.45385742 C1.03000848 52.29130574 -0.93228961 49.11651333 -2.88476562 45.93432617 C-3.47990967 44.96495117 -4.07505371 43.99557617 -4.68823242 42.99682617 C-5.82375772 41.1442201 -6.95679761 39.29008798 -8.0871582 37.43432617 C-8.59400146 36.60932617 -9.10084473 35.78432617 -9.62304688 34.93432617 C-10.06696777 34.20729492 -10.51088867 33.48026367 -10.96826172 32.73120117 C-11.32098145 32.22073242 -11.67370117 31.71026367 -12.03710938 31.18432617 C-12.36710937 31.18432617 -12.69710937 31.18432617 -13.03710938 31.18432617 Z " fill="#2E75B6" transform="translate(441.037109375,45.815673828125)"/>
<path d="M0 0 C1.1007637 0.00007553 2.2015274 0.00015106 3.33564758 0.00022888 C5.10152473 0.00797081 5.10152473 0.00797081 6.90307617 0.01586914 C8.11678391 0.01728409 9.33049164 0.01869904 10.58097839 0.02015686 C14.45269244 0.02574874 18.32434839 0.03829981 22.19604492 0.05102539 C24.82299721 0.05604144 27.44995041 0.06060416 30.0769043 0.06469727 C36.51249149 0.07486407 42.94795327 0.09444126 49.38354492 0.11352539 C49.38354492 8.36352539 49.38354492 16.61352539 49.38354492 25.11352539 C46.43288086 25.16250977 43.4822168 25.21149414 40.44213867 25.26196289 C37.56928648 25.31604669 34.6965144 25.37332509 31.82373047 25.4309082 C29.83453392 25.469078 27.84527118 25.50395137 25.85595703 25.53540039 C22.98861103 25.58131236 20.12171605 25.63926286 17.25463867 25.69946289 C15.93078407 25.7167897 15.93078407 25.7167897 14.58018494 25.73446655 C9.50054895 25.85457323 5.17607417 26.37859121 0.38354492 28.11352539 C-2.4906299 31.41644452 -1.98387746 35.93067997 -1.99145508 40.11352539 C-2.01594727 40.82508789 -2.04043945 41.53665039 -2.06567383 42.26977539 C-2.08406822 45.55623962 -1.84819955 47.74273424 -0.09301758 50.55102539 C5.07762377 53.81325968 12.20793098 53.23958948 18.15380859 53.25537109 C18.88511993 53.25884552 19.61643127 53.26231995 20.36990356 53.26589966 C21.94396916 53.2731988 23.51804466 53.27857494 25.09212303 53.28219032 C27.59578364 53.28943474 30.09925702 53.3051599 32.6028595 53.3235321 C39.71665862 53.37562469 46.83035021 53.42390768 53.94433594 53.43945312 C58.31099306 53.44961527 62.67716877 53.47914023 67.04363441 53.52077293 C68.69354908 53.53296612 70.34353204 53.53822591 71.99349022 53.5359745 C84.39486635 53.52321704 97.39118363 53.88961083 106.79760742 63.11743164 C113.82508628 71.96236193 113.56550401 82.0919886 113.57104492 92.86352539 C113.58329102 94.10102539 113.59553711 95.33852539 113.6081543 96.61352539 C113.62432257 106.74564424 113.25999447 116.14424156 106.38354492 124.11352539 C97.21540011 132.26708677 86.13167119 133.57403029 74.30273438 133.45410156 C72.57394295 133.45475868 72.57394295 133.45475868 70.81022644 133.45542908 C67.03891459 133.45335587 63.2680594 133.43009393 59.49682617 133.40649414 C56.86696109 133.40089298 54.23709286 133.39662534 51.60722351 133.39363098 C45.41680147 133.38435178 39.22654068 133.35979473 33.03618926 133.32958251 C25.98167771 133.29590903 18.92715796 133.27952014 11.87258589 133.26449621 C-2.62385568 133.2332408 -17.12012327 133.17828119 -31.61645508 133.11352539 C-31.61645508 124.86352539 -31.61645508 116.61352539 -31.61645508 108.11352539 C-28.44205811 108.09370605 -25.26766113 108.07388672 -21.99707031 108.0534668 C-11.50367206 107.98653152 -1.01037261 107.90889226 9.48291111 107.82599831 C15.84437953 107.77607287 22.20583165 107.72974229 28.56738281 107.69165039 C34.70771088 107.65475049 40.84790129 107.60837736 46.9881115 107.55546188 C49.32960531 107.53694302 51.67112861 107.52182582 54.0126667 107.51018143 C57.29472037 107.49327635 60.57646052 107.46423032 63.85839844 107.43237305 C65.30741547 107.42913277 65.30741547 107.42913277 66.78570557 107.42582703 C72.01825708 107.36103278 76.46705574 106.97044532 81.38354492 105.11352539 C84.54167961 101.46012315 84.7678457 98.3413306 84.69604492 93.61352539 C84.69217773 92.51008789 84.68831055 91.40665039 84.68432617 90.26977539 C84.38616388 87.1410074 83.77945219 84.91541868 82.38354492 82.11352539 C77.30404193 78.2062154 68.63431713 78.96692665 62.50561523 78.97167969 C61.39160843 78.96646805 61.39160843 78.96646805 60.25509644 78.96115112 C58.65647361 78.95385115 57.05784103 78.94847544 55.45920563 78.94486046 C52.91801518 78.93761975 50.37700957 78.92189778 47.83587646 78.90351868 C40.61546361 78.85140465 33.39515747 78.80312652 26.17456055 78.78759766 C21.7430721 78.77744745 17.31205954 78.74795299 12.88076019 78.70627785 C11.20489877 78.69406919 9.52896988 78.68882779 7.85306549 78.69107628 C-2.94793732 78.70200262 -14.0021434 78.55315266 -23.11645508 71.86352539 C-32.53075038 61.50780055 -32.18070054 47.4604024 -31.72143555 34.22729492 C-31.21215466 23.97298339 -29.10301438 13.86626053 -21.24145508 6.67602539 C-14.85715294 1.76288853 -7.98753763 -0.01836216 0 0 Z " fill="#2E75B6" transform="translate(563.616455078125,47.886474609375)"/>
<path d="M0 0 C2.28774465 0.02011062 4.57550652 0.03835325 6.86328125 0.0546875 C12.40963901 0.0948494 17.95355172 0.17320302 23.5 0.25 C23.5 8.83 23.5 17.41 23.5 26.25 C20.35210938 26.32347656 20.35210938 26.32347656 17.140625 26.3984375 C15.06520597 26.45273966 12.98988474 26.50993086 10.91455078 26.56738281 C9.49307816 26.60522034 8.07152439 26.64014384 6.64990234 26.671875 C-10.69798713 26.2477382 -10.69798713 26.2477382 -25.5 33.25 C-29.82657702 40.71849604 -28.98606279 50.02700459 -29.5 58.25 C7.79 58.25 45.08 58.25 83.5 58.25 C83.5 66.5 83.5 74.75 83.5 83.25 C46.21 83.25 8.92 83.25 -29.5 83.25 C-29.5 99.75 -29.5 116.25 -29.5 133.25 C-39.73 133.25 -49.96 133.25 -60.5 133.25 C-60.54543118 121.67867863 -60.58201902 110.10741783 -60.60362434 98.53602695 C-60.61400092 93.1612723 -60.62804628 87.78658255 -60.65087891 82.41186523 C-60.67282819 77.21172904 -60.68461451 72.01165474 -60.68975449 66.81147575 C-60.69341104 64.84105393 -60.7005495 62.87063496 -60.71146011 60.90023994 C-60.76159673 51.45857501 -60.68605109 42.11575723 -59.60498047 32.72631836 C-59.5262224 32.04172074 -59.44746433 31.35712313 -59.36631966 30.65178013 C-58.66920245 25.31223609 -57.22569163 20.87050328 -54.5 16.25 C-53.943125 15.198125 -53.38625 14.14625 -52.8125 13.0625 C-40.16814917 -2.31576452 -17.90629289 -0.27600219 0 0 Z " fill="#2E75B6" transform="translate(1218.5,47.75)"/>
<path d="M0 0 C47.19 0 94.38 0 143 0 C143 8.58 143 17.16 143 26 C124.52 26 106.04 26 87 26 C87 61.31 87 96.62 87 133 C76.77 133 66.54 133 56 133 C56 97.69 56 62.38 56 26 C37.52 26 19.04 26 0 26 C0 17.42 0 8.84 0 0 Z " fill="#2E75B6" transform="translate(665,48)"/>
<path d="M0 0 C3.63 0 7.26 0 11 0 C15.22573032 8.91422072 19.30242465 17.84977898 23 27 C24.83356058 24.24965913 26.05461177 21.73849066 27.34765625 18.7109375 C27.78787109 17.68742187 28.22808594 16.66390625 28.68164062 15.609375 C29.13732422 14.54203125 29.59300781 13.4746875 30.0625 12.375 C30.96790219 10.25689222 31.87534329 8.13965443 32.78515625 6.0234375 C33.38662476 4.61457275 33.38662476 4.61457275 34.00024414 3.17724609 C35 1 35 1 36 0 C39.3 0 42.6 0 46 0 C46 16.17 46 32.34 46 49 C43.69 49 41.38 49 39 49 C38.505 31.675 38.505 31.675 38 14 C34.75142752 21.52317084 34.75142752 21.52317084 31.50805664 29.04858398 C31.10449951 29.98001221 30.70094238 30.91144043 30.28515625 31.87109375 C29.87144775 32.82943115 29.45773926 33.78776855 29.03149414 34.77514648 C28 37 28 37 27 38 C24.36 38 21.72 38 19 38 C15.7 30.41 12.4 22.82 9 15 C8.67 26.22 8.34 37.44 8 49 C5.36 49 2.72 49 0 49 C0 32.83 0 16.66 0 0 Z " fill="#2E75B6" transform="translate(1954,31)"/>
<path d="M0 0 C3.40181919 2.31942218 4.40773362 3.99734156 5.75 7.875 C6.3342113 12.54869039 5.90965148 15.20567278 3.21459961 19.05078125 C-0.11011481 23.19184912 -3.92983437 26.88157874 -7.6875 30.625 C-8.9569043 31.91857422 -8.9569043 31.91857422 -10.25195312 33.23828125 C-11.07501953 34.06199219 -11.89808594 34.88570312 -12.74609375 35.734375 C-13.49044678 36.48170898 -14.2347998 37.22904297 -15.00170898 37.99902344 C-17.86823107 40.3908527 -20.55722968 41.77881987 -24.3125 41.9921875 C-29.01168499 41.40478938 -31.88016408 40.44306156 -35.25 36.875 C-37.41811308 33.3271786 -37.65599343 30.05697798 -36.94921875 25.953125 C-35.51725194 21.69722365 -32.37875787 18.98423363 -29.25 15.875 C-28.02888805 14.61951957 -26.80894163 13.36290498 -25.58984375 12.10546875 C-24.24888018 10.73552465 -22.9064132 9.36705064 -21.5625 8 C-20.90878418 7.33282959 -20.25506836 6.66565918 -19.58154297 5.97827148 C-18.9526416 5.34864502 -18.32374023 4.71901855 -17.67578125 4.0703125 C-17.11286377 3.50328613 -16.54994629 2.93625977 -15.9699707 2.35205078 C-11.04016451 -1.88149464 -6.09070541 -2.1083211 0 0 Z " fill="#2E75B6" transform="translate(73.25,196.125)"/>
<path d="M0 0 C3.62531608 1.8741654 5.69121639 4.07364917 7 8 C7.5071901 14.18771916 7.11139019 17.08638733 3 22 C-1.56534709 27.37797887 -5.58984367 32.08216077 -12.86328125 33.046875 C-16.55920084 32.9657945 -18.89398956 31.9488693 -22 30 C-24.89432673 26.73460574 -25.90492391 24.774191 -26.4375 20.4375 C-25.64066516 14.17665483 -21.81287642 10.51613575 -17.4375 6.25 C-16.94314453 5.75628906 -16.44878906 5.26257813 -15.93945312 4.75390625 C-10.8690877 -0.25470912 -7.04311393 -0.98150592 0 0 Z " fill="#2E75B6" transform="translate(75,259)"/>
<path d="M0 0 C12.54 0 25.08 0 38 0 C38 1.98 38 3.96 38 6 C33.05 6 28.1 6 23 6 C23 20.19 23 34.38 23 49 C20.36 49 17.72 49 15 49 C15 34.81 15 20.62 15 6 C10.05 6 5.1 6 0 6 C0 4.02 0 2.04 0 0 Z " fill="#2E75B6" transform="translate(1911,31)"/>
<path d="M0 0 C2.14576637 -0.02685938 4.29162645 -0.04633088 6.4375 -0.0625 C7.63246094 -0.07410156 8.82742187 -0.08570312 10.05859375 -0.09765625 C13 0 13 0 14 1 C14.25035974 4.30516934 14.18521952 7.62396041 14.1875 10.9375 C14.19974609 11.87013672 14.21199219 12.80277344 14.22460938 13.76367188 C14.22750977 15.10075195 14.22750977 15.10075195 14.23046875 16.46484375 C14.23457764 17.285896 14.23868652 18.10694824 14.24291992 18.95288086 C14 21 14 21 12 23 C9.43359375 23.23046875 9.43359375 23.23046875 6.4375 23.1875 C5.44621094 23.18105469 4.45492187 23.17460937 3.43359375 23.16796875 C1 23 1 23 0 22 C-0.08700342 20.36527118 -0.10701063 18.72685945 -0.09765625 17.08984375 C-0.09443359 16.10048828 -0.09121094 15.11113281 -0.08789062 14.09179688 C-0.07951172 13.05087891 -0.07113281 12.00996094 -0.0625 10.9375 C-0.05798828 9.89271484 -0.05347656 8.84792969 -0.04882812 7.77148438 C-0.03699913 5.1809334 -0.02051689 2.59049441 0 0 Z " fill="#3C7EBA" transform="translate(215,106)"/>
<path d="M0 0 C3.35286458 0.03255208 6.70572917 0.06510417 10.05859375 0.09765625 C10.05859375 7.35765625 10.05859375 14.61765625 10.05859375 22.09765625 C-0 22.1953125 -0 22.1953125 -2.94140625 22.09765625 C-4.53078181 20.50828069 -4.07121768 18.85865779 -4.07421875 16.66015625 C-4.07550781 15.76554687 -4.07679688 14.8709375 -4.078125 13.94921875 C-4.07232422 12.53769531 -4.07232422 12.53769531 -4.06640625 11.09765625 C-4.07027344 10.15664062 -4.07414063 9.215625 -4.078125 8.24609375 C-4.07683594 7.35148437 -4.07554687 6.456875 -4.07421875 5.53515625 C-4.07252686 4.29572266 -4.07252686 4.29572266 -4.07080078 3.03125 C-3.85677557 -0.16701349 -3.25759769 0.10815397 0 0 Z " fill="#387CB9" transform="translate(186.94140625,56.90234375)"/>
<path d="M0 0 C1.093125 0.00257812 2.18625 0.00515625 3.3125 0.0078125 C4.405625 0.00523438 5.49875 0.00265625 6.625 0 C9.3125 0.1328125 9.3125 0.1328125 10.3125 1.1328125 C10.41130797 2.60933914 10.44329245 4.09048486 10.4453125 5.5703125 C10.44724609 6.91222656 10.44724609 6.91222656 10.44921875 8.28125 C10.44535156 9.22226563 10.44148438 10.16328125 10.4375 11.1328125 C10.44136719 12.07382813 10.44523437 13.01484375 10.44921875 13.984375 C10.44792969 14.87898438 10.44664062 15.77359375 10.4453125 16.6953125 C10.44418457 17.52160156 10.44305664 18.34789063 10.44189453 19.19921875 C10.3125 21.1328125 10.3125 21.1328125 9.3125 22.1328125 C7.31450428 22.23155066 5.31292842 22.26253049 3.3125 22.2578125 C2.219375 22.26039062 1.12625 22.26296875 0 22.265625 C-2.6875 22.1328125 -2.6875 22.1328125 -3.6875 21.1328125 C-3.78630797 19.65628586 -3.81829245 18.17514014 -3.8203125 16.6953125 C-3.82160156 15.80070312 -3.82289063 14.90609375 -3.82421875 13.984375 C-3.81841797 12.57285156 -3.81841797 12.57285156 -3.8125 11.1328125 C-3.81636719 10.19179687 -3.82023438 9.25078125 -3.82421875 8.28125 C-3.82292969 7.38664062 -3.82164062 6.49203125 -3.8203125 5.5703125 C-3.81862061 4.33087891 -3.81862061 4.33087891 -3.81689453 3.06640625 C-3.6117337 0.0006066 -3.09874371 0.15313559 0 0 Z " fill="#3479B8" transform="translate(249.6875,56.8671875)"/>
<path d="M0 0 C3.0782092 1.1193488 5.7442734 2.4448195 8.5 4.1875 C12.40520053 6.20983599 12.98492662 6.18831768 17 5 C18.79608112 4.20028505 20.56816512 3.34455414 22.3125 2.4375 C23.19550781 1.98246094 24.07851562 1.52742188 24.98828125 1.05859375 C25.65214844 0.70925781 26.31601563 0.35992187 27 0 C26.67 0.99 26.34 1.98 26 3 C24.18702212 3.81756123 22.3493282 4.58087145 20.5 5.3125 C17.4165873 6.71690182 17.4165873 6.71690182 15 9 C13.7228287 13.71449654 13.71398478 18.1443927 14 23 C13.67 23 13.34 23 13 23 C13.06703125 22.07058594 13.1340625 21.14117187 13.203125 20.18359375 C13.25354382 16.15428937 13.10824164 12.88521496 12 9 C9.01903904 6.36773918 6.20321271 4.87029933 2.58984375 3.234375 C1.73519531 2.82703125 0.88054687 2.4196875 0 2 C0 1.34 0 0.68 0 0 Z " fill="#74A3CE" transform="translate(208,77)"/>
<path d="M0 0 C0.66 0 1.32 0 2 0 C1.95617187 0.86882812 1.91234375 1.73765625 1.8671875 2.6328125 C1.87543831 6.3209251 2.03695765 9.43207657 3 13 C5.48268547 15.30504869 7.7718856 16.55584719 10.84765625 17.94921875 C11.55792969 18.29597656 12.26820313 18.64273438 13 19 C13 19.66 13 20.32 13 21 C11.3024406 20.41646396 9.64455275 19.71949183 8 19 C7.30261719 18.75121094 6.60523438 18.50242187 5.88671875 18.24609375 C3.29665096 17.07297246 1.8071925 16.22051634 0 14 C-0.70379181 9.26686577 -0.46280444 4.75017339 0 0 Z " fill="#87B0D5" transform="translate(189,90)"/>
<path d="M0 0 C0.66 0 1.32 0 2 0 C3.21817524 12.50321533 3.21817524 12.50321533 0.39453125 15.97265625 C-1.69958978 17.25741718 -3.68839437 18.17534217 -6 19 C-6.99 19.433125 -7.98 19.86625 -9 20.3125 C-9.99 20.6528125 -9.99 20.6528125 -11 21 C-11 20.34 -11 19.68 -11 19 C-9.36683256 18.20268232 -7.71795504 17.43744667 -6.0625 16.6875 C-3.22666621 15.23353671 -3.22666621 15.23353671 -1 13 C0.18036337 8.6269357 0.22732458 4.50637541 0 0 Z " fill="#84AED3" transform="translate(252,90)"/>
<path d="M0 0 C3.96 1.98 3.96 1.98 8 4 C8 4.66 8 5.32 8 6 C5.0280615 4.87548273 2.66559313 3.77706209 0 2 C0 1.34 0 0.68 0 0 Z " fill="#7EAAD1" transform="translate(194,105)"/>
</svg>
