<svg width="109" height="24" viewBox="0 0 109 24" fill="none" xmlns="http://www.w3.org/2000/svg">
<path d="M8.30815 2.44586C8.00129 2.63411 7.75562 2.75272 7.509 2.87602C6.58748 3.36737 5.7272 3.79754 4.80568 4.28795C4.74167 4.32431 4.68966 4.37863 4.6562 4.44421C4.62274 4.5098 4.60923 4.58376 4.61736 4.65693V23.2755C4.61736 23.5212 4.55624 23.7057 4.31057 23.7669C3.85464 23.9552 3.36009 24.0312 2.86866 23.9884C2.37722 23.9457 1.90328 23.7854 1.48672 23.5212C1.18046 23.3059 0.919692 23.0323 0.7194 22.716C0.519108 22.3997 0.383245 22.047 0.319539 21.6782C0.16509 20.682 0.102006 19.6737 0.131213 18.666C0.0700298 13.7497 0.00884184 8.77315 0.00884184 3.85683C-0.0391441 3.07511 0.108741 2.29379 0.439038 1.58366C0.717224 0.990161 1.19816 0.515478 1.79523 0.245067C2.39231 -0.0253429 3.06627 -0.0737303 3.69584 0.108649C4.56928 0.371444 5.39798 0.764987 6.15361 1.27586C6.82945 1.64484 7.50528 2.01287 8.11994 2.38186C8.18583 2.32255 8.24697 2.38373 8.30815 2.44586Z" fill="white"/>
<path d="M8.42587 21.3723V16.0258C8.42442 15.9536 8.44083 15.8821 8.47367 15.8177C8.50651 15.7533 8.55473 15.6981 8.61408 15.6569C10.7037 14.4887 12.7934 13.3215 14.8209 12.1543C15.3734 11.8465 15.9269 11.5397 16.5406 11.1707C16.1854 10.9425 15.8159 10.7372 15.4346 10.556C14.5131 10.0026 13.5917 9.51123 12.6701 8.95587C12.6247 8.92503 12.5711 8.90853 12.5162 8.90853C12.4613 8.90853 12.4077 8.92503 12.3623 8.95587C11.1951 9.6929 10.0891 10.3678 8.92098 11.1067C8.8598 11.1067 8.85982 11.1679 8.79769 11.1679V7.2352C8.79594 7.15413 8.81183 7.07365 8.84434 6.99937C8.87686 6.92508 8.92516 6.85876 8.9859 6.80504C10.0307 6.06801 11.0746 5.39311 12.0583 4.6542C12.1149 4.62396 12.1781 4.60815 12.2422 4.60815C12.3064 4.60815 12.3697 4.62396 12.4263 4.6542C13.8382 5.45335 15.3141 6.31368 16.7279 7.11188C17.7106 7.66442 18.6943 8.21788 19.7401 8.77042C20.488 9.15981 21.1072 9.75743 21.5228 10.4911C21.7846 10.9685 21.8898 11.5161 21.8236 12.0566C21.7574 12.5971 21.5232 13.1031 21.1539 13.5032C20.6682 14.0556 20.0849 14.5138 19.4332 14.8549C18.0213 15.654 16.6677 16.5144 15.2549 17.3126C13.473 18.3574 11.7524 19.3401 9.97051 20.3849C9.4095 20.7577 8.91722 21.0607 8.42587 21.3723Z" fill="white"/>
<path d="M27.8853 2.53444V4.07054H31.0473V5.60498H27.8853V8H25.8428V1H31.4695V2.53444H27.8853Z" fill="white"/>
<path d="M32.3828 1.02002H34.4253V7.98019H32.3828V1.02002Z" fill="white"/>
<path d="M38.5014 6.1465H37.3819V7.98053H35.3394V1.01953H38.6151C40.5807 1.01953 41.8139 1.99215 41.8139 3.60127C41.8341 4.0614 41.713 4.51698 41.466 4.91016C41.2191 5.30334 40.8574 5.6164 40.4268 5.80957L41.9651 7.9797H39.8098L38.5014 6.1465ZM38.5399 2.55397H37.4203V4.57472H38.5382C39.3859 4.57472 39.8098 4.20044 39.8098 3.56393C39.7714 2.96559 39.3859 2.55397 38.5382 2.55397H38.5399Z" fill="white"/>
<path d="M48.6205 6.44609V7.98053H42.8784V1.01953H48.5052V2.55397H44.8825V3.7158H48.0813V5.17555H44.8825V6.44775L48.6205 6.44609Z" fill="white"/>
<path d="M51.5767 2.53444V4.07054H54.7387V5.60498H51.5767V8H49.5342V1H55.1609V2.53444H51.5767Z" fill="white"/>
<path d="M56.0742 1.01953H58.1167V6.40874H61.5437V7.98053H56.1101V1.01953H56.0742Z" fill="white"/>
<path d="M62.4575 1.02002H64.5V7.98019H62.4575V1.02002Z" fill="white"/>
<path d="M72.235 1.02002V7.98019H70.578L67.4159 4.27562V7.98019H65.4136V1.02002H67.0707L70.2327 4.72458V1.02002H72.235Z" fill="white"/>
<path d="M75.9234 5.45458L75.1542 6.24047V7.99898H73.1484V1.00146H75.1525V3.88279L77.9274 1.00146H80.1622L77.2335 4.072L80.3169 7.96412H77.9659L75.9234 5.45458Z" fill="white"/>
<path d="M29.1533 14.1007C30.0847 14.1007 30.8987 14.2853 31.5952 14.6545C32.2917 15.0238 32.8288 15.5441 33.2064 16.2154C33.5924 16.8783 33.7854 17.6462 33.7854 18.5189C33.7854 19.3832 33.5924 20.151 33.2064 20.8224C32.8288 21.4937 32.2875 22.014 31.5826 22.3832C30.8861 22.7524 30.0763 22.9371 29.1533 22.9371H25.8428V14.1007H29.1533ZM29.0148 21.0741C29.8288 21.0741 30.4624 20.8517 30.9155 20.407C31.3686 19.9622 31.5952 19.3329 31.5952 18.5189C31.5952 17.7049 31.3686 17.0713 30.9155 16.6182C30.4624 16.165 29.8288 15.9385 29.0148 15.9385H27.9952V21.0741H29.0148Z" fill="#DB7221"/>
<path d="M37.1408 15.8252V17.6126H40.0233V19.2741H37.1408V21.2126H40.4009V22.9371H34.9883V14.1007H40.4009V15.8252H37.1408Z" fill="#DB7221"/>
<path d="M50.0934 14.1007L46.9591 22.9371H44.2654L41.1312 14.1007H43.4221L45.6123 20.772L47.8151 14.1007H50.0934Z" fill="#DB7221"/>
<path d="M53.1455 14.1007V22.9371H50.993V14.1007H53.1455Z" fill="#DB7221"/>
<path d="M54.3403 18.5063C54.3403 17.6336 54.5291 16.8573 54.9067 16.1776C55.2843 15.4895 55.8088 14.9566 56.4801 14.579C57.1599 14.193 57.9277 14 58.7836 14C59.8326 14 60.7305 14.2769 61.4773 14.8308C62.2242 15.3846 62.7235 16.1399 62.9752 17.0965H60.6088C60.4326 16.7273 60.1808 16.4462 59.8536 16.2531C59.5347 16.0601 59.1696 15.9636 58.7585 15.9636C58.0955 15.9636 57.5585 16.1944 57.1473 16.6559C56.7361 17.1175 56.5305 17.7343 56.5305 18.5063C56.5305 19.2783 56.7361 19.8951 57.1473 20.3566C57.5585 20.8182 58.0955 21.049 58.7585 21.049C59.1696 21.049 59.5347 20.9524 59.8536 20.7594C60.1808 20.5664 60.4326 20.2853 60.6088 19.9161H62.9752C62.7235 20.8727 62.2242 21.628 61.4773 22.1818C60.7305 22.7273 59.8326 23 58.7836 23C57.9277 23 57.1599 22.8112 56.4801 22.4336C55.8088 22.0476 55.2843 21.5147 54.9067 20.835C54.5291 20.1552 54.3403 19.379 54.3403 18.5063Z" fill="#DB7221"/>
<path d="M66.4458 15.8252V17.6126H69.3283V19.2741H66.4458V21.2126H69.706V22.9371H64.2934V14.1007H69.706V15.8252H66.4458Z" fill="#DB7221"/>
<path d="M79.5233 14.1007V15.8252H75.9233V17.6881H78.617V19.3622H75.9233V22.9371H73.7708V14.1007H79.5233Z" fill="#DB7221"/>
<path d="M86.1553 21.3762H82.8574L82.3287 22.9371H80.0755L83.2727 14.1007H85.765L88.9622 22.9371H86.6839L86.1553 21.3762ZM85.6014 19.7147L84.5063 16.4797L83.4238 19.7147H85.6014Z" fill="#DB7221"/>
<path d="M94.4416 22.9371L92.6038 19.6014H92.0878V22.9371H89.9353V14.1007H93.5479C94.2444 14.1007 94.836 14.2224 95.3227 14.4657C95.8178 14.7091 96.1871 15.0448 96.4304 15.4727C96.6738 15.8923 96.7955 16.3622 96.7955 16.8825C96.7955 17.4699 96.6276 17.9944 96.292 18.4559C95.9647 18.9175 95.478 19.2448 94.8318 19.4378L96.871 22.9371H94.4416ZM92.0878 18.0783H93.422C93.8164 18.0783 94.1101 17.9818 94.3031 17.7888C94.5045 17.5958 94.6052 17.3231 94.6052 16.9706C94.6052 16.635 94.5045 16.3706 94.3031 16.1776C94.1101 15.9846 93.8164 15.8881 93.422 15.8881H92.0878V18.0783Z" fill="#DB7221"/>
<path d="M108.154 14.1007V22.9371H106.001V17.6378L104.025 22.9371H102.288L100.299 17.6252V22.9371H98.1466V14.1007H100.689L103.169 20.2182L105.624 14.1007H108.154Z" fill="#DB7221"/>
</svg>
