<?xml version="1.0" encoding="UTF-8"?>
<svg xmlns="http://www.w3.org/2000/svg" width="149" height="45" viewBox="0 0 149 45" fill="none">
  <g clip-path="url(#clip0_3_2428)">
    <path opacity="0.6" d="M9.40149 21.8425C9.40149 20.3846 9.42363 18.9767 9.46442 17.6202C9.49472 16.5975 8.61482 15.7846 7.59741 15.8948C5.17391 16.1576 3.10003 16.4501 1.40842 16.7251C0.594367 16.8574 0 17.559 0 18.3835V26.6592C0 27.4797 0.589122 28.179 1.39793 28.3159C3.10294 28.6055 5.1943 28.9114 7.63004 29.1783C8.64979 29.2902 9.53085 28.4721 9.49589 27.4471C9.43528 25.6669 9.4009 23.7975 9.4009 21.8419L9.40149 21.8425Z" fill="white"></path>
    <path opacity="0.6" d="M29.187 7.64053C28.9201 5.19081 28.6224 3.10003 28.3444 1.40376C28.2115 0.592036 27.5111 0 26.6889 0H18.2903C17.4721 0 16.7775 0.586792 16.6394 1.39385C16.3458 3.10936 16.034 5.22693 15.7613 7.70113C15.6488 8.72438 16.4705 9.60952 17.4995 9.57106C19.4248 9.49997 21.4561 9.45918 23.59 9.45918C24.9239 9.45918 26.2163 9.47782 27.4663 9.51162C28.4877 9.53959 29.2977 8.65678 29.187 7.64111V7.64053Z" fill="white"></path>
    <path opacity="0.6" d="M45.0349 26.6492V18.285C45.0349 17.4628 44.4423 16.7629 43.6312 16.6277C41.9075 16.3405 39.8097 16.0398 37.3781 15.7793C36.3554 15.6698 35.4767 16.4943 35.5151 17.5222C35.5891 19.4755 35.6311 21.5389 35.6311 23.7089C35.6311 24.978 35.6142 26.2087 35.5833 27.4009C35.5571 28.4207 36.4329 29.2307 37.4468 29.1229C39.8488 28.867 41.918 28.5804 43.6213 28.3082C44.4376 28.1783 45.0355 27.4755 45.0355 26.6492H45.0349Z" fill="white"></path>
    <path opacity="0.6" d="M15.7838 37.3302C16.0373 39.7595 16.324 41.855 16.5967 43.5827C16.7255 44.4003 17.4288 44.9993 18.2563 44.9993H26.8298C27.6531 44.9993 28.3535 44.4055 28.4876 43.5926C28.7754 41.8491 29.0749 39.7339 29.3325 37.2865C29.4397 36.2691 28.6222 35.3927 27.5995 35.4288C25.7377 35.4952 23.7769 35.5325 21.7223 35.5325C20.2672 35.5325 18.8623 35.5104 17.5087 35.4702C16.4889 35.4399 15.6772 36.3151 15.7833 37.3296L15.7838 37.3302Z" fill="white"></path>
    <path opacity="0.6" d="M8.54082 34.911C6.02525 34.668 3.81444 34.3784 1.93927 34.0876C0.919521 33.9297 0 34.7152 0 35.7472V43.3196C0 44.2478 0.752283 44.9995 1.67996 44.9995H9.18647C10.2103 44.9995 10.9975 44.0969 10.8495 43.0841C10.5733 41.1892 10.2971 38.9661 10.0605 36.4366C9.98537 35.6312 9.34497 34.9885 8.54024 34.911H8.54082Z" fill="white"></path>
    <path opacity="0.6" d="M10.0244 8.64746C10.2726 6.08469 10.5687 3.83833 10.8647 1.94102C11.0238 0.920686 10.2429 0 9.21036 0H1.67821C0.750534 0 0 0.752282 0 1.67996V9.30767C0 10.3362 0.913111 11.1205 1.92995 10.969C3.79288 10.6904 5.9932 10.4096 8.50411 10.166C9.30651 10.0885 9.94691 9.44927 10.0244 8.64688V8.64746Z" fill="white"></path>
    <path d="M43.1092 10.8629C41.4741 10.6144 39.5938 10.3676 37.4865 10.1517C34.1591 12.6238 31.3606 16.2909 30.0035 18.2321C29.9826 18.262 29.9608 18.2911 29.9384 18.3192C29.9971 20.0315 30.0302 21.8294 30.0302 23.7094C30.0302 24.8123 30.0166 25.8856 29.9914 26.9288C29.9957 26.9346 29.9998 26.9406 30.004 26.9465C31.3187 28.8271 33.9852 32.3264 37.1751 34.7908C39.4176 34.5674 41.4045 34.315 43.1168 34.0631C44.1307 33.9139 45.0345 34.7011 45.0345 35.7256V43.3206C45.0345 44.2483 44.2823 45.0006 43.3546 45.0006H35.9122C34.8854 45.0006 34.0976 44.0922 34.2503 43.0771C34.5027 41.4052 34.7516 39.4817 34.9674 37.3265C31.9539 34.9612 29.4529 31.9064 27.9148 29.8094C25.963 29.8869 23.8976 29.9322 21.7225 29.9322C19.9883 29.9322 18.327 29.8984 16.7409 29.8396C15.8662 29.8069 15.167 29.1112 15.1314 28.2365C15.0492 26.2267 15.0015 24.094 15.0015 21.8424C15.0015 20.0931 15.0358 18.4172 15.0959 16.8188C15.1279 15.9465 15.8219 15.249 16.6942 15.2105C18.8497 15.1156 21.1497 15.0596 23.5895 15.0596C25.1485 15.0596 26.6484 15.0871 28.0874 15.1352C29.6166 13.0763 32.0016 10.2058 34.8552 7.94033C34.6229 5.65918 34.3616 3.64947 34.1028 1.93169C33.9495 0.914277 34.7345 0 35.7635 0H43.3545C44.2828 0 45.0345 0.752283 45.0351 1.67996V9.20104C45.0351 10.2289 44.1255 11.0179 43.1092 10.8629Z" fill="white"></path>
    <path d="M62.2023 22.3593C61.545 23.044 60.9151 23.7007 60.2584 24.3854V30.7964C60.2584 31.4239 59.7497 31.9327 59.1221 31.9327C58.4945 31.9327 57.9858 31.4239 57.9858 30.7964V13.8575C57.9858 13.2299 58.4945 12.7212 59.1221 12.7212C59.7497 12.7212 60.2584 13.2299 60.2584 13.8575V21.4834L68.3482 13.051C68.5504 12.8406 68.8295 12.7212 69.1215 12.7212C70.0713 12.7212 70.5515 13.8656 69.8854 14.5433L63.845 20.6892L71.5374 30.0884C72.1603 30.8494 71.619 31.9921 70.6354 31.9921C70.2857 31.9921 69.9548 31.8353 69.7333 31.565L62.2023 22.3598V22.3593Z" fill="white"></path>
    <path d="M79.7531 29.8889C82.5187 29.8889 84.5174 27.6985 84.5174 24.8234C84.5174 21.9483 82.6282 19.7847 79.7531 19.7847C76.878 19.7847 74.9888 21.9203 74.9888 24.8234C74.9888 27.7264 77.234 29.8889 79.7531 29.8889ZM79.7531 17.8413C83.8333 17.8413 86.7626 20.8534 86.7626 24.824C86.7626 28.7946 83.8053 31.8608 79.7531 31.8608C75.7009 31.8608 72.7437 28.794 72.7437 24.824C72.7437 20.8539 75.8105 17.8413 79.7531 17.8413Z" fill="white"></path>
    <path d="M96.3184 19.7304C93.6897 19.7304 91.6089 21.7839 91.6089 24.9055C91.6089 28.0271 93.8546 29.9437 96.3737 29.9437C99.5501 29.9437 101.138 27.3424 101.138 24.8234C101.138 22.3043 99.5495 19.7304 96.3189 19.7304H96.3184ZM90.7494 12.7192C91.3466 12.7192 91.8309 13.2035 91.8309 13.8008L91.8 20.1407H91.8548C92.7312 19.0999 94.1273 17.8407 96.7834 17.8407C100.48 17.8407 103.383 20.8527 103.383 24.8234C103.383 29.0946 100.206 31.8602 96.8381 31.8602C94.456 31.8602 92.8127 30.7921 91.8548 29.6424H91.8V30.8422C91.8 31.4395 91.3158 31.9237 90.7185 31.9237C90.1212 31.9237 89.637 31.4395 89.637 30.8422L89.6678 13.8008C89.6678 13.2035 90.1521 12.7192 90.7494 12.7192Z" fill="white"></path>
    <path d="M107.339 18.2793C107.937 18.2793 108.421 18.7635 108.421 19.3608V30.7587C108.421 31.3559 107.937 31.8402 107.339 31.8402C106.742 31.8402 106.258 31.3559 106.258 30.7587V19.3608C106.258 18.7635 106.742 18.2793 107.339 18.2793ZM107.284 12.8047H107.421C108.125 12.8047 108.695 13.3752 108.695 14.0779C108.695 14.7807 108.125 15.3511 107.421 15.3511H107.284C106.581 15.3511 106.011 14.7807 106.011 14.0779C106.011 13.3752 106.581 12.8047 107.284 12.8047Z" fill="white"></path>
    <path d="M111.679 18.279H112.5V15.1714C112.5 14.5741 112.984 14.0898 113.581 14.0898C114.178 14.0898 114.663 14.5741 114.663 15.1714V18.279H117.264C117.763 18.279 118.168 18.6834 118.168 19.1828C118.168 19.6821 117.763 20.0865 117.264 20.0865H114.663V27.3209C114.663 29.4566 115.32 30.0317 116.716 30.0317C116.918 30.0317 117.12 30.0206 117.319 29.9997C117.846 29.9443 118.304 30.3586 118.304 30.8889C118.304 31.3259 117.99 31.7018 117.559 31.7723C117.165 31.837 116.736 31.8661 116.278 31.8661C113.102 31.8661 112.499 29.7304 112.499 27.2388V20.0865H111.678C111.179 20.0865 110.774 19.6821 110.774 19.1828C110.774 18.6834 111.179 18.279 111.678 18.279H111.679Z" fill="white"></path>
    <path d="M126.793 29.8889C129.559 29.8889 131.558 27.6985 131.558 24.8234C131.558 21.9483 129.668 19.7847 126.793 19.7847C123.918 19.7847 122.029 21.9203 122.029 24.8234C122.029 27.7264 124.274 29.8889 126.793 29.8889ZM126.793 17.8413C130.873 17.8413 133.803 20.8534 133.803 24.824C133.803 28.7946 130.846 31.8608 126.793 31.8608C122.74 31.8608 119.784 28.794 119.784 24.824C119.784 20.8539 122.85 17.8413 126.793 17.8413Z" fill="white"></path>
    <path d="M137.759 18.279C138.357 18.279 138.841 18.7633 138.841 19.3605V19.9217H138.896C140.101 18.3612 141.606 17.8408 143.03 17.8408C145.412 17.8408 148.205 19.3192 148.205 23.7554V30.8423C148.205 31.4396 147.721 31.9238 147.124 31.9238C146.526 31.9238 146.042 31.4396 146.042 30.8423V23.8923C146.042 21.2363 144.755 19.7847 142.701 19.7847C140.347 19.7847 138.84 21.3732 138.84 24.4121V30.8423C138.84 31.4396 138.356 31.9238 137.759 31.9238C137.161 31.9238 136.677 31.4396 136.677 30.8423V19.3605C136.677 18.7633 137.161 18.279 137.759 18.279H137.759Z" fill="white"></path>
  </g>
  <defs>
    <clipPath id="clip0_3_2428">
      <rect width="148.205" height="45" fill="white"></rect>
    </clipPath>
  </defs>
</svg>
