<svg width="383" height="66" viewBox="0 0 383 66" fill="none" xmlns="http://www.w3.org/2000/svg">
<path d="M20.8872 53.6228V59.4641C20.8872 60.7015 19.5084 61.4645 18.4107 60.8148L15.6392 59.0703L14.9762 58.7036C14.9289 58.6772 11.0967 56.5051 2.76991 51.7847L2.10855 51.4129C1.45649 51.0438 0.921558 50.5159 0.551882 49.8787C0.186283 49.2462 -0.0039731 48.5286 0.00318026 47.8156L0 33.2684V18.6979C0 17.9244 0.222806 17.1692 0.637612 16.52C1.04793 15.8687 1.64209 15.3335 2.25963 15.0408L14.2993 8.21915L14.9567 7.84188C15.1754 7.71903 15.1754 7.71902 15.6201 7.47069L27.1518 0.943494L27.8246 0.552745C28.5265 0.156306 29.3206 -0.0322584 30.1255 0.00450904C30.907 0.0417018 31.6775 0.292859 32.2177 0.669783L44.2173 7.46825L44.8822 7.83604C44.9302 7.86335 48.9324 10.132 57.0802 14.7506L57.7454 15.1236C58.3972 15.4935 58.9308 16.0207 59.3003 16.6579C59.665 17.2886 59.8553 18.0062 59.8491 18.7213L59.8517 31.9679C59.8519 33.1922 58.4995 33.9571 57.4183 33.3444L52.2409 30.4103C51.7396 30.1262 51.4308 29.6017 51.4308 29.0341V21.0748L40.8895 15.0987C40.7984 15.0545 40.5931 14.9396 40.023 14.6158L29.9253 8.88595L19.4196 14.8347C19.3189 14.8996 19.3189 14.8996 19.2586 14.9372C19.2343 14.9518 18.9864 15.0933 18.515 15.3614L8.42148 21.0754V45.4613L18.9679 51.4396C19.0353 51.4727 19.1804 51.5541 19.8528 51.9347L20.0701 52.1238L20.2502 52.3597C20.6493 52.6586 20.8872 53.1247 20.8872 53.6228ZM51.4308 38.6093C51.4308 37.3863 52.7809 36.6214 53.8621 37.2318L59.0394 40.1553C59.542 40.4391 59.8517 40.9643 59.8517 41.5328V46.3728C59.8517 46.7876 59.6863 47.1859 59.3901 47.4836L56.9494 49.9229C56.0341 51.0699 54.6902 51.5263 53.4911 50.8492L34.2527 39.9157L34.2479 60.5453C34.3155 61.3194 33.9894 62.0767 33.3695 62.5663C32.7628 63.0472 32.7628 63.0472 29.8216 65.3762C29.3808 65.7766 28.8036 66 28.1997 66C26.8834 66 25.8164 64.9533 25.8164 63.6628L25.8195 35.1355L22.5775 33.2985L20.9385 34.2224C20.8603 34.2761 20.888 34.2603 19.2337 35.1965C18.0676 35.8652 16.5995 35.5114 15.9287 34.3774C15.7693 34.1074 15.7693 34.1074 15.0154 32.8303L14.1101 31.2998C13.4319 30.1528 13.794 28.7163 14.9516 28.06C15.2347 27.9006 15.2347 27.9006 16.5436 27.164L20.4913 24.9363L21.203 24.5424C21.9613 24.0134 22.9665 23.9652 23.781 24.4261L24.68 24.9395L51.4308 40.0943V38.6093ZM77.1155 46.527C76.8121 46.527 76.5465 46.4157 76.3186 46.1939C76.0914 45.9714 75.9769 45.712 75.9769 45.4158V16.5197C75.9769 16.1942 76.0914 15.9273 76.3186 15.72C76.5465 15.5122 76.8121 15.4086 77.1155 15.4086H83.4896C83.8236 15.4086 84.0964 15.5122 84.3093 15.72C84.5215 15.9273 84.6276 16.1942 84.6276 16.5197V39.548H98.2866C98.62 39.548 98.9012 39.6586 99.1284 39.8811C99.3563 40.1036 99.4702 40.3775 99.4702 40.7036V45.4158C99.4702 45.7419 99.3563 46.0089 99.1284 46.2161C98.9012 46.4234 98.62 46.527 98.2866 46.527H77.1155ZM101.519 46.527C101.276 46.527 101.055 46.431 100.859 46.2377C100.661 46.0451 100.563 45.8303 100.563 45.5932C100.563 45.4158 100.578 45.2824 100.608 45.1934L111.217 16.6977C111.52 15.8383 112.127 15.4086 113.037 15.4086H120.14C121.05 15.4086 121.658 15.8383 121.961 16.6977L132.569 45.1934C132.6 45.2824 132.615 45.4158 132.615 45.5932C132.615 45.8303 132.516 46.0451 132.319 46.2377C132.121 46.431 131.901 46.527 131.659 46.527H125.739C125.012 46.527 124.495 46.2009 124.192 45.5487L122.553 41.237H110.625L108.985 45.5487C108.682 46.2009 108.166 46.527 107.437 46.527H101.519ZM112.537 34.5688H120.641L116.589 23.2323L112.537 34.5688ZM137.259 46.527C136.925 46.527 136.644 46.4234 136.416 46.2161C136.189 46.0089 136.075 45.7419 136.075 45.4158V16.5642C136.075 16.2387 136.189 15.9641 136.416 15.7423C136.644 15.5198 136.925 15.4086 137.259 15.4086H142.404C143.162 15.4086 143.709 15.7347 144.042 16.3862L151.873 30.0785L159.75 16.3862C160.083 15.7347 160.63 15.4086 161.389 15.4086H166.534C166.868 15.4086 167.148 15.5198 167.376 15.7423C167.603 15.9641 167.717 16.2387 167.717 16.5642V45.4158C167.717 45.7419 167.603 46.0089 167.376 46.2161C167.148 46.4234 166.868 46.527 166.534 46.527H160.751C160.448 46.527 160.182 46.4157 159.954 46.1939C159.727 45.9714 159.613 45.712 159.613 45.4158V29.2337L154.696 38.0364C154.302 38.7178 153.77 39.0585 153.102 39.0585H150.644C150.037 39.0585 149.506 38.7178 149.05 38.0364L144.179 29.2337V45.4158C144.179 45.7419 144.065 46.0089 143.838 46.2161C143.61 46.4234 143.329 46.527 142.995 46.527H137.259ZM175.047 46.527C174.744 46.527 174.478 46.4157 174.251 46.1939C174.023 45.9714 173.909 45.712 173.909 45.4158V16.5642C173.909 16.2387 174.015 15.9641 174.227 15.7423C174.44 15.5198 174.714 15.4086 175.047 15.4086H189.115C192.97 15.4086 195.839 16.179 197.721 17.7205C199.602 19.2613 200.543 21.4544 200.543 24.2996C200.543 25.7222 200.156 26.9523 199.383 27.989C198.609 29.0265 197.751 29.7823 196.81 30.2565C198.055 30.7898 199.101 31.6715 199.952 32.9015C200.801 34.1315 201.226 35.5172 201.226 37.0581C201.226 40.0508 200.217 42.378 198.198 44.0377C196.18 45.6968 193.289 46.527 189.525 46.527H175.047ZM188.159 27.7227C189.282 27.7227 190.147 27.4265 190.755 26.8334C191.361 26.2403 191.666 25.4705 191.666 24.5221C191.666 23.6029 191.369 22.8548 190.778 22.2769C190.186 21.6985 189.313 21.4099 188.159 21.4099H182.469V27.7227H188.159ZM188.569 40.5256C189.753 40.5256 190.671 40.1919 191.324 39.5251C191.976 38.8589 192.303 38.0364 192.303 37.0581C192.303 36.0506 191.969 35.2134 191.301 34.5459C190.633 33.8798 189.723 33.546 188.569 33.546H182.469V40.5256H188.569ZM207.236 46.527C206.932 46.527 206.667 46.4157 206.439 46.1939C206.211 45.9714 206.097 45.712 206.097 45.4158V16.5642C206.097 16.2387 206.204 15.9641 206.416 15.7423C206.629 15.5198 206.902 15.4086 207.236 15.4086H219.21C223.702 15.4086 227.192 16.453 229.682 18.543C232.17 20.6318 233.476 23.6328 233.596 27.5447C233.627 28.4041 233.643 29.5451 233.643 30.9678C233.643 32.3904 233.627 33.5161 233.596 34.3463C233.293 42.4663 228.573 46.527 219.437 46.527H207.236ZM219.21 39.8588C221.122 39.8588 222.533 39.4145 223.444 38.5252C224.354 37.6366 224.84 36.2133 224.901 34.2573C224.962 33.3979 224.992 32.2868 224.992 30.9233C224.992 29.5598 224.962 28.4632 224.901 27.6337C224.84 25.7369 224.316 24.3365 223.33 23.4326C222.343 22.5287 220.895 22.0767 218.982 22.0767H214.657V39.8588H219.21ZM237.057 46.527C236.814 46.527 236.594 46.431 236.397 46.2377C236.199 46.0451 236.101 45.8303 236.101 45.5932C236.101 45.4158 236.116 45.2824 236.146 45.1934L246.754 16.6977C247.058 15.8383 247.666 15.4086 248.576 15.4086H255.678C256.589 15.4086 257.196 15.8383 257.499 16.6977L268.108 45.1934C268.138 45.2824 268.152 45.4158 268.152 45.5932C268.152 45.8303 268.054 46.0451 267.857 46.2377C267.66 46.431 267.44 46.527 267.197 46.527H261.278C260.55 46.527 260.034 46.2009 259.73 45.5487L258.091 41.237H246.162L244.523 45.5487C244.22 46.2009 243.705 46.527 242.976 46.527H237.057ZM248.075 34.5688H256.179L252.127 23.2323L248.075 34.5688ZM277.609 46.9713C277.276 46.9713 276.996 46.8677 276.767 46.6605C276.539 46.4532 276.426 46.1863 276.426 45.8602V23.0988H268.413C268.079 23.0988 267.799 22.9952 267.571 22.788C267.343 22.5802 267.229 22.3138 267.229 21.9877V17.0085C267.229 16.6831 267.343 16.4085 267.571 16.1866C267.799 15.9641 268.079 15.8529 268.413 15.8529H293.135C293.468 15.8529 293.75 15.9641 293.977 16.1866C294.205 16.4085 294.319 16.6831 294.319 17.0085V21.9877C294.319 22.3138 294.205 22.5802 293.977 22.788C293.75 22.9952 293.468 23.0988 293.135 23.0988H285.122V45.8602C285.122 46.1863 285.008 46.4532 284.78 46.6605C284.553 46.8677 284.272 46.9713 283.939 46.9713H277.609ZM299.463 46.9713C299.16 46.9713 298.894 46.8601 298.667 46.6382C298.439 46.4157 298.325 46.1564 298.325 45.8602V17.0085C298.325 16.6831 298.431 16.4085 298.644 16.1866C298.857 15.9641 299.13 15.8529 299.463 15.8529H320.952C321.286 15.8529 321.567 15.9641 321.795 16.1866C322.023 16.4085 322.137 16.6831 322.137 17.0085V21.4099C322.137 21.736 322.023 22.0023 321.795 22.2095C321.567 22.4174 321.286 22.521 320.952 22.521H306.566V28.167H319.951C320.285 28.167 320.565 28.2783 320.794 28.5001C321.021 28.7226 321.135 28.9966 321.135 29.3227V33.368C321.135 33.6941 321.021 33.9681 320.794 34.1906C320.565 34.4124 320.285 34.5243 319.951 34.5243H306.566V40.3032H321.317C321.65 40.3032 321.932 40.4144 322.159 40.6363C322.387 40.8587 322.501 41.1327 322.501 41.4588V45.8602C322.501 46.1863 322.387 46.4532 322.159 46.6605C321.932 46.8677 321.65 46.9713 321.317 46.9713H299.463ZM339.619 47.4156C336.676 47.4156 334.171 47.0012 332.107 46.171C330.043 45.3415 328.48 44.2449 327.418 42.8808C326.355 41.5186 325.794 40.0362 325.733 38.4356C325.733 38.1692 325.832 37.9468 326.029 37.7688C326.226 37.5914 326.461 37.5024 326.735 37.5024H332.79C333.154 37.5024 333.45 37.5615 333.678 37.6804C333.906 37.7986 334.156 38.0059 334.429 38.3021C334.824 39.0134 335.438 39.5988 336.273 40.0584C337.108 40.518 338.223 40.7475 339.619 40.7475C341.259 40.7475 342.518 40.5028 343.398 40.0146C344.278 39.5251 344.718 38.8513 344.718 37.9912C344.718 37.3696 344.491 36.8579 344.036 36.458C343.581 36.0575 342.852 35.7016 341.851 35.3907C340.849 35.0799 339.407 34.7315 337.525 34.3463C333.853 33.635 331.106 32.5531 329.284 31.1006C327.463 29.6488 326.553 27.5739 326.553 24.8774C326.553 23.0397 327.076 21.4023 328.123 19.965C329.17 18.5272 330.658 17.409 332.585 16.6087C334.512 15.8084 336.751 15.4086 339.301 15.4086C341.971 15.4086 344.286 15.8605 346.244 16.7638C348.201 17.6684 349.704 18.7941 350.751 20.1424C351.798 21.4912 352.352 22.8173 352.413 24.1216C352.413 24.388 352.322 24.6181 352.139 24.8107C351.957 25.0033 351.73 25.0993 351.457 25.0993H345.083C344.415 25.0993 343.899 24.833 343.535 24.299C343.352 23.6767 342.883 23.151 342.124 22.7213C341.365 22.2915 340.424 22.0767 339.301 22.0767C338.026 22.0767 337.039 22.2992 336.341 22.7435C335.643 23.1879 335.294 23.84 335.294 24.6995C335.294 25.5589 335.75 26.2333 336.66 26.7222C337.571 27.2116 339.271 27.7074 341.759 28.2115C344.612 28.715 346.881 29.3449 348.565 30.1007C350.25 30.8559 351.494 31.8348 352.299 33.0343C353.104 34.2351 353.505 35.7543 353.505 37.5914C353.505 39.6065 352.914 41.3552 351.73 42.8369C350.546 44.3187 348.907 45.4521 346.813 46.2377C344.718 47.0234 342.32 47.4156 339.619 47.4156ZM366.071 46.9713C365.737 46.9713 365.456 46.8677 365.229 46.6605C365.001 46.4532 364.887 46.1863 364.887 45.8602V23.0988H356.875C356.54 23.0988 356.26 22.9952 356.033 22.788C355.805 22.5802 355.691 22.3138 355.691 21.9877V17.0085C355.691 16.6831 355.805 16.4085 356.033 16.1866C356.26 15.9641 356.54 15.8529 356.875 15.8529H381.596C381.93 15.8529 382.211 15.9641 382.438 16.1866C382.666 16.4085 382.78 16.6831 382.78 17.0085V21.9877C382.78 22.3138 382.666 22.5802 382.438 22.788C382.211 22.9952 381.93 23.0988 381.596 23.0988H373.583V45.8602C373.583 46.1863 373.469 46.4532 373.242 46.6605C373.014 46.8677 372.734 46.9713 372.4 46.9713H366.071Z" fill="#13B7C1"/>
</svg>
