<?xml version="1.0" encoding="UTF-8"?>
<svg id="Layer_2" data-name="Layer 2" xmlns="http://www.w3.org/2000/svg" xmlns:xlink="http://www.w3.org/1999/xlink" viewBox="0 0 1920.88 422.18">
  <defs>
    <style>
      .cls-1 {
        clip-path: url(#clippath);
      }

      .cls-2 {
        fill: none;
      }

      .cls-2, .cls-3, .cls-4, .cls-5, .cls-6 {
        stroke-width: 0px;
      }

      .cls-7 {
        clip-path: url(#clippath-1);
      }

      .cls-3 {
        fill: #009eb8;
      }

      .cls-4 {
        fill: #fff;
      }

      .cls-5 {
        fill: #00bfda;
      }

      .cls-6 {
        fill: #007e95;
      }
    </style>
    <clipPath id="clippath">
      <path class="cls-2" d="m145.95,208.11c-3.62,0-7.28-.92-10.65-2.86-10.23-5.89-13.74-18.96-7.85-29.18l64.12-111.34c5.89-10.23,18.96-13.74,29.18-7.85,10.23,5.89,13.74,18.96,7.85,29.18l-64.12,111.34c-3.95,6.87-11.15,10.71-18.54,10.71Z"/>
    </clipPath>
    <clipPath id="clippath-1">
      <path class="cls-2" d="m296.35,313.78c-3.62,0-7.28-.92-10.65-2.86-10.23-5.89-13.74-18.96-7.85-29.18l64.12-111.34c5.89-10.23,18.96-13.74,29.18-7.85,10.23,5.89,13.74,18.96,7.85,29.18l-64.12,111.34c-3.95,6.87-11.15,10.71-18.54,10.71Z"/>
    </clipPath>
  </defs>
  <g id="Layer_1-2" data-name="Layer 1">
    <g>
      <g>
        <path class="cls-4" d="m146.99,330.89c-19.83,0-39.09-3.89-57.22-11.56-17.51-7.4-33.22-18-46.72-31.49-13.49-13.49-24.09-29.21-31.49-46.72C3.89,222.99,0,203.74,0,183.9s3.89-39.09,11.56-57.22c7.4-17.51,18-33.22,31.49-46.72,13.49-13.49,29.21-24.09,46.72-31.49,18.14-7.67,37.39-11.56,57.22-11.56,13.19,0,26.28,1.75,38.9,5.21,12.25,3.35,24.03,8.3,35.02,14.71,10.2,5.94,13.65,19.03,7.7,29.22-5.94,10.2-19.03,13.65-29.22,7.7-7.78-4.54-16.12-8.04-24.79-10.41-8.94-2.45-18.23-3.69-27.61-3.69-14.08,0-27.73,2.75-40.57,8.18-12.41,5.25-23.56,12.77-33.14,22.35-9.58,9.58-17.1,20.73-22.35,33.14-5.43,12.84-8.18,26.49-8.18,40.57s2.75,27.73,8.18,40.57c5.25,12.41,12.77,23.56,22.35,33.14,9.58,9.58,20.73,17.1,33.14,22.35,12.84,5.43,26.49,8.18,40.57,8.18,10.42,0,20.7-1.53,30.55-4.54,11.29-3.45,23.23,2.9,26.69,14.18,3.45,11.29-2.9,23.23-14.18,26.69-13.91,4.25-28.39,6.41-43.05,6.41Z"/>
        <path class="cls-4" d="m183.78,325.46c-3.63,0-7.3-.92-10.67-2.87-10.22-5.9-13.72-18.97-7.82-29.19L304.12,53.01c5.9-10.22,18.97-13.72,29.19-7.82,10.22,5.9,13.72,18.97,7.82,29.19l-138.83,240.39c-3.96,6.85-11.14,10.69-18.53,10.69Z"/>
        <path class="cls-4" d="m145.95,208.11c-3.62,0-7.28-.92-10.65-2.86-10.23-5.89-13.74-18.96-7.85-29.18l64.12-111.34c5.89-10.23,18.96-13.74,29.18-7.85,10.23,5.89,13.74,18.96,7.85,29.18l-64.12,111.34c-3.95,6.87-11.15,10.71-18.54,10.71Z"/>
        <g class="cls-1">
          <g>
            <rect class="cls-6" x="98.76" y="157.85" width="100.42" height="52.6"/>
            <rect class="cls-3" x="127.45" y="105.25" width="103.29" height="52.6"/>
            <rect class="cls-5" x="156.14" y="52.65" width="103.29" height="52.6"/>
          </g>
        </g>
        <path class="cls-4" d="m359.47,330.89c-13.19,0-26.28-1.75-38.9-5.21-12.25-3.35-24.03-8.3-35.02-14.71-10.2-5.94-13.65-19.03-7.7-29.22,5.94-10.2,19.03-13.65,29.22-7.7,7.78,4.54,16.12,8.04,24.79,10.41,8.94,2.45,18.23,3.69,27.61,3.69,14.08,0,27.73-2.75,40.57-8.18,12.41-5.25,23.56-12.77,33.14-22.35,9.58-9.58,17.1-20.73,22.35-33.14,5.43-12.84,8.18-26.49,8.18-40.57s-2.75-27.73-8.18-40.57c-5.25-12.41-12.77-23.56-22.35-33.14-9.58-9.58-20.73-17.1-33.14-22.35-12.84-5.43-26.49-8.18-40.57-8.18-10.42,0-20.7,1.53-30.55,4.54-11.29,3.45-23.23-2.9-26.69-14.18-3.45-11.29,2.9-23.23,14.18-26.69,13.91-4.25,28.39-6.41,43.05-6.41,19.83,0,39.09,3.89,57.22,11.56,17.51,7.4,33.22,18,46.72,31.49,13.49,13.49,24.09,29.21,31.49,46.72,7.67,18.14,11.56,37.39,11.56,57.22s-3.89,39.09-11.56,57.22c-7.4,17.51-18,33.22-31.49,46.72-13.49,13.49-29.21,24.09-46.72,31.49-18.14,7.67-37.39,11.56-57.22,11.56Z"/>
        <path class="cls-4" d="m296.35,313.78c-3.62,0-7.28-.92-10.65-2.86-10.23-5.89-13.74-18.96-7.85-29.18l64.12-111.34c5.89-10.23,18.96-13.74,29.18-7.85,10.23,5.89,13.74,18.96,7.85,29.18l-64.12,111.34c-3.95,6.87-11.15,10.71-18.54,10.71Z"/>
        <g class="cls-7">
          <g>
            <rect class="cls-6" x="254.18" y="262.36" width="100.42" height="52.6"/>
            <rect class="cls-3" x="282.87" y="209.76" width="103.29" height="52.6"/>
            <rect class="cls-5" x="311.56" y="157.16" width="103.29" height="52.6"/>
          </g>
        </g>
      </g>
      <g>
        <path class="cls-4" d="m592.72,334.96l53.22-251.89h44.69l-3.96,24.12h2.82c4.52-8.09,9.93-13.97,16.24-17.66,6.3-3.68,12.96-6.12,19.98-7.31,7.01-1.19,13.86-1.78,20.52-1.78,13.56,0,24.45,1.43,32.65,4.28,8.21,2.85,14.33,7.91,18.38,15.16,4.04,7.26,6.07,17.31,6.07,30.15,0,5.71-.48,12.43-1.43,20.16-.95,7.73-2.5,16.36-4.64,25.87-3.81,18.08-7.91,33.01-12.31,44.78-4.4,11.77-9.58,21.18-15.52,28.19-5.95,7.02-13.08,11.96-21.41,14.81-8.33,2.86-18.2,4.28-29.61,4.28-9.04,0-17.37-.66-24.98-1.97-7.62-1.3-14.16-3.68-19.62-7.13-5.48-3.45-9.4-8.5-11.78-15.17h-2.93l-18.92,91.11h-47.44Zm107.87-105.46c8.79,0,15.8-.54,21.03-1.6,5.22-1.07,9.5-3.44,12.83-7.13,3.33-3.68,6.12-9.14,8.38-16.39,2.26-7.24,4.81-17.16,7.66-29.76,1.66-8.08,2.91-14.97,3.74-20.67.83-5.7,1.25-10.57,1.25-14.61,0-5.94-1.07-10.34-3.21-13.19-2.14-2.85-5.52-4.69-10.16-5.52-4.63-.83-10.87-1.25-18.71-1.25-6.41,0-12,.6-16.75,1.78-4.75,1.19-8.79,3.09-12.12,5.7-3.33,2.62-5.94,5.94-7.84,9.98-1.66,2.85-3.27,6.41-4.81,10.69-1.55,4.28-3.09,9.09-4.63,14.43-1.55,5.35-2.85,10.75-3.92,16.22-1.07,5.47-1.96,10.64-2.67,15.5-.71,4.87-1.07,8.97-1.07,12.3,0,8.79,2.26,14.91,6.77,18.35,4.51,3.45,12.59,5.17,24.23,5.17Z"/>
        <path class="cls-4" d="m986.56,81.48h-76.25c-33.57,0-62.56,23.5-69.5,56.35l-14.88,70.42c-6.54,30.97,17.08,60.1,48.73,60.1h72.42l8-37.84h-60.9c-12.93,0-22.57-11.91-19.88-24.56l12.79-60.13c3.37-15.87,17.38-27.21,33.6-27.21h57.94l7.94-37.13Z"/>
        <path class="cls-4" d="m992.02,265.29L1048.08,0h47.84l-56.06,265.29h-47.85Z"/>
        <path class="cls-4" d="m1170.31,268.35c-20.67,0-36.77-1.31-48.29-3.92-11.53-2.61-19.66-7.13-24.41-13.54-4.76-6.41-7.13-15.32-7.13-26.73,0-5.94.71-13.01,2.14-21.21,1.43-8.2,3.21-17.64,5.35-28.33,3.32-15.2,6.35-28.16,9.09-38.85,2.73-10.69,6.18-19.6,10.33-26.73,4.16-7.13,9.5-12.77,16.04-16.93,6.53-4.16,14.97-7.07,25.31-8.73,10.33-1.66,23.22-2.49,38.67-2.49,20.67,0,36.76,1.31,48.29,3.92,11.52,2.62,19.6,7.19,24.23,13.72,4.63,6.54,6.95,15.5,6.95,26.91,0,5.94-.53,13.01-1.6,21.2-1.07,8.2-2.79,17.53-5.17,27.98-3.33,15.21-6.48,28.16-9.45,38.85-2.97,10.69-6.41,19.6-10.33,26.73-3.92,7.13-9.15,12.78-15.68,16.93-6.54,4.16-14.97,7.07-25.3,8.73-10.34,1.66-23.35,2.5-39.03,2.5Zm1.43-36.71c8.07,0,14.61-.36,19.6-1.07,4.99-.71,9.09-2.08,12.3-4.1,3.21-2.01,5.88-5.17,8.02-9.44,2.14-4.28,4.1-9.92,5.88-16.93,1.78-7.01,3.74-15.51,5.88-25.48,1.66-9.03,3.03-16.75,4.1-23.16,1.07-6.42,1.6-11.76,1.6-16.04,0-4.99-1.01-8.85-3.03-11.58-2.02-2.73-5.41-4.46-10.16-5.17-4.75-.71-11.4-1.07-19.96-1.07-9.75,0-17.41.6-22.99,1.78-5.58,1.19-9.92,3.69-13.01,7.48-3.09,3.8-5.65,9.51-7.66,17.11-2.02,7.6-4.45,17.82-7.31,30.65-1.91,9.27-3.45,17.11-4.63,23.52-1.19,6.41-1.78,11.76-1.78,16.04,0,4.99,1.01,8.79,3.03,11.4,2.02,2.62,5.46,4.28,10.34,4.99,4.87.71,11.46,1.07,19.78,1.07Z"/>
        <path class="cls-4" d="m1353.85,267.94c-13.8,0-24.57-1.55-32.3-4.64-7.73-3.09-13.15-7.91-16.24-14.45-3.09-6.54-4.64-14.57-4.64-24.09,0-4.76.47-10.23,1.43-16.42.95-6.18,2.14-12.85,3.57-19.98l22.48-105.28h47.32l-20.72,98.26c-1.19,6.2-2.27,11.91-3.22,17.15-.95,5.24-1.43,9.41-1.43,12.51,0,5.24.89,9.11,2.68,11.61s4.76,4.17,8.93,5c4.16.84,9.7,1.25,16.61,1.25,8.81,0,16.02-1.01,21.61-3.04,5.6-2.02,10.01-5.24,13.22-9.65,3.22-4.4,5.9-9.88,8.04-16.44,2.14-6.55,4.05-14.23,5.72-23.05l20.01-93.61h47.52l-38.94,182.22h-44.29l3.6-24.12h-2.79c-3.81,5.95-8.57,10.89-14.28,14.81s-12.13,6.9-19.27,8.92c-7.14,2.02-15.35,3.03-24.63,3.03Z"/>
        <path class="cls-4" d="m1567.31,267.94c-13.56,0-24.45-1.43-32.65-4.28-8.21-2.85-14.33-7.9-18.38-15.16-4.05-7.25-6.07-17.31-6.07-30.15,0-5.71.53-12.43,1.61-20.16,1.07-7.73,2.55-16.35,4.46-25.87,3.8-18.08,7.97-33.01,12.49-44.78,4.52-11.77,9.69-21.17,15.52-28.19,5.83-7.01,12.9-11.96,21.23-14.81,8.32-2.86,18.2-4.28,29.62-4.28,9.04,0,17.36.66,24.98,1.96,7.61,1.31,14.15,3.63,19.63,6.96,5.47,3.34,9.39,8.45,11.77,15.35h2.76L1676.04,0h47.45l-56.42,265.29h-44.52l3.96-24.12h-2.46c-4.52,7.85-9.94,13.68-16.24,17.49-6.3,3.81-12.84,6.3-19.62,7.49-6.78,1.19-13.74,1.78-20.87,1.78Zm22.83-38.08c6.65,0,12.3-.65,16.93-1.96,4.63-1.3,8.61-3.21,11.94-5.7,3.33-2.5,5.94-5.76,7.84-9.8,1.42-2.85,2.97-6.41,4.63-10.69,1.66-4.28,3.21-9.09,4.63-14.43,1.42-5.35,2.79-10.69,4.1-16.04,1.3-5.35,2.26-10.45,2.85-15.32.59-4.87.89-9.09.89-12.65,0-8.79-2.26-14.91-6.77-18.35-4.52-3.44-12.6-5.17-24.23-5.17-8.55,0-15.45.54-20.67,1.6-5.23,1.07-9.44,3.45-12.65,7.13-3.21,3.69-6.06,9.15-8.55,16.39-2.5,7.25-5.05,17.17-7.66,29.76-1.67,8.08-2.91,14.97-3.74,20.67-.84,5.7-1.25,10.57-1.25,14.61,0,5.7,1.01,9.98,3.03,12.83,2.02,2.85,5.4,4.75,10.16,5.7,4.75.95,10.93,1.43,18.53,1.43Z"/>
        <path class="cls-4" d="m1873.83,83.07l-19.96,92.31c-1.66,9.03-3.56,16.7-5.7,22.99-2.14,6.3-4.81,11.4-8.02,15.33-3.21,3.92-7.31,6.77-12.3,8.55-4.99,1.78-11.4,2.67-19.25,2.67-6.18,0-11.23-.23-15.15-.71-3.92-.47-6.83-1.9-8.73-4.28-1.91-2.37-2.85-5.94-2.85-10.69,0-3.56.41-7.9,1.25-13.01.83-5.11,2.08-11.34,3.74-18.71l20.32-94.45h-47.02l-23.86,112.17c-1.42,6.41-2.55,12.28-3.38,17.62-.83,5.34-1.25,10.39-1.25,15.13,0,8.31,1.48,15.2,4.45,20.65,2.96,5.46,7.89,9.62,14.78,12.46,6.88,2.85,16.26,4.27,28.13,4.27,9.49,0,17.86-.89,25.1-2.67,7.24-1.78,13.53-4.39,18.87-7.83,5.34-3.44,10.15-8.01,14.42-13.71h2.63l-7.31,33.28c-3.64,16.56-18.31,28.36-35.26,28.36h-71.65l-7.71,35.48h83.45c38.05,0,70.9-26.65,78.75-63.88l5.62-26.67,34.93-164.66h-47.05Z"/>
      </g>
      <g>
        <path class="cls-4" d="m1099.18,393.64c-3.54,0-7-.28-10.38-.83-3.39-.56-6.27-1.64-8.64-3.26-2.38-1.61-4.12-4.04-5.23-7.27h-.48l-2.82,7.26h-18.27l23.29-108.84h19.81l-9.21,43.54h.72c2.02-2.93,4.24-5.13,6.67-6.59,2.43-1.47,5.05-2.45,7.88-2.96,2.83-.51,5.76-.76,8.79-.76,5.66,0,10.26.63,13.79,1.9,3.53,1.26,6.16,3.44,7.88,6.52,1.72,3.09,2.58,7.35,2.58,12.81,0,2.53-.23,5.43-.68,8.71-.45,3.29-1.14,6.95-2.05,10.99-1.62,7.68-3.36,14.02-5.23,19.02-1.87,5-4.07,8.94-6.6,11.82-2.53,2.88-5.58,4.92-9.17,6.14-3.59,1.21-7.8,1.82-12.65,1.82Zm-7.18-18.14c3.57,0,6.49-.22,8.78-.67,2.28-.45,4.09-1.44,5.43-2.98s2.5-3.84,3.5-6.92c.99-3.07,2.03-7.24,3.12-12.5.6-3.37,1.12-6.22,1.56-8.55.45-2.33.67-4.29.67-5.87,0-2.48-.45-4.32-1.34-5.51-.89-1.19-2.33-1.98-4.31-2.38-1.99-.39-4.56-.59-7.74-.59-2.68,0-4.93.2-6.77.59-1.84.4-3.45,1.07-4.83,2.01-1.39.95-2.53,2.16-3.42,3.65-.69,1.19-1.41,2.78-2.16,4.76-.74,1.99-1.44,4.24-2.08,6.77-.64,2.53-1.24,5.01-1.78,7.44-.55,2.43-.97,4.64-1.26,6.62-.3,1.98-.45,3.52-.45,4.61,0,3.47,1.02,5.92,3.05,7.36,2.03,1.44,5.38,2.16,10.04,2.16Z"/>
        <path class="cls-4" d="m1305.76,391.57c-8.63,0-15.35-.55-20.16-1.64-4.81-1.09-8.21-2.98-10.19-5.65-1.98-2.68-2.97-6.4-2.97-11.16,0-2.48.3-5.43.89-8.85.59-3.42,1.34-7.36,2.23-11.83,1.39-6.35,2.65-11.75,3.79-16.21,1.14-4.46,2.58-8.18,4.31-11.16,1.74-2.98,3.97-5.33,6.7-7.06,2.72-1.74,6.25-2.95,10.56-3.65,4.31-.69,9.69-1.04,16.14-1.04,8.63,0,15.35.55,20.16,1.64,4.81,1.09,8.18,3,10.12,5.73,1.93,2.73,2.9,6.47,2.9,11.23,0,2.48-.22,5.43-.67,8.85-.45,3.42-1.17,7.32-2.15,11.68-1.39,6.35-2.7,11.75-3.94,16.21-1.24,4.46-2.68,8.18-4.32,11.16-1.63,2.98-3.82,5.33-6.54,7.06-2.73,1.74-6.25,2.95-10.56,3.65-4.31.69-9.74,1.04-16.29,1.04Zm.6-15.32c3.37,0,6.1-.15,8.18-.45,2.08-.3,3.79-.87,5.13-1.71,1.34-.84,2.45-2.16,3.34-3.94.89-1.79,1.71-4.14,2.46-7.06.74-2.92,1.56-6.47,2.46-10.64.69-3.77,1.26-6.99,1.71-9.67.45-2.68.67-4.91.67-6.69,0-2.08-.42-3.7-1.26-4.84-.85-1.14-2.26-1.86-4.24-2.15-1.98-.3-4.76-.45-8.33-.45-4.07,0-7.27.25-9.59.74-2.33.5-4.14,1.54-5.43,3.12-1.29,1.59-2.36,3.97-3.2,7.14-.84,3.18-1.86,7.44-3.05,12.79-.79,3.87-1.44,7.14-1.93,9.82s-.74,4.91-.74,6.69c0,2.08.42,3.67,1.26,4.76s2.28,1.79,4.32,2.08c2.03.3,4.78.45,8.26.45Z"/>
        <path class="cls-4" d="m1351.23,422.18l23-108.84h18.33l-1.79,10.88h.93c1.92-3.43,4.22-5.93,6.9-7.5,2.68-1.57,5.51-2.6,8.49-3.11,2.98-.51,5.88-.76,8.71-.76,5.76,0,10.38.61,13.87,1.82,3.49,1.21,6.09,3.36,7.8,6.44,1.72,3.09,2.58,7.35,2.58,12.81,0,2.43-.21,5.28-.61,8.56-.4,3.29-1.06,6.95-1.97,10.99-1.62,7.68-3.36,14.02-5.23,19.02-1.87,5-4.07,8.99-6.6,11.97-2.53,2.98-5.56,5.08-9.09,6.29-3.54,1.21-7.73,1.82-12.58,1.82-3.84,0-7.38-.28-10.61-.83-3.23-.56-6.01-1.57-8.34-3.03-2.33-1.46-3.99-3.61-5-6.44h-.51l-8.29,39.91h-20Zm45.41-46.83c3.67,0,6.59-.22,8.78-.67s3.97-1.44,5.36-2.98,2.55-3.82,3.5-6.84c.94-3.03,2.01-7.16,3.2-12.42.69-3.37,1.22-6.25,1.56-8.63.35-2.38.52-4.41.52-6.1,0-2.48-.45-4.32-1.34-5.51-.89-1.19-2.31-1.96-4.24-2.3-1.93-.35-4.54-.52-7.81-.52-2.68,0-5.01.25-6.99.74-1.98.5-3.67,1.29-5.06,2.38-1.39,1.09-2.48,2.48-3.27,4.17-.69,1.19-1.36,2.68-2.01,4.46-.64,1.79-1.29,3.79-1.93,6.03-.64,2.23-1.19,4.49-1.63,6.77s-.82,4.44-1.12,6.47c-.3,2.03-.45,3.75-.45,5.13,0,3.67.94,6.22,2.83,7.66,1.88,1.44,5.25,2.16,10.11,2.16Z"/>
        <path class="cls-4" d="m1447.55,389.53l23-108.84h19.99l-14.05,65.31h7.52l28.17-29.02h22.14l-35.71,36.14,20.92,36.42h-22.46l-16.4-29.02h-6.59l-6.03,29.02h-20.49Z"/>
        <path class="cls-4" d="m1568.3,390.05c-8.13,0-14.48-.64-19.04-1.93-4.56-1.29-7.81-3.3-9.74-6.02-1.93-2.73-2.9-6.27-2.9-10.64,0-2.77.27-5.85.82-9.22.55-3.37,1.22-7.09,2.01-11.16,1.58-6.74,3.25-12.59,4.99-17.55,1.73-4.96,4.06-9.07,6.99-12.35,2.92-3.27,6.84-5.65,11.75-7.14,4.91-1.49,11.28-2.23,19.11-2.23,7.24,0,12.84.62,16.81,1.86,3.96,1.24,6.77,3.15,8.4,5.73,1.64,2.58,2.45,5.85,2.45,9.82,0,1.88-.15,3.99-.44,6.32-.3,2.33-.7,4.78-1.19,7.36-.5,2.58-1.09,5.31-1.79,8.18l-1.19,5.8h-47.3c-.4,1.99-.74,3.79-1.04,5.43-.3,1.64-.45,3.1-.45,4.39,0,2.08.55,3.7,1.64,4.84s3.03,1.88,5.8,2.23c2.78.35,6.7.52,11.75.52,2.18,0,4.61-.02,7.29-.07,2.68-.05,5.45-.22,8.33-.52,2.88-.3,5.51-.55,7.89-.74l-3.12,14.73c-2.28.4-5.01.79-8.18,1.19-3.17.4-6.45.69-9.82.89-3.37.2-6.65.3-9.82.3Zm-7.59-44.06h28.41l.45-1.79c.39-1.88.67-3.5.82-4.84.15-1.34.22-2.55.22-3.64,0-2.08-.37-3.65-1.12-4.69-.74-1.04-1.96-1.73-3.65-2.08s-3.92-.52-6.69-.52c-3.37,0-6.08.22-8.11.67-2.03.45-3.67,1.29-4.91,2.53-1.24,1.24-2.28,3.03-3.12,5.36-.85,2.33-1.62,5.33-2.31,9Z"/>
        <path class="cls-4" d="m1683.74,312.41l-8.32,38.5c-.69,3.77-1.49,6.96-2.38,9.59-.89,2.63-2.01,4.76-3.34,6.39-1.34,1.64-3.05,2.82-5.13,3.57-2.08.74-4.76,1.11-8.03,1.11-2.58,0-4.68-.1-6.32-.3-1.64-.2-2.85-.79-3.64-1.78-.79-.99-1.19-2.48-1.19-4.46,0-1.49.17-3.29.52-5.43.35-2.13.87-4.73,1.56-7.8l8.47-39.39h-19.61l-9.95,46.78c-.59,2.67-1.07,5.12-1.41,7.35-.35,2.23-.52,4.33-.52,6.31,0,3.47.62,6.34,1.86,8.61,1.24,2.28,3.29,4.01,6.16,5.2,2.87,1.19,6.78,1.78,11.73,1.78,3.96,0,7.45-.37,10.47-1.11,3.02-.74,5.64-1.83,7.87-3.27,2.23-1.43,4.23-3.34,6.02-5.72h1.1l-3.05,13.88c-1.52,6.91-7.63,11.83-14.71,11.83h-29.88l-3.21,14.8h34.8c15.87,0,29.57-11.12,32.84-26.65l2.34-11.12,14.57-68.68h-19.62Z"/>
        <path class="cls-4" d="m1207.16,312.41l-8.32,38.5c-.69,3.77-1.49,6.96-2.38,9.59-.89,2.63-2.01,4.76-3.34,6.39-1.34,1.64-3.05,2.82-5.13,3.57-2.08.74-4.76,1.11-8.03,1.11-2.58,0-4.68-.1-6.32-.3-1.64-.2-2.85-.79-3.64-1.78-.79-.99-1.19-2.48-1.19-4.46,0-1.49.17-3.29.52-5.43.35-2.13.87-4.73,1.56-7.8l8.47-39.39h-19.61l-9.95,46.78c-.59,2.67-1.07,5.12-1.41,7.35-.35,2.23-.52,4.33-.52,6.31,0,3.47.62,6.34,1.86,8.61,1.24,2.28,3.29,4.01,6.16,5.2,2.87,1.19,6.78,1.78,11.73,1.78,3.96,0,7.45-.37,10.47-1.11,3.02-.74,5.64-1.83,7.87-3.27,2.23-1.43,4.23-3.34,6.02-5.72h1.1l-3.05,13.88c-1.52,6.91-7.63,11.83-14.71,11.83h-29.88l-3.21,14.8h34.8c15.87,0,29.57-11.12,32.84-26.65l2.34-11.12,14.57-68.68h-19.62Z"/>
      </g>
    </g>
  </g>
</svg>