<?xml version="1.0" encoding="utf-8"?>
<!-- Generator: Adobe Adobe Illustrator 24.2.0, SVG Export Plug-In . SVG Version: 6.00 Build 0)  -->
<svg version="1.1" id="Layer_1" xmlns="http://www.w3.org/2000/svg" xmlns:xlink="http://www.w3.org/1999/xlink" x="0px" y="0px"
	 width="2670px" height="800px" viewBox="0 0 2670 800" style="enable-background:new 0 0 2670 800;" xml:space="preserve">
<style type="text/css">
	.st0{fill:#FFFFFF;}
	.st1{fill:#31A6DE;}
	.st2{fill:#0B6FB8;}
	.st3{fill:#595757;}
</style>
<g>
	<g>
		<path class="st0" d="M2040.43,752.97c0,3.77-3.08,6.85-6.85,6.85h-449.8c-3.77,0-6.85-3.08-6.85-6.85V47.03
			c0-3.77,3.08-6.85,6.85-6.85h449.8c3.77,0,6.85,3.08,6.85,6.85V752.97z"/>
	</g>
	<g>
		<path class="st1" d="M2022.13,735.12c0,3.52-2.88,6.4-6.4,6.4h-414.09c-3.52,0-6.4-2.88-6.4-6.4V64.88c0-3.52,2.88-6.4,6.4-6.4
			h414.09c3.52,0,6.4,2.88,6.4,6.4V735.12z"/>
	</g>
	<rect x="1641.86" y="135.71" class="st2" width="329.66" height="494.49"/>
	<path class="st1" d="M2379.57,456.55c-10.31,0-18.68-8.37-18.68-18.68c0-92.68-75.4-168.08-168.08-168.08
		c-10.31,0-18.68-8.36-18.68-18.68c0-10.32,8.36-18.68,18.68-18.68c113.28,0,205.43,92.16,205.43,205.43
		C2398.24,448.19,2389.88,456.55,2379.57,456.55z"/>
	<path class="st1" d="M2472.95,456.55c-10.32,0-18.67-8.37-18.67-18.68c0-144.17-117.3-261.46-261.46-261.46
		c-10.31,0-18.68-8.37-18.68-18.68c0-10.31,8.36-18.67,18.68-18.67c164.76,0,298.81,134.04,298.81,298.81
		C2491.62,448.19,2483.26,456.55,2472.95,456.55z"/>
	<path class="st1" d="M2566.32,456.55c-10.31,0-18.67-8.37-18.67-18.68c0-195.66-159.18-354.83-354.84-354.83
		c-10.31,0-18.68-8.37-18.68-18.68c0-10.32,8.36-18.68,18.68-18.68c216.25,0,392.19,175.93,392.19,392.19
		C2585,448.19,2576.64,456.55,2566.32,456.55z"/>
	<g>
		<path class="st0" d="M2306.88,583.1l-33.38-19.27c3.98-14.71,5.99-29.85,5.99-45.22c0-15.35-2.01-30.5-5.99-45.2l33.38-19.27
			c9.04-5.22,12.14-16.77,6.92-25.81l-25.79-44.67c-3.5-6.06-9.85-9.45-16.38-9.45c-3.21,0-6.45,0.81-9.43,2.54l-33.46,19.3
			c-21.68-21.73-48.68-37.35-78.23-45.23v-38.56c0-10.43-8.46-18.89-18.89-18.89h-51.59c-10.44,0-18.9,8.46-18.9,18.89v38.56
			c-29.54,7.88-56.54,23.49-78.23,45.23l-14.87-8.58c3.11-3.46,4.86-7.95,4.86-12.61l-0.01-44.71c0-10.43-8.46-18.9-18.9-18.9
			h-31.93c-4.17-10.72-9.92-20.71-17.07-29.66l15.93-27.61c5.22-9.04,2.12-20.59-6.91-25.81l-38.72-22.36
			c-2.9-1.67-6.16-2.53-9.45-2.53c-1.64,0-3.28,0.21-4.89,0.64c-4.84,1.3-8.97,4.47-11.47,8.81l-15.94,27.61
			c-5.6-0.85-11.26-1.27-16.95-1.27c-5.79,0-11.56,0.44-17.26,1.32l-15.97-27.66c-2.5-4.35-6.63-7.52-11.47-8.81
			c-1.61-0.43-3.25-0.64-4.89-0.64c-3.29,0-6.55,0.86-9.45,2.54l-38.72,22.36c-9.04,5.22-12.13,16.77-6.91,25.81l15.93,27.6
			c-3.59,4.48-6.83,9.21-9.7,14.19c-2.87,4.96-5.35,10.14-7.43,15.48h-31.87c-10.44,0.01-18.89,8.47-18.89,18.9v44.7
			c0,10.43,8.46,18.9,18.9,18.9h31.93c4.17,10.71,9.92,20.71,17.07,29.67L1711.9,451c-5.22,9.04-2.12,20.59,6.91,25.81l38.72,22.36
			c2.97,1.72,6.22,2.54,9.43,2.54c6.53,0,12.88-3.39,16.38-9.45l15.95-27.61c5.6,0.85,11.26,1.28,16.95,1.28
			c5.78,0,11.56-0.44,17.27-1.32l15.96,27.65c3.5,6.06,9.85,9.46,16.39,9.46c3.2,0,6.45-0.82,9.42-2.54l38.73-22.35
			c4.34-2.51,7.5-6.63,8.81-11.48c0.06-0.23,0.1-0.47,0.15-0.7l15.16,8.75c-3.97,14.69-5.98,29.84-5.98,45.2
			c0,15.37,2.01,30.52,5.98,45.22l-33.38,19.27c-4.34,2.5-7.51,6.63-8.81,11.47c-1.3,4.84-0.62,10,1.89,14.34l25.8,44.67
			c3.5,6.06,9.85,9.45,16.38,9.45c3.2,0,6.45-0.82,9.43-2.54l33.45-19.31c21.68,21.74,48.69,37.35,78.23,45.22v38.57
			c0,10.43,8.46,18.9,18.9,18.9h51.59c10.43,0,18.89-8.46,18.89-18.9V686.4c29.54-7.87,56.54-23.48,78.22-45.22l33.45,19.31
			c2.97,1.72,6.22,2.54,9.43,2.54c6.53,0,12.88-3.4,16.38-9.45l25.8-44.67c2.5-4.34,3.18-9.5,1.89-14.34
			C2314.39,589.73,2311.22,585.6,2306.88,583.1z M1837.28,364.53c-4.29,7.43-12.32,12.05-20.95,12.05c-4.18,0-8.33-1.12-11.97-3.22
			c-11.5-6.65-15.46-21.42-8.81-32.92c4.28-7.42,12.3-12.04,20.93-12.04c4.19,0,8.33,1.11,11.98,3.22
			C1839.96,338.26,1843.92,353.03,1837.28,364.53z M2171.3,533.17c-0.71,3.21-1.69,6.43-2.9,9.58c-0.06,0.15-0.12,0.3-0.18,0.45
			c-1.18,3-2.63,6-4.31,8.9c-0.05,0.1-0.12,0.2-0.16,0.29c-0.76,1.3-1.58,2.6-2.41,3.84c-0.1,0.13-0.19,0.26-0.28,0.39
			c-0.87,1.27-1.83,2.56-2.85,3.84c-0.1,0.12-0.21,0.24-0.3,0.37c-0.91,1.12-1.92,2.27-3.07,3.51c-0.01,0.01-0.26,0.27-0.38,0.4
			c-1.24,1.3-2.29,2.34-3.32,3.28c-7.22,6.63-15.94,11.68-25.2,14.59c-1.27,0.4-2.68,0.79-4.27,1.18c-0.38,0.08-0.78,0.17-1.17,0.27
			c-1.7,0.38-3.06,0.64-4.25,0.82c-0.1,0.02-0.2,0.04-0.3,0.05c-1.2,0.19-2.61,0.35-4.29,0.49l-1.17,0.09
			c-1.83,0.12-3.31,0.18-4.65,0.18c-1.34,0-2.83-0.06-4.73-0.19l-0.97-0.07c-1.78-0.16-3.19-0.32-4.4-0.5
			c-0.1-0.02-0.22-0.04-0.32-0.05c-1.19-0.18-2.51-0.43-4.25-0.82c-0.39-0.1-0.79-0.18-1.18-0.27c-1.6-0.39-3-0.78-4.25-1.18
			c-9.26-2.91-17.98-7.96-25.21-14.59c-1.01-0.93-2.07-1.98-3.34-3.3c-0.11-0.12-0.35-0.37-0.35-0.37
			c-1.17-1.26-2.17-2.41-3.07-3.51c-0.1-0.13-0.2-0.26-0.3-0.39c-1.05-1.31-2.02-2.61-2.88-3.85c0,0-0.11-0.15-0.16-0.24
			c-0.82-1.21-1.65-2.53-2.47-3.92l-0.19-0.32c-1.66-2.88-3.11-5.86-4.29-8.84c-0.04-0.1-0.07-0.19-0.11-0.29
			c-1.25-3.19-2.26-6.49-3-9.81c-1.07-4.82-1.61-9.71-1.61-14.57s0.54-9.76,1.6-14.56c0.73-3.26,1.72-6.52,2.94-9.67
			c0.05-0.11,0.1-0.23,0.13-0.33c1.18-2.98,2.6-5.94,4.25-8.8c0.08-0.14,0.17-0.28,0.25-0.43c0.82-1.41,1.69-2.78,2.6-4.1
			c0.03-0.04,0.05-0.07,0.07-0.11c0.83-1.21,1.78-2.48,2.88-3.86c0.04-0.06,0.12-0.15,0.19-0.24c0.93-1.15,1.96-2.34,3.16-3.63
			c0.1-0.1,0.24-0.24,0.29-0.3c1.22-1.28,2.34-2.39,3.4-3.37c7.22-6.63,15.94-11.68,25.26-14.62c1.23-0.39,2.63-0.77,4.25-1.17
			l0.98-0.23c1.74-0.39,3.15-0.67,4.45-0.86c0.1-0.02,0.2-0.04,0.29-0.05c1.24-0.19,2.66-0.35,4.34-0.49l1.1-0.08
			c1.92-0.12,3.35-0.18,4.64-0.18c1.29,0,2.72,0.05,4.63,0.18l1.14,0.08c1.67,0.14,3.09,0.31,4.32,0.49
			c0.09,0.02,0.19,0.03,0.28,0.05c1.29,0.2,2.74,0.48,4.57,0.89l0.74,0.17c1.75,0.42,3.14,0.8,4.41,1.2
			c9.28,2.92,18,7.97,25.21,14.6c1.04,0.95,2.12,2.03,3.45,3.43l0.29,0.29c1.06,1.14,2.08,2.31,3.03,3.48
			c0.11,0.14,0.22,0.28,0.33,0.42c1.02,1.27,1.97,2.54,2.81,3.76c0.06,0.07,0.11,0.15,0.16,0.23c0.87,1.29,1.73,2.63,2.54,4.03
			c0.02,0.04,0.13,0.23,0.17,0.29c1.66,2.88,3.12,5.9,4.32,8.92c0.02,0.06,0.07,0.18,0.11,0.27c1.24,3.2,2.24,6.47,2.96,9.72
			c1.07,4.81,1.62,9.71,1.62,14.57C2172.91,523.47,2172.36,528.37,2171.3,533.17z"/>
		<g>
			<path class="st3" d="M2271.64,393.1l-46.62,26.91c-23.19-27.99-56.05-47.68-93.4-53.98v-53.78h-51.59v53.78
				c-37.36,6.3-70.21,25.99-93.41,53.98l-46.61-26.91l-25.8,44.67l46.56,26.88c-6.27,16.81-9.72,34.99-9.72,53.96
				c0,18.97,3.45,37.15,9.72,53.96l-46.56,26.88l25.8,44.67l46.61-26.91c23.2,28,56.05,47.68,93.41,53.98v53.79h51.59v-53.79
				c37.35-6.29,70.2-25.98,93.4-53.98l46.61,26.91l25.81-44.67l-46.56-26.88c6.27-16.81,9.73-34.99,9.73-53.96
				c0-18.96-3.46-37.14-9.73-53.96l46.56-26.88L2271.64,393.1z M2047.72,455.29L2047.72,455.29c9.17-8.42,20.18-14.88,32.33-18.71
				c1.86-0.59,3.74-1.08,5.64-1.55c0.38-0.1,0.77-0.18,1.14-0.27c1.89-0.42,3.8-0.81,5.73-1.11c0.02-0.01,0.03-0.01,0.05-0.01
				c1.93-0.31,3.88-0.52,5.85-0.69c0.46-0.04,0.93-0.07,1.39-0.11c1.97-0.13,3.95-0.23,5.96-0.23c2,0,3.99,0.1,5.96,0.23
				c0.46,0.04,0.93,0.07,1.38,0.11c1.98,0.17,3.93,0.38,5.85,0.69c0.02,0,0.04,0,0.05,0.01c1.93,0.3,3.84,0.69,5.73,1.11
				c0.38,0.09,0.76,0.17,1.14,0.27c1.91,0.46,3.79,0.96,5.65,1.55c12.16,3.83,23.16,10.29,32.33,18.71c1.49,1.37,2.91,2.8,4.31,4.26
				c0.15,0.17,0.32,0.33,0.48,0.5c1.38,1.48,2.7,3,3.97,4.57c0.09,0.11,0.19,0.24,0.29,0.36c1.27,1.58,2.5,3.22,3.65,4.89
				c0.03,0.04,0.05,0.07,0.07,0.1c1.18,1.73,2.3,3.5,3.36,5.31c0.08,0.13,0.15,0.25,0.22,0.38c2.12,3.66,3.98,7.49,5.55,11.47
				c0.03,0.07,0.05,0.13,0.08,0.2c1.59,4.06,2.89,8.28,3.85,12.6l0,0c1.34,6.01,2.06,12.26,2.06,18.66s-0.73,12.65-2.06,18.67l0,0
				c-0.96,4.34-2.26,8.54-3.84,12.6c-0.03,0.07-0.06,0.15-0.1,0.22c-1.56,3.98-3.42,7.8-5.54,11.45c-0.07,0.12-0.15,0.26-0.22,0.38
				c-1.06,1.81-2.18,3.59-3.36,5.32c-0.02,0.03-0.05,0.05-0.07,0.09c-1.16,1.68-2.38,3.32-3.66,4.92c-0.09,0.11-0.18,0.21-0.27,0.33
				c-1.27,1.58-2.61,3.1-3.99,4.59c-0.15,0.16-0.3,0.32-0.45,0.48c-1.4,1.47-2.83,2.91-4.33,4.28l0,0
				c-9.17,8.43-20.17,14.88-32.32,18.71c-1.86,0.58-3.74,1.09-5.65,1.56c-0.38,0.08-0.76,0.17-1.14,0.26
				c-1.89,0.42-3.8,0.81-5.73,1.1c-0.01,0.01-0.03,0.01-0.05,0.01c-1.92,0.3-3.88,0.51-5.85,0.68c-0.46,0.04-0.92,0.07-1.38,0.1
				c-1.97,0.14-3.96,0.24-5.96,0.24c-2.01,0-3.99-0.1-5.96-0.24c-0.46-0.03-0.93-0.06-1.39-0.1c-1.97-0.18-3.92-0.38-5.85-0.68
				c-0.01-0.01-0.03-0.01-0.05-0.01c-1.93-0.29-3.84-0.68-5.73-1.1c-0.38-0.1-0.76-0.18-1.14-0.26c-1.9-0.47-3.79-0.98-5.64-1.56
				c-12.15-3.82-23.15-10.28-32.33-18.71l0,0c-1.49-1.37-2.92-2.81-4.33-4.28c-0.15-0.16-0.3-0.32-0.45-0.48
				c-1.38-1.49-2.72-3.01-4-4.59c-0.09-0.12-0.16-0.22-0.25-0.33c-1.28-1.6-2.52-3.24-3.69-4.93c-0.02-0.03-0.04-0.05-0.05-0.07
				c-1.19-1.74-2.31-3.51-3.37-5.34c-0.07-0.12-0.13-0.23-0.2-0.35c-2.12-3.67-3.99-7.5-5.56-11.49c-0.03-0.06-0.05-0.12-0.08-0.19
				c-1.59-4.06-2.89-8.28-3.85-12.61l0,0c-1.34-6.02-2.06-12.26-2.06-18.67s0.72-12.66,2.06-18.67c0.97-4.32,2.26-8.53,3.84-12.58
				c0.03-0.07,0.06-0.15,0.09-0.23c1.57-3.98,3.42-7.8,5.54-11.46c0.08-0.13,0.15-0.25,0.22-0.38c1.06-1.81,2.18-3.58,3.37-5.31
				c0.02-0.02,0.04-0.06,0.06-0.09c1.16-1.69,2.39-3.32,3.67-4.91c0.1-0.12,0.18-0.24,0.26-0.33c1.28-1.58,2.62-3.11,4-4.6
				c0.14-0.16,0.3-0.32,0.45-0.47C2044.79,458.1,2046.23,456.66,2047.72,455.29z"/>
			<path class="st3" d="M1908.29,374.84h45.69l-0.01-44.7h-45.75c-4.21-17.29-13.25-33.37-26.52-46.05l22.84-39.57l-38.72-22.36
				l-22.84,39.57c-17.62-5.16-36.06-4.94-53.14,0.05l-22.88-39.62l-38.72,22.35l22.85,39.57c-6.37,6.07-12,13.11-16.61,21.11
				c-4.62,7.99-7.9,16.39-9.98,24.93l-45.69,0.01v44.7h45.75c4.21,17.28,13.24,33.38,26.52,46.05l-22.84,39.56l38.72,22.35
				l22.85-39.56c17.61,5.16,36.06,4.94,53.14-0.05l22.87,39.61l38.73-22.35l-22.85-39.58c6.37-6.07,11.99-13.11,16.61-21.1
				C1902.94,391.79,1906.22,383.4,1908.29,374.84z M1853.64,373.99c-11.86,20.53-38.21,27.59-58.74,15.75
				c-20.52-11.86-27.58-38.21-15.73-58.73c11.85-20.53,38.19-27.59,58.73-15.73C1858.43,327.12,1865.49,353.45,1853.64,373.99z"/>
		</g>
	</g>
</g>
<g>
	<path d="M194.18,56.72c36.68,0,61.59,5.55,74.72,16.65c13.13,11.1,19.7,31.2,19.7,60.3c0,23.02-3.35,40.2-10.05,51.57
		c-6.7,11.37-17.9,19.02-33.61,22.95c17.87,3.65,30.05,9.98,36.55,18.98c6.5,9.01,9.75,26.36,9.75,52.08c0,1.62-0.1,4.13-0.31,7.51
		c-0.2,3.38-0.3,5.89-0.3,7.52c0,13.67,0.64,25.42,1.93,35.23c1.29,9.82,3.28,18.71,5.99,26.7h-65.18
		c-2.84-9.75-4.4-29.51-4.67-59.29c-0.14-10.15-0.27-18-0.41-23.55c-0.41-14.89-3.18-25.38-8.33-31.47
		c-5.15-6.09-13.74-9.14-25.79-9.14h-26.19v123.45h-62.74V56.72H194.18z M167.99,186.06h15.43c16.78,0,28.46-3.18,35.03-9.54
		c6.56-6.36,9.85-17.46,9.85-33.3c0-15.3-2.98-25.75-8.93-31.37c-5.96-5.61-17.53-8.42-34.72-8.42h-16.65V186.06z"/>
	<path d="M439.62,278.86h58.27c0,27.34-7.08,47.85-21.22,61.52c-14.14,13.68-35.36,20.51-63.65,20.51
		c-32.35,0-54.86-8.05-67.52-24.17c-12.66-16.11-18.98-45.95-18.98-89.54c0-37.5,6.7-64.33,20.1-80.51
		c13.41-16.17,35.54-24.26,66.4-24.26c28.7,0,50.01,6.94,63.96,20.81c13.94,13.88,20.91,34.96,20.91,63.25v31.68H386.42v21.52
		c0,15.7,2.06,27.11,6.19,34.21c4.13,7.11,10.8,10.66,20,10.66c8.8,0,15.5-3.55,20.1-10.66c4.6-7.1,6.91-17.49,6.91-31.17V278.86z
		 M386.42,225.25h52.39v-17.46c0-9.88-2.27-17.57-6.81-23.05c-4.54-5.48-10.86-8.22-18.98-8.22c-8.8,0-15.43,3.49-19.9,10.46
		c-4.47,6.97-6.7,17.36-6.7,31.17V225.25z"/>
	<path d="M590.43,169c4.74-8.66,11.07-15.26,18.99-19.8c7.92-4.53,17.16-6.8,27.72-6.8c13.53,0,24.9,2.77,34.11,8.32
		c9.2,5.56,15.7,13.47,19.49,23.76c5.41-10.69,12.25-18.71,20.5-24.06c8.26-5.34,17.93-8.02,29.04-8.02
		c18.27,0,32.25,4.71,41.92,14.11c9.68,9.41,14.52,23.04,14.52,40.91v158.79h-58.68V213.67c0-13.81-1.42-23.18-4.26-28.12
		c-2.85-4.94-7.79-7.41-14.83-7.41c-7.58,0-13.7,2.71-18.38,8.12c-4.67,5.41-7.01,12.59-7.01,21.52v148.43H634.9V213.67
		c0-13.53-1.46-22.84-4.36-27.92c-2.91-5.08-7.95-7.61-15.13-7.61c-7.58,0-13.64,2.68-18.17,8.02c-4.54,5.35-6.81,12.56-6.81,21.63
		v148.43h-58.68V184.84c0-9.61-0.14-17.02-0.41-22.23c-0.27-5.21-0.75-10.26-1.42-15.13h58.88L590.43,169z"/>
	<path d="M919.33,142.41c30.19,0,51.88,8.09,65.08,24.26c13.2,16.18,19.8,43.01,19.8,80.51c0,43.72-6.3,73.6-18.88,89.65
		c-12.6,16.04-35,24.06-67.21,24.06c-32.35,0-54.86-8.05-67.52-24.17c-12.66-16.11-18.98-45.95-18.98-89.54
		c0-37.77,6.77-64.67,20.31-80.72C865.45,150.42,887.92,142.41,919.33,142.41z M890.7,249.82c0,29.37,2,49.18,5.99,59.39
		c3.99,10.22,11.13,15.33,21.42,15.33c10.29,0,17.43-5.11,21.42-15.33c3.99-10.22,5.99-30.02,5.99-59.39c0-28.83-2-47.82-5.99-56.96
		c-3.99-9.13-11.27-13.7-21.83-13.7c-10.29,0-17.36,4.6-21.22,13.81C892.63,202.17,890.7,221.12,890.7,249.82z"/>
	<path d="M1140.61,355c-8.8,1.09-16.82,1.9-24.06,2.44c-7.24,0.54-13.23,0.81-17.97,0.81c-18.14,0-31.47-4.4-40-13.2
		c-8.53-8.8-12.8-22.67-12.8-41.63V182.81h-27.41v-35.33h27.41v-35.33l57.47-25.38v60.71h37.36v35.33h-37.36v113.1
		c0,10.69,1.42,17.6,4.26,20.71c2.85,3.11,8.6,4.67,17.26,4.67c2.3,0,6.63-0.2,13-0.61c1.35-0.14,2.3-0.21,2.84-0.21V355z"/>
	<path d="M1271.73,278.86H1330c0,27.34-7.08,47.85-21.22,61.52c-14.14,13.68-35.36,20.51-63.65,20.51
		c-32.35,0-54.86-8.05-67.52-24.17c-12.66-16.11-18.98-45.95-18.98-89.54c0-37.5,6.7-64.33,20.1-80.51
		c13.41-16.17,35.54-24.26,66.4-24.26c28.7,0,50.01,6.94,63.96,20.81c13.94,13.88,20.91,34.96,20.91,63.25v31.68h-111.48v21.52
		c0,15.7,2.06,27.11,6.19,34.21c4.13,7.11,10.8,10.66,20,10.66c8.8,0,15.5-3.55,20.1-10.66c4.6-7.1,6.91-17.49,6.91-31.17V278.86z
		 M1218.52,225.25h52.39v-17.46c0-9.88-2.27-17.57-6.81-23.05c-4.54-5.48-10.86-8.22-18.98-8.22c-8.8,0-15.43,3.49-19.9,10.46
		c-4.47,6.97-6.7,17.36-6.7,31.17V225.25z"/>
	<path d="M158.64,745.66V475.43H85V422.4h217.19v53.04h-74.08v270.23H158.64z"/>
	<path d="M412.76,662.16h62.9c0,29.52-7.64,51.65-22.91,66.41c-15.26,14.76-38.17,22.14-68.7,22.14c-34.92,0-59.21-8.69-72.88-26.08
		c-13.66-17.38-20.49-49.6-20.49-96.65c0-40.47,7.23-69.44,21.7-86.9c14.46-17.46,38.35-26.19,71.67-26.19
		c30.97,0,53.98,7.49,69.04,22.46c15.05,14.98,22.57,37.74,22.57,68.27v34.19H355.34v23.23c0,16.95,2.22,29.26,6.68,36.93
		s11.65,11.51,21.59,11.51c9.49,0,16.72-3.84,21.7-11.51c4.96-7.67,7.45-18.88,7.45-33.64V662.16z M355.34,604.3h56.54v-18.85
		c0-10.66-2.45-18.96-7.35-24.88c-4.9-5.92-11.72-8.88-20.49-8.88c-9.5,0-16.66,3.76-21.48,11.29c-4.82,7.53-7.23,18.74-7.23,33.64
		V604.3z"/>
	<path d="M505.68,671.15h61.37v4.6c0,11.11,2.08,19.91,6.25,26.41c4.16,6.5,9.75,9.75,16.77,9.75c8.47,0,15.3-2.11,20.49-6.36
		c5.18-4.24,7.78-9.86,7.78-16.88c0-11.98-14.25-25.42-42.74-40.33c-6.43-3.21-11.4-5.77-14.9-7.67
		c-24.26-13.15-39.42-23.85-45.48-32.11c-6.07-8.25-9.1-18.66-9.1-31.23c0-18.85,7.45-34.11,22.35-45.81
		c14.9-11.69,34.63-17.53,59.17-17.53c27.18,0,47.74,5.19,61.7,15.56c13.95,10.38,20.93,25.57,20.93,45.59
		c0,0.73-0.08,1.86-0.22,3.4c-0.15,1.53-0.22,2.82-0.22,3.84l-59.17-0.22c0.14-0.88,0.25-1.82,0.33-2.85
		c0.07-1.02,0.11-2.41,0.11-4.16c0-9.06-1.9-15.81-5.7-20.27c-3.8-4.45-9.57-6.68-17.31-6.68c-6.72,0-12.2,1.83-16.44,5.48
		c-4.24,3.65-6.36,8.41-6.36,14.25c0,9.64,12.93,21.34,38.79,35.07c11.4,6.14,20.45,11.18,27.18,15.12
		c18.11,10.82,30.5,20.86,37.15,30.14c6.65,9.28,9.97,20.49,9.97,33.64c0,22.21-8.11,38.9-24.33,50.08
		c-16.22,11.18-40.26,16.77-72.11,16.77c-24.69,0-43.69-5.92-56.98-17.75c-13.3-11.83-19.94-28.78-19.94-50.85
		c0-2.33,0.03-4.13,0.11-5.37C505.2,673.53,505.38,672.32,505.68,671.15z"/>
	<path d="M824.79,744.35c-9.5,1.17-18.16,2.04-25.97,2.63c-7.82,0.58-14.28,0.88-19.4,0.88c-19.58,0-33.97-4.74-43.18-14.25
		c-9.2-9.49-13.81-24.47-13.81-44.93V558.5h-29.59v-38.13h29.59v-38.13l62.02-27.4v65.53h40.33v38.13h-40.33v122.08
		c0,11.54,1.53,19,4.6,22.35c3.07,3.36,9.28,5.04,18.63,5.04c2.48,0,7.16-0.22,14.03-0.66c1.46-0.14,2.48-0.22,3.07-0.22V744.35z"/>
	<path d="M862.15,745.66V422.4h67.28v140.48l83.94-140.48h70.57l-93.36,148.59l93.36,174.67h-78.24l-76.27-157.14v157.14H862.15z"/>
	<path d="M1170.94,422.4v53.48h-63.34V422.4H1170.94z M1170.94,520.36v225.3h-63.34v-225.3H1170.94z"/>
	<path d="M1332.88,744.35c-9.5,1.17-18.16,2.04-25.97,2.63c-7.82,0.58-14.28,0.88-19.4,0.88c-19.58,0-33.97-4.74-43.18-14.25
		c-9.2-9.49-13.81-24.47-13.81-44.93V558.5h-29.59v-38.13h29.59v-38.13l62.02-27.4v65.53h40.33v38.13h-40.33v122.08
		c0,11.54,1.53,19,4.6,22.35c3.07,3.36,9.28,5.04,18.63,5.04c2.48,0,7.16-0.22,14.03-0.66c1.46-0.14,2.48-0.22,3.07-0.22V744.35z"/>
</g>
</svg>
