<?xml version="1.0" encoding="UTF-8"?><svg id="Layer_2" xmlns="http://www.w3.org/2000/svg" viewBox="0 0 383.0529 39.5046"><g id="Components"><g id="_60fe38f2-c98e-4878-83c4-557815f00e21_1"><path d="M191.4425,9.3592h-7.4248c-.3301,0-.6299-.1274-.9004-.3823-.2695-.2549-.4043-.5474-.4043-.8774v-2.4302c0-.3296-.1279-.6299-.3828-.8999s-.5625-.4053-.9229-.4053h-2.3848c-.3594,0-.668.1353-.9219.4053-.2559.27-.3828.5703-.3828.8999v2.4302c0,.3301-.1279.6226-.3828.8774s-.5625.3823-.9219.3823h-2.3857c-.3594,0-.668.1343-.9219.4014-.2559.2681-.3828.5654-.3828.8916v2.4092c0,.3267.127.624.3828.8916.2539.2676.5625.4014.9219.4014h2.3857c.3594,0,.667.1279.9219.3838s.3828.5493.3828.8794v12.4575c0,.3613.127.6699.3828.9258.2539.2563.5625.3833.9219.3833h2.3848c.3604,0,.668.1279.9229.3828s.3828.5625.3828.9224v2.3848c0,.3604.1348.668.4043.9229.2705.2549.5703.3823.9004.3823h7.4248c.3301,0,.6221-.1274.8779-.3823.2539-.2549.3828-.5625.3828-.9229v-2.3848c0-.3599-.1289-.6675-.3828-.9224-.2559-.2549-.5479-.3828-.8779-.3828h-7.4248c-.3301,0-.6299-.127-.9004-.3833-.2695-.2559-.4043-.5645-.4043-.9258v-12.4575c0-.3301.1348-.6235.4043-.8794.2705-.2559.5703-.3838.9004-.3838h7.4248c.3301,0,.6221-.1338.8779-.4014.2539-.2676.3828-.5649.3828-.8916v-2.4092c0-.3262-.1289-.6235-.3828-.8916-.2559-.2671-.5479-.4014-.8779-.4014Z" style="fill:#14231e;"/><path d="M103.0887,10.4558c-1.999-1.1187-4.2598-1.686-6.7188-1.686-2.4287,0-4.6729.5674-6.6719,1.686-1.999,1.1201-3.5879,2.6768-4.7207,4.6255-1.1357,1.9502-1.7119,4.1548-1.7119,6.5518s.5762,4.6025,1.7119,6.5522c1.1338,1.9502,2.7217,3.5063,4.7207,4.6255,1.999,1.1187,4.2432,1.686,6.6719,1.686,2.459,0,4.7197-.5674,6.7188-1.686,1.998-1.1187,3.5869-2.6748,4.7227-4.6255,1.1348-1.9512,1.71-4.1558,1.71-6.5522s-.5752-4.6001-1.71-6.5518c-1.1357-1.9497-2.7246-3.5059-4.7227-4.6255ZM103.3368,25.7136c-.6982,1.2202-1.6699,2.1914-2.8867,2.8867-1.2197.6963-2.5918,1.0498-4.0801,1.0498-1.4893,0-2.8545-.3535-4.0566-1.0498-1.2041-.6968-2.168-1.668-2.8633-2.8867-.6953-1.2188-1.0479-2.5913-1.0479-4.0806,0-1.4883.3525-2.8608,1.0479-4.0806.6963-1.2183,1.6592-2.189,2.8633-2.8862,1.2031-.6963,2.5674-1.0498,4.0566-1.0498,1.5176,0,2.8984.3535,4.1035,1.0498,1.2012.6953,2.165,1.6665,2.8633,2.8862.6963,1.2217,1.0498,2.5947,1.0498,4.0806,0,1.4868-.3535,2.8599-1.0498,4.0806Z" style="fill:#14231e;"/><path d="M163.8335,10.4558c-2.001-1.1187-4.2617-1.686-6.7207-1.686-2.4287,0-4.6729.5674-6.6719,1.686-1.999,1.1201-3.5879,2.6768-4.7207,4.6255-1.1348,1.9482-1.71,4.1523-1.71,6.5518s.5752,4.6045,1.71,6.5522c1.1338,1.9502,2.7217,3.5063,4.7207,4.6255,1.999,1.1187,4.2432,1.686,6.6719,1.686,2.459,0,4.7197-.5674,6.7207-1.686,1.9971-1.1191,3.585-2.6753,4.7207-4.6255,1.1348-1.9512,1.71-4.1558,1.71-6.5522s-.5752-4.6001-1.71-6.5518c-1.1348-1.9487-2.7236-3.5054-4.7207-4.6255ZM164.0796,25.7136c-.6953,1.2188-1.667,2.1899-2.8867,2.8867-1.2178.6963-2.5898,1.0498-4.0801,1.0498-1.4873,0-2.8525-.3535-4.0566-1.0498-1.2021-.6953-2.165-1.667-2.8613-2.8867-.6963-1.2173-1.0498-2.5903-1.0498-4.0806,0-1.4893.3535-2.8623,1.0498-4.0806.6963-1.2192,1.6592-2.1904,2.8613-2.8862,1.2051-.6963,2.5693-1.0498,4.0566-1.0498,1.5195,0,2.9004.3535,4.1055,1.0498,1.2031.6978,2.166,1.6685,2.8613,2.8862.6963,1.2183,1.0498,2.5913,1.0498,4.0806,0,1.4902-.3535,2.8633-1.0498,4.0806Z" style="fill:#14231e;"/><path d="M134.2845,10.4568c-1.8389-1.1196-3.9229-1.687-6.1924-1.687-2.2061,0-4.1934.5596-5.9062,1.6636-1.1816.7627-2.1934,1.7378-3.0225,2.9106V2.3044c0-.3294-.1279-.6295-.3823-.8994-.2549-.2698-.5625-.405-.9224-.405h-2.3833c-.3594,0-.668.1352-.9214.405-.2559.2699-.3828.57-.3828.8994v28.6162h.0034v1.707c0,.3294.1279.6295.3826.8994.2546.2698.5623.405.9224.405h2.3833c.3591,0,.6677-.1352.9214-.405.2556-.2699.3826-.57.3826-.8994v-2.7007c.8286,1.1707,1.8391,2.1446,3.019,2.9063,1.7129,1.104,3.7002,1.6636,5.9062,1.6636,2.2695,0,4.3535-.5674,6.1924-1.687,1.8379-1.1182,3.3047-2.6743,4.3613-4.626,1.0547-1.9482,1.5898-4.1523,1.5898-6.5508s-.5352-4.6016-1.5898-6.5503c-1.0557-1.9502-2.5234-3.5068-4.3613-4.626ZM134.0511,25.7136c-.6982,1.2207-1.6621,2.1919-2.8633,2.8867-1.2021.6963-2.5674,1.0498-4.0566,1.0498-1.4873,0-2.8525-.3535-4.0566-1.0498-1.2031-.6973-2.166-1.6685-2.8613-2.8867-.6963-1.2173-1.0498-2.5903-1.0498-4.0806,0-1.4893.3535-2.8623,1.0498-4.0806.6953-1.2178,1.6582-2.1885,2.8613-2.8862,1.2051-.6963,2.5693-1.0498,4.0566-1.0498,1.4893,0,2.8535.3535,4.0566,1.0498,1.2012.6953,2.165,1.6665,2.8633,2.8862.6963,1.2217,1.0498,2.5947,1.0498,4.0806,0,1.4868-.3535,2.8599-1.0498,4.0806Z" style="fill:#14231e;"/><path d="M285.3689,9.3676h-7.4248c-.3301,0-.6299-.1274-.9004-.3823-.2695-.2549-.4043-.5474-.4043-.8774v-2.4302c0-.3296-.1279-.6299-.3828-.8999s-.5625-.4053-.9229-.4053h-2.3848c-.3594,0-.668.1353-.9219.4053-.2559.27-.3828.5703-.3828.8999v2.4302c0,.3301-.1279.6226-.3828.8774s-.5625.3823-.9219.3823h-2.3857c-.3594,0-.668.1343-.9219.4014-.2559.2681-.3828.5654-.3828.8916v2.4092c0,.3267.127.624.3828.8916.2539.2676.5625.4014.9219.4014h2.3857c.3594,0,.667.1279.9219.3838s.3828.5493.3828.8794v12.4575c0,.3613.127.6699.3828.9258.2539.2563.5625.3833.9219.3833h2.3848c.3604,0,.668.1279.9229.3828s.3828.5625.3828.9224v2.3848c0,.3604.1348.668.4043.9229.2705.2549.5703.3823.9004.3823h7.4248c.3301,0,.6221-.1274.8779-.3823.2539-.2549.3828-.5625.3828-.9229v-2.3848c0-.3599-.1289-.6675-.3828-.9224-.2559-.2549-.5479-.3828-.8779-.3828h-7.4248c-.3301,0-.6299-.127-.9004-.3833-.2695-.2559-.4043-.5645-.4043-.9258v-12.4575c0-.3301.1348-.6235.4043-.8794.2705-.2559.5703-.3838.9004-.3838h7.4248c.3301,0,.6221-.1338.8779-.4014.2539-.2676.3828-.5649.3828-.8916v-2.4092c0-.3262-.1289-.6235-.3828-.8916-.2559-.2671-.5479-.4014-.8779-.4014Z" style="fill:#14231e;"/><path d="M368.4279,15.2426c.2705-.2573.5703-.3857.9004-.3857h12.4199c.3301,0,.6299-.1338.9004-.4014.2695-.2676.4043-.5649.4043-.8916v-2.4092c0-.3262-.1348-.6235-.4043-.8916-.2705-.2671-.5703-.4014-.9004-.4014h-12.4199c-.3301,0-.6299.1343-.9004.4014-.2695.2681-.4043.5654-.4043.8916v2.4092c0,.3267-.1279.624-.3828.8916s-.5625.4014-.9229.4014h-2.3848c-.3594,0-.668.1284-.9219.3857-.2559.2573-.3828.5527-.3828.8853v2.4521c0,.333.127.6362.3828.9082.2539.2729.5625.4087.9219.4087h2.3848c.3604,0,.668.1279.9229.3823.2549.2554.3828.5625.3828.9224v2.3853c0,.3306.1348.6299.4062.8999s.5723.4048.9043.4048h7.459c.3311,0,.625.1284.8809.3828.2559.2554.3848.5625.3848.9224v2.3853c0,.3599-.1279.668-.3848.9224-.2559.2554-.5488.3823-.8789.3823h-12.457c-.3623,0-.6709.1279-.9268.3828s-.3828.5625-.3828.9224v2.3848c0,.3604.127.668.3828.9229s.5645.3823.9268.3823h12.457c.3301,0,.623-.1274.8789-.3823.2568-.2549.3848-.5625.3848-.9229v-2.3848c0-.3599.1328-.6675.4014-.9224.2666-.2549.5645-.3828.8916-.3828h2.4082c.3262,0,.624-.127.8916-.3823.2676-.2544.4014-.5625.4014-.9224v-2.3853c0-.3599-.1338-.667-.4014-.9224-.2676-.2544-.5654-.3828-.8916-.3828h-2.4082c-.3271,0-.625-.1348-.8916-.4048-.2686-.27-.4014-.5693-.4014-.8999v-2.3853c0-.3599-.1289-.667-.3848-.9224-.2559-.2544-.5498-.3823-.8809-.3823h-7.459c-.332,0-.6328-.1357-.9043-.4087-.2715-.272-.4062-.5752-.4062-.9082v-2.4521c0-.3325.1348-.6279.4043-.8853Z" style="fill:#14231e;"/><path d="M356.4932,14.8569h-2.4297c-.3311,0-.623-.1338-.8779-.4014s-.3828-.5649-.3828-.8916v-2.4092c0-.3262-.1348-.6235-.4043-.8916-.2705-.2671-.5703-.4014-.9004-.4014h-17.415c-.3594,0-.668.1353-.9219.4048-.2559.27-.3828.5703-.3828.9004v22.4097c0,.3604.127.668.3828.9229.2539.2549.5625.3823.9219.3823h2.3848c.3604,0,.668-.1274.9229-.3833.2549-.2554.3828-.563.3828-.9243v-17.4546c0-.3306.1348-.6235.4043-.8794.2705-.2554.5703-.3833.9004-.3833h12.4199c.3301,0,.6299.1279.9004.3833.2695.2559.4043.5488.4043.8794v17.4546c0,.3613.1279.6689.3828.9243.2549.2559.5469.3833.8779.3833h2.4297c.3301,0,.6299-.1274.9004-.3833.2695-.2554.4043-.563.4043-.9243v-17.4546c0-.3306-.1348-.6235-.4043-.8794-.2705-.2554-.5703-.3833-.9004-.3833Z" style="fill:#14231e;"/><path d="M262.5298,25.0287h-2.7629c-.4924,0-.9419.2811-1.1539.7255-.168.3521-.3624.7407-.4916.938-.5366.8197-1.2211,1.5187-2.0472,2.0889-1.3301.918-2.8877,1.3838-4.6289,1.3838-1.4893,0-2.8545-.3452-4.0566-1.0264-1.2031-.6797-2.166-1.6504-2.8623-2.8857-.6963-1.2344-1.0488-2.6157-1.0488-4.105s.3525-2.8701,1.0488-4.1045c.6953-1.2339,1.6582-2.2046,2.8623-2.8857,1.2031-.6812,2.5684-1.0264,4.0566-1.0264,1.7412,0,3.2988.4658,4.6289,1.3838.855.5904,1.5582,1.3188,2.1028,2.1757.1068.168.2799.5182.4352.8461.2115.4469.6619.7307,1.1562.7307h2.7444c.8689,0,1.4863-.8498,1.2188-1.6765-.0745-.2303-.1467-.4376-.2075-.584-.441-1.0609-1.0245-2.0488-1.7457-2.9529-1.1992-1.5024-2.707-2.686-4.4805-3.5171-1.7754-.8311-3.7451-1.2524-5.8525-1.2524-2.4287,0-4.6729.5674-6.6719,1.686-1.999,1.1201-3.5879,2.6768-4.7207,4.6255-1.1348,1.9492-1.7109,4.1538-1.7109,6.5518s.5762,4.6035,1.7109,6.5522c1.1338,1.9502,2.7217,3.5063,4.7207,4.6255,1.999,1.1187,4.2432,1.686,6.6719,1.686,2.1074,0,4.0771-.4214,5.8525-1.2524,1.7744-.8311,3.2812-2.0146,4.4805-3.5171.8322-1.043,1.4814-2.1983,1.9399-3.4496.0072-.0196.0146-.0406.0223-.0627.2872-.8304-.332-1.701-1.2107-1.701Z" style="fill:#14231e;"/><path d="M321.322,10.9706c-2-1.1187-4.2607-1.686-6.7197-1.686-2.4287,0-4.6729.5674-6.6719,1.686-1.999,1.1201-3.5879,2.6768-4.7207,4.6255-1.1348,1.9492-1.7109,4.1538-1.7109,6.5518s.5762,4.6035,1.7109,6.5522c1.1338,1.9502,2.7217,3.5063,4.7207,4.6255,1.999,1.1187,4.2432,1.686,6.6719,1.686,2.459,0,4.7197-.5674,6.7197-1.686,1.9971-1.1187,3.5859-2.6753,4.7217-4.6255,1.1348-1.9512,1.71-4.1558,1.71-6.5522s-.5752-4.6001-1.71-6.5518c-1.1357-1.9492-2.7236-3.5054-4.7217-4.6255ZM321.5691,26.2284c-.6973,1.2197-1.668,2.1909-2.8867,2.8867-1.2187.6963-2.5908,1.0498-4.0801,1.0498-1.4883,0-2.8535-.3535-4.0566-1.0498-1.2031-.6963-2.166-1.6675-2.8623-2.8867-.6963-1.2178-1.0488-2.5908-1.0488-4.0806,0-1.4888.3525-2.8618,1.0488-4.0806.6963-1.2188,1.6592-2.1899,2.8623-2.8862,1.2041-.6963,2.5684-1.0498,4.0566-1.0498,1.5186,0,2.8994.3535,4.1045,1.0498,1.2021.6963,2.165,1.6675,2.8623,2.8862.6963,1.2202,1.0498,2.5928,1.0498,4.0806,0,1.4888-.3535,2.8613-1.0498,4.0806Z" style="fill:#14231e;"/><path d="M293.6183.4852c-.9053,0-1.6758.3115-2.2891.9258-.6152.6143-.9268,1.3843-.9268,2.2896,0,.9058.3115,1.6758.9268,2.2896.6133.6143,1.3838.9258,2.2891.9258s1.6758-.3115,2.2891-.9258c.6152-.6147.9268-1.3848.9268-2.2896,0-.9043-.3115-1.6743-.9268-2.2896-.6133-.6143-1.3838-.9258-2.2891-.9258Z" style="fill:#14231e;"/><path d="M294.8094,9.8607h-2.3833c-.3591,0-.6677.1352-.9214.405-.2556.2699-.3826.57-.3826.8994v21.918c0,.3294.1279.6295.3826.8994.2546.2698.5623.405.9224.405h2.3833c.3591,0,.6677-.1352.9214-.405.2556-.2699.3826-.57.3826-.8994V11.1652c0-.3294-.1279-.6295-.3826-.8994-.2546-.2698-.5623-.405-.9224-.405Z" style="fill:#14231e;"/><path d="M233.4678,15.2403c-.2539-.2563-.5625-.3833-.9219-.3833h-2.3848c-.3604,0-.668-.1279-.9229-.3828s-.3828-.5625-.3828-.9224v-2.3848c0-.3604-.1348-.668-.4043-.9229-.2705-.2549-.5703-.3823-.9004-.3823h-.2671s-11.8857-.0001-11.8857-.0001h-.2671c-.3594,0-.668.1343-.9219.4014-.2559.2681-.3828.5654-.3828.8916v2.4092c0,.3267.127.624.3828.8916.2539.2676.5625.4014.9219.4014h8.752s3.668.0001,3.668.0001c.3301,0,.6299.127.9004.3833.2695.2559.4043.5645.4043.9258v2.4244c0,.3301-.1279.6226-.3828.8774s-.5625.3823-.9219.3823h-2.3857v.0017h-10.0342c-.3301,0-.6299.1343-.9004.4014-.2695.2681-.4043.5654-.4043.8916v2.4092c0,.3267-.1279.624-.3828.8916s-.5625.4014-.9229.4014h-2.3848c-.3594,0-.668.1279-.9219.3838-.2559.2559-.3828.5493-.3828.8794v2.4672c0,.3613.127.6699.3828.9258.2539.2563.5625.3833.9219.3833h2.3848c.3604,0,.668.1279.9229.3828s.3828.5625.3828.9224v2.3848c0,.3604.1348.668.4043.9229.2705.2549.5703.3823.9004.3823h.2671s17.1479.0001,17.1479.0001c.3301,0,.6299-.1274.9004-.3823.1348-.1274.2358-.2681.3032-.4219s.1011-.3209.1011-.501v-17.4224h-.0024c-.0029-.3558-.1277-.661-.3804-.9138ZM228.8555,28.5776c0,.1807-.0337.3481-.1011.5024s-.1685.2953-.3032.4233c-.2705.2563-.5703.3833-.9004.3833h-12.4199c-.3301,0-.6299-.127-.9004-.3833-.2695-.2559-.4043-.5645-.4043-.9258v-2.4672c0-.3301.1348-.6235.4043-.8794.2705-.2559.5703-.3838.9004-.3838h12.4199c.3301,0,.6299.1279.9004.3838.2695.2558.4043.5493.4043.8791v2.4676Z" style="fill:#14231e;"/><path d="M80.6699,9.3592h-7.3779c-.3301,0-.6299.1353-.9004.4048-.2695.27-.4043.5703-.4043.9004v2.4297c0,.3306-.1279.6304-.3828.9004-.2549.2695-.5625.3749-.9229.3749l-2.3754-.0003c-.3604,0-.668-.0903-.9229-.3599-.2549-.27-.3828-.5698-.3828-.9004v-2.4297c0-.3301-.1348-.6304-.4043-.9004-.2705-.2695-.5703-.4048-.9004-.4048h-2.3876c-.3613,0-.6689.1279-.9243.3828-.2559.2549-.3833.5625-.3833.9229v2.3848c0,.3594.1274.668.3823.9219.2549.2559.5625.3828.9229.3828h2.39c.3301,0,.6299.1279.9004.3838.2617.2484.3909.5338.3984.8522-.0001.0044-.0026.0081-.0026.0125v12.5183c-.0049.3222-.1292.6094-.3792.8593-.2549.2549-.5625.3823-.9219.3823h-2.3857c-.3594,0-.668.1343-.9219.4014-.2559.2681-.3828.5654-.3828.8916v2.4092c0,.3267.127.624.3828.8916.2539.2676.5625.4014.9219.4014h4.9565c.0125.0003.0225.0067.0349.0067h2.3848c.0125,0,.0225-.0063.0349-.0067h5.0088c.3301,0,.6221-.1338.8779-.4014.2539-.2676.3828-.5649.3828-.8916v-2.4092c0-.3262-.1289-.6235-.3828-.8916-.2559-.2671-.5479-.4014-.8779-.4014h-2.4297c-.3301,0-.6299-.1274-.9004-.3823-.2695-.2549-.4043-.5474-.4043-.8774v-2.4302c0-.0064-.0035-.012-.0037-.0184v-9.4302h.0084v-.6067c0-.0098-.0054-.0179-.0056-.0276.0037-.3245.1356-.6142.4015-.8665.2705-.2559.5703-.3838.9004-.3838h7.3804c.3604,0,.668-.127.9229-.3828.2549-.2539.3823-.5625.3823-.9219v-2.3848c0-.3604-.1274-.668-.3833-.9229-.2554-.2549-.563-.3828-.9243-.3828Z" style="fill:#14231e;"/><path d="M37.5723,7.4927h-3.6445c-.4958,0-.9456-.1919-1.3506-.5742-.4043-.3823-.5623-.8438-.5623-1.3843V1.957c0-.5391-.1694-1.002-.5532-1.3828-.3838-.3838-.824-.5742-1.3191-.5742H1.9578C1.4172,0,.9558.1904.5735.5742c-.3823.3809-.5735.8438-.5735,1.3828v28.0978c0,.4951.2029.9448.6072,1.3506.405.4043.8555.6064,1.3506.6064h3.6445c.4958,0,.9456.1919,1.3506.5742.4043.3823.5625.8438.5625,1.3843v3.5771c0,.5391.1692,1.002.553,1.3828.3838.3838.824.5742,1.3191.5742h28.1848c.5405,0,1.002-.1904,1.3843-.5742.3823-.3809.5735-.8438.5735-1.3828V9.4497c0-.4951-.2029-.9448-.6072-1.3506-.405-.4043-.8555-.6064-1.3506-.6064ZM8.0684,31.4055c-.3838-.4058-.5757-.8555-.5757-1.3506V7.4927h22.6499c.4951,0,.9353.2021,1.3191.6064.3838.4058.5757.8555.5757,1.3506v22.5622H9.3875c-.4951,0-.9353-.2021-1.3191-.6064Z" style="fill:#14231e;"/></g></g></svg>