<svg width="163" height="33" viewBox="0 0 163 33" fill="none" xmlns="http://www.w3.org/2000/svg">
<g clip-path="url(#clip0_1840_12348)">
<path d="M13.6168 16.0031H9.75258L12.4755 8.00267H19.0628L21.7874 0.00390625H9.53239C7.77423 0.00390625 6.21273 1.10497 5.65638 2.73929L0.210455 18.7385C-0.204713 19.958 0.00371155 21.2994 0.771856 22.3428C1.54 23.3863 2.77206 24.0035 4.08647 24.0035H13.6185L16.3415 16.0031H13.6185H13.6168Z" fill="#3DDC91"/>
<path d="M31.9091 9.66456C31.141 8.6211 29.9089 8.00391 28.5945 8.00391H19.0624L16.3395 16.0043H22.9267L20.2037 24.0047H13.6165L10.8936 32.0051H23.1486C24.9067 32.0051 26.4682 30.9041 27.0246 29.2698L32.4705 13.2706C32.8857 12.051 32.6772 10.7097 31.9091 9.6662V9.66456Z" fill="#3DDC91"/>
<path d="M48.1763 26.2634C44.233 26.2634 41.5286 24.3871 41.5286 20.1952H44.628C44.628 22.7873 45.7273 23.5049 48.178 23.5049H48.3477C50.6858 23.5049 51.7565 22.8153 51.7565 20.9391C51.7565 18.732 49.0806 18.2366 47.0232 17.547C43.6985 16.4443 41.8395 14.9811 41.8681 11.9742C41.9252 8.63644 44.4885 6.89844 47.8115 6.89844H47.9796C51.7834 6.89844 54.4021 8.77469 54.4021 12.9946H51.3026C51.3026 10.3744 50.2891 9.65686 47.9779 9.65686H47.8099C45.9794 9.65686 45.0213 10.3744 45.0213 11.9742C45.0213 13.8768 46.7123 14.4561 48.6267 15.0355C52.1481 16.1118 54.8526 17.4351 54.8526 20.9391C54.8526 24.4431 52.2053 26.2634 48.3444 26.2634H48.1746H48.1763Z" fill="#132322"/>
<path d="M68.6001 23.2848H70.6844L69.765 25.9872H65.8402L65.615 24.1669H65.2771C64.6569 25.4902 63.4467 26.2637 61.4734 26.2637H61.3608C58.6849 26.2637 56.9385 24.6919 56.9385 22.3746V22.2364C56.9385 19.947 58.5723 18.706 61.8684 18.3472L65.615 17.9062V17.5194C65.615 15.3683 64.6855 14.6227 63.2198 14.6227H63.1072C61.7827 14.6227 60.712 15.1198 60.5725 16.9944H57.4175C57.7554 13.464 60.122 11.8906 63.2215 11.8906H63.3341C66.6588 11.8906 68.6018 13.7389 68.6018 17.4898V23.2831L68.6001 23.2848ZM61.9524 23.6715C64.7124 23.6715 65.615 22.182 65.615 20.1675V20.1116L62.3474 20.4984C60.4598 20.7189 59.8968 21.2982 59.8968 22.1541V22.2643C59.8968 23.1465 60.601 23.6715 61.8398 23.6715H61.9524Z" fill="#132322"/>
<path d="M83.3058 12.168V25.9881H80.2064V23.9736H79.8971C79.2214 25.3807 78.0095 26.2629 76.2631 26.2629H76.1505C73.5301 26.2629 71.8123 24.3603 71.8123 20.9666V12.168H74.9386V20.7461C74.9386 22.6223 75.7841 23.4222 77.1355 23.4222H77.2481C79.1911 23.4222 80.2064 22.1253 80.2064 20.0844V12.168H83.3058Z" fill="#132322"/>
<path d="M91.6463 26.2621C88.2089 26.2621 85.8154 24.1653 85.8154 19.9733V18.2073C85.8154 14.0138 88.2106 11.8906 91.6463 11.8906H91.7017C94.8567 11.8906 97.2233 13.7389 97.3645 17.1869H94.3222C94.2667 15.5312 93.3355 14.6211 91.6748 14.6211H91.6194C89.7318 14.6211 88.8594 15.6415 88.8594 18.2073V19.9733C88.8594 22.5112 89.7335 23.5596 91.6194 23.5596H91.6748C93.3372 23.5596 94.2667 22.6215 94.3222 20.9937H97.3645C97.2233 24.4418 94.8567 26.2621 91.7017 26.2621H91.6463Z" fill="#132322"/>
<path d="M111.169 19.891H102.267V19.9733C102.267 22.7038 103.113 23.6419 105.197 23.6419H105.367C106.775 23.6419 107.676 23.1185 107.93 21.8216H111.03C110.579 24.6623 108.382 26.2621 105.451 26.2621H105.197C101.647 26.2621 99.2805 24.1653 99.2805 19.9733V18.2073C99.2805 14.0138 101.619 11.8906 105.14 11.8906H105.308C108.801 11.8906 111.167 14.0154 111.167 18.2073V19.8894L111.169 19.891ZM105.14 14.5404C103.224 14.5404 102.38 15.3403 102.266 17.7399H108.182C108.07 15.3403 107.196 14.5404 105.308 14.5404H105.14Z" fill="#132322"/>
<path d="M115.648 24.412H124.1V25.9838H113.931V7.17188H115.648V24.412Z" fill="#132322"/>
<path d="M136.044 24.4415H138.157L137.631 25.9869H134.494L134.353 23.8358H134.044C133.368 25.2973 131.847 26.2634 129.536 26.2634H129.423C127.648 26.2634 125.198 25.3812 125.198 22.7874V22.6212C125.198 20.2759 127.141 19.3114 130.269 18.9246L134.353 18.3733V17.5174C134.353 15.2824 133.395 13.9032 131.114 13.9032H131.001C128.719 13.9032 127.705 15.0339 127.593 16.9101H125.762C125.93 14.1797 127.818 12.3594 131.059 12.3594H131.114C134.551 12.3594 136.044 14.3722 136.044 17.6277V24.4415ZM129.734 24.718C132.101 24.718 134.355 23.8078 134.355 19.9187V19.8364L130.524 20.3335C128.045 20.6922 126.919 21.2996 126.919 22.5948V22.7611C126.919 23.974 127.932 24.7196 129.623 24.7196H129.736L129.734 24.718Z" fill="#132322"/>
<path d="M145.764 26.2618C143.876 26.2618 142.384 25.2694 141.708 23.7519H141.426V25.987H139.708V6.125H141.454V14.8414H141.708C142.412 13.3239 143.905 12.3594 145.764 12.3594H145.877C148.411 12.3594 150.469 14.2077 150.469 18.6482V19.9451C150.469 24.3592 148.385 26.2618 145.905 26.2618H145.764ZM145.398 24.69C147.341 24.69 148.722 23.5034 148.722 20.029V18.5675C148.722 15.0915 147.342 13.9328 145.398 13.9328H145.285C143.369 13.9328 141.454 15.0915 141.454 18.5939V20.029C141.454 23.533 143.371 24.69 145.285 24.69H145.398Z" fill="#132322"/>
<path d="M157.596 26.2618C154.357 26.2618 152.383 24.5238 152.383 21.7933H154.101C154.101 23.5033 155.143 24.7443 157.594 24.7443H157.762C160.129 24.7443 161.001 23.7782 161.001 22.4829C161.001 20.8009 159.31 20.4141 157.564 19.945C154.888 19.1995 152.775 18.5378 152.775 15.9457C152.775 13.8209 154.578 12.3594 157.31 12.3594H157.48C160.268 12.3594 162.297 14.0151 162.297 16.6896H160.606C160.606 15.0618 159.592 13.8752 157.48 13.8752H157.31C155.422 13.8752 154.436 14.731 154.436 15.944C154.436 17.5158 156.014 17.9026 157.732 18.3716C160.492 19.1172 162.662 19.7228 162.662 22.5092C162.662 24.8546 160.633 26.2601 157.76 26.2601H157.592L157.596 26.2618Z" fill="#132322"/>
</g>
<defs>
<clipPath id="clip0_1840_12348">
<rect width="162.667" height="32" fill="white" transform="translate(0 0.00390625)"/>
</clipPath>
</defs>
</svg>
