<svg xmlns="http://www.w3.org/2000/svg" width="162.465" height="44.55" viewBox="0 0 162.465 44.55"><g transform="translate(-128.25 -166.488)"><path d="M159.964,191.019v26.123c0,4.221.518,8.373,5.812,6.578s8.315-3.436,10.166-4.092c1.794-.636,2.769-.955,2.833-4.958-4.343.995-6.99,1.7-11.274,2.657-3.918.879-5.01-.469-5.01-4.968,0-8.708-.134-12.069-.134-20.777,0-4.356,1.543-3.634,4.4-3.251,3.407.456,8.268,1.133,11.7,1.6.016-2.285-3.3-2.408-4.5-2.593-3.176-.49-6.192-1.274-7.811-1.548C163.01,185.254,159.964,184.659,159.964,191.019Z" transform="translate(-21.896 -13.111)" fill="#fff" fill-rule="evenodd"/><path d="M158.746,171.61c-.407-.709-1.4-1.721-3.832-2.156-3.924-.7-10.495-2.5-12.586-2.906s-6.654,1.118-5.021,9.091c1.559,7.609,4.4,23.023,4.66,24.415V176.772c0-6.914,3.053-7.652,7.394-6.919,3.3.557,5.974,1.281,9.385,1.757" transform="translate(-6.014)" fill="#fff" fill-rule="evenodd" opacity="0.8"/><path d="M130.947,215.1s-4.064,1.43-2.213,6.4,7.117,18.4,7.117,18.4Z" transform="translate(0 -33.56)" fill="#fff" fill-rule="evenodd" opacity="0.6"/><path d="M284.663,203.9c1.331-.008,2.663,0,3.993,0,0,1.259,0,2.519,0,3.778-1.332,0-2.664,0-4,0Q284.662,205.786,284.663,203.9Zm6.279,13.894a9.07,9.07,0,0,0,.658,3.8,5.759,5.759,0,0,0,2,2.361,8.2,8.2,0,0,0,3.519,1.245,21.578,21.578,0,0,0,2.177.068c.984-.021,1.965.056,2.947-.007a12.414,12.414,0,0,0,5.2-.763c.191-.087.383-.175.573-.267a6.486,6.486,0,0,0,3.419-5.124,12.044,12.044,0,0,0-.076-3.7c-.1-.371-.189-.743-.3-1.109-.042-.1-.081-.194-.121-.291-.107-.262-.229-.518-.362-.767a6.272,6.272,0,0,0-1.113-1.42,7.72,7.72,0,0,0-4.085-1.911c-.6-.105-1.2-.117-1.8-.188-2.864-.017-5.727,0-8.591-.008q0-2.908,0-5.818c-1.346,0-2.692-.008-4.038.008Zm11.585-5.085a6.468,6.468,0,0,1,3.021.649,3.927,3.927,0,0,1,1.984,3.114,6.7,6.7,0,0,1-.382,3.5,3.771,3.771,0,0,1-1.416,1.605c-.207.112-.42.213-.63.315a6.4,6.4,0,0,1-2.483.424c-1.584-.016-3.171.044-4.752-.04a3.271,3.271,0,0,1-2.37-1.723,6.021,6.021,0,0,1-.379-1.126,6.07,6.07,0,0,0-.107-.773c-.073-1.979-.013-3.963-.033-5.944Q298.754,212.707,302.527,212.708ZM188.843,219.78c0,.4.017.8.028,1.207l.047-.024a5.958,5.958,0,0,0,.338,1.768,3.509,3.509,0,0,0,.816,1.195,4.942,4.942,0,0,0,2.431,1.088c.472.078.949.116,1.423.186,1.235.063,2.471.065,3.708.061h.71c0-.926,0-1.851,0-2.775a24.539,24.539,0,0,1-3.47-.12,2.588,2.588,0,0,1-1.373-.628,2.184,2.184,0,0,1-.454-.7,5.8,5.8,0,0,1-.183-1.445c0-2.348,0-4.7,0-7.042,1.95,0,3.9,0,5.85,0,0-.943,0-1.886,0-2.828-1.95,0-3.9,0-5.849,0,0-1.836,0-3.672,0-5.508q-2.007,0-4.014,0Q188.836,211.992,188.843,219.78Zm51.549-1.422c.009.89-.026,1.782.041,2.669a9.2,9.2,0,0,0,.374,1.706,3.448,3.448,0,0,0,1.74,1.817c.337.144.689.253,1.037.367l.388.067c.5.12,1.006.136,1.508.215.981.051,1.963.046,2.944.091.489-.077.981.037,1.469-.031,0-.926,0-1.851,0-2.775a17.78,17.78,0,0,1-3.938-.221,2.1,2.1,0,0,1-1.332-1.152,5.541,5.541,0,0,1-.211-1.606c0-2.32,0-4.64,0-6.96,1.95,0,3.9,0,5.851,0,0-.943,0-1.886,0-2.828-1.95,0-3.9,0-5.849,0,0-1.836,0-3.672,0-5.508q-2.007,0-4.014,0Q240.385,211.28,240.392,218.358Zm-39.322-6.2a8.44,8.44,0,0,0-1.1,3.823c-.037.987-.042,1.974,0,2.96.073.467.115.938.2,1.4a8.777,8.777,0,0,0,.562,1.729,6.431,6.431,0,0,0,.526.888,5.253,5.253,0,0,0,2.986,1.96c.5.12,1.014.2,1.524.281.63.039,1.261.065,1.893.063.189,0,.381,0,.571,0a19.013,19.013,0,0,0,2.079,0,4.679,4.679,0,0,1,.671.045c.722-.073,1.45-.03,2.174-.042a9.935,9.935,0,0,0,1.56-.009l.011.046c.456-.061.914.035,1.372-.035.664.012,1.326.027,1.99,0l.337.041c.065-.574-.03-1.156.063-1.727-.008-.192-.027-.382-.047-.571.017-.177.036-.354.052-.53-3.563-.026-7.127,0-10.691-.013a9.955,9.955,0,0,1-1.571-.2,4.143,4.143,0,0,1-1.117-.5,2.935,2.935,0,0,1-1.042-1.6,4.574,4.574,0,0,1-.193-1.152h10.7a13.87,13.87,0,0,0,1.522-.046,5.184,5.184,0,0,0,1.275-.469,3.382,3.382,0,0,0,1.5-1.719,7.669,7.669,0,0,0,.273-3.344,4.834,4.834,0,0,0-.735-1.815,4.367,4.367,0,0,0-2.7-1.685c-.5-.114-1.008-.132-1.512-.2q-3.694-.017-7.388,0a12.477,12.477,0,0,0-3.408.589A4.871,4.871,0,0,0,201.07,212.153Zm12.295.3a2.194,2.194,0,0,1,1.717.67,2.858,2.858,0,0,1,.308,2.021,1.412,1.412,0,0,1-.97,1.158,5.631,5.631,0,0,1-.879.116q-4.854,0-9.708,0a5.171,5.171,0,0,1,.965-3.009,3.984,3.984,0,0,1,2.785-.946C209.51,212.441,211.437,212.457,213.365,212.453Zm9.279-2.151a3.526,3.526,0,0,0-1.919,2.363,6.588,6.588,0,0,0,.107,3.289,3.916,3.916,0,0,0,1.8,2.24,6.691,6.691,0,0,0,2.467.656c2.594.035,5.188,0,7.782.019a5.7,5.7,0,0,1,.96.137,1.593,1.593,0,0,1,.939.876,4.184,4.184,0,0,1,0,1.5,1.678,1.678,0,0,1-.536.7,2.866,2.866,0,0,1-1.468.339h-7.293c-1.5.014-3-.03-4.5.023q0,1.406,0,2.813c.331.006.662,0,.993.008a14.061,14.061,0,0,0,1.8,0c.532.075,1.067-.059,1.6.02.631-.051,1.266-.013,1.9-.025.787,0,1.576,0,2.364,0,.224,0,.448,0,.673,0,.912.069,1.823-.016,2.737,0a14.79,14.79,0,0,0,2.082-.093,6.711,6.711,0,0,0,1.233-.285,3.536,3.536,0,0,0,1.5-.961,3.769,3.769,0,0,0,.811-2.049,8.271,8.271,0,0,0-.231-3.118c-.073-.2-.153-.4-.235-.6a3.744,3.744,0,0,0-2.408-1.879,8.047,8.047,0,0,0-1.99-.222q-3.312,0-6.625,0a8.886,8.886,0,0,1-1.331-.054,1.665,1.665,0,0,1-1.327-.761l-.122-.371a2.489,2.489,0,0,1,.219-1.626,1.779,1.779,0,0,1,1.422-.645,3.634,3.634,0,0,1,.652-.051q5.708,0,11.417,0c0-.943,0-1.886,0-2.828H226.337a13.212,13.212,0,0,0-2.468.191A7.941,7.941,0,0,0,222.643,210.3Zm32.511.127q-.286.13-.563.274a5.51,5.51,0,0,0-2.353,2.635,8.915,8.915,0,0,0-.525,1.7,12.913,12.913,0,0,0-.155,1.337,12.633,12.633,0,0,0,.358,4.372,8.026,8.026,0,0,0,.641,1.515,5.707,5.707,0,0,0,2.693,2.352,10.421,10.421,0,0,0,2.348.586c.386.024.773.047,1.161.056a5.235,5.235,0,0,0,.558.04q3.93,0,7.862,0a9.86,9.86,0,0,0,1.45-.05c0-.986,0-1.972,0-2.958-3.141-.019-6.282.007-9.423-.013a6.463,6.463,0,0,1-1.684-.4,3.025,3.025,0,0,1-1.668-1.757,8.661,8.661,0,0,1-.326-3.93,4.614,4.614,0,0,1,.756-2.092,3.23,3.23,0,0,1,1.71-1.142,11.9,11.9,0,0,1,3.12-.219c2.5,0,5.009.008,7.513-.006,0-.99,0-1.979,0-2.97a6.038,6.038,0,0,0-1.071-.044h-8.621a3.121,3.121,0,0,0-.473.037,10.03,10.03,0,0,0-3.025.553Zm19.213-.154a6.41,6.41,0,0,0-2.121,1.308,5.07,5.07,0,0,0-1.068,1.57,9.506,9.506,0,0,0-.416,1.318c-.027.161-.047.323-.069.484a12.22,12.22,0,0,0-.115,1.511c0,2.685,0,5.37,0,8.056a5.591,5.591,0,0,0,.038.778c.336-.048.677.01,1.014-.037.419,0,.839-.009,1.258,0,.576.068,1.153-.032,1.731-.007.017-3.216-.036-6.434.029-9.65a6.555,6.555,0,0,1,.324-1.228,3,3,0,0,1,.7-.994,3.5,3.5,0,0,1,2.124-.791,6.4,6.4,0,0,1,1.135-.051c1.274,0,2.547,0,3.822,0,0-.942,0-1.884,0-2.826-.864,0-1.728,0-2.592,0a25.308,25.308,0,0,0-4.533.208A12.509,12.509,0,0,0,274.368,210.275Zm42.385.034A4.847,4.847,0,0,0,314,212.868c-.117.274-.213.555-.305.838-.063.257-.132.512-.188.77-.092.5-.133,1-.206,1.5-.037.987-.043,1.975,0,2.961.072.467.115.938.2,1.4.036.156.073.315.12.471a7.2,7.2,0,0,0,.443,1.258,5.058,5.058,0,0,0,2.466,2.476c.343.144.7.262,1.053.373.5.118,1.008.2,1.516.279.632.042,1.266.06,1.9.068a2.36,2.36,0,0,0,.749,0c.663-.007,1.329,0,1.994,0,.855,0,1.711,0,2.567,0l.366.044c.663-.113,1.333.038,2-.046.982.046,1.966-.012,2.949,0l.148.056c.012-.484.006-.968.007-1.452,0-.127,0-.254.007-.381,0-.34-.006-.68,0-1.019H322.9a14.921,14.921,0,0,1-2.926-.14l-.4-.059a3.749,3.749,0,0,1-1.271-.626,3.1,3.1,0,0,1-.892-1.49,4.681,4.681,0,0,1-.19-1.147H326.5c.979-.017,1.961.041,2.937-.046a7.561,7.561,0,0,0,1.147-.389,3.5,3.5,0,0,0,1.63-1.8,7.687,7.687,0,0,0,.274-3.348,4.17,4.17,0,0,0-3.425-3.495c-.5-.116-1.014-.134-1.52-.2-1.3-.014-2.593,0-3.888-.007a26.154,26.154,0,0,0-6.266.4C317.176,210.175,316.963,210.239,316.753,210.309Zm5.959,2.143H326.5a2.455,2.455,0,0,1,1.835.573,2.178,2.178,0,0,1,.461,1.171,2.875,2.875,0,0,1-.319,1.593,1.97,1.97,0,0,1-1.586.628q-4.861,0-9.72,0a5.97,5.97,0,0,1,.72-2.7,2.638,2.638,0,0,1,1.79-1.1A14.832,14.832,0,0,1,322.712,212.452Zm-38.05,12.8c.456.007.913,0,1.37,0a7.107,7.107,0,0,0,1.231,0c.458-.024.914.025,1.372.034.055-1.868.007-3.74.024-5.61v-9.734c-1.332,0-2.665,0-4,0Q284.664,217.606,284.662,225.257Z" transform="translate(-41.834 -25.826)" fill="#fff"/></g></svg>