<?xml version="1.0" encoding="UTF-8"?>
<svg version="1.1" xmlns="http://www.w3.org/2000/svg" width="498" height="137">
<path d="M0 0 C2.18323243 0.40361041 4.36898705 0.79098842 6.55517578 1.17822266 C7.95509797 1.43634887 9.35484466 1.6954291 10.75439453 1.95556641 C12.63843994 2.29950439 12.63843994 2.29950439 14.56054688 2.65039062 C17.71998332 3.50598186 19.46929909 4.25539341 21.79345703 6.52587891 C22.54345703 9.21337891 22.54345703 9.21337891 22.79345703 11.52587891 C3.48603567 9.71640971 3.48603567 9.71640971 -4.14404297 8.40087891 C-10.51409246 7.34196159 -16.7646391 7.33610105 -23.20654297 7.52587891 C-24.64758294 10.40795884 -24.34979295 12.9069947 -24.36767578 16.12768555 C-24.37264069 16.80602448 -24.37760559 17.4843634 -24.38272095 18.18325806 C-24.39735855 20.43419403 -24.40414996 22.68505934 -24.40966797 24.93603516 C-24.41542158 26.50345359 -24.42117928 28.070872 -24.42694092 29.63829041 C-24.43745781 32.93114551 -24.44329482 36.22397616 -24.44677734 39.5168457 C-24.45223965 43.71756363 -24.47621575 47.91795374 -24.5047493 52.11856937 C-24.52346827 55.36070157 -24.52858635 58.60275663 -24.53011322 61.84493828 C-24.53312342 63.39215306 -24.54109626 64.93936701 -24.5542984 66.4865284 C-24.61906903 74.66623806 -24.52038332 81.91548399 -21.20654297 89.52587891 C-19.65699118 91.0754307 -18.23169271 90.75195309 -16.06982422 90.80712891 C-8.93340792 90.73600605 -2.26037287 88.82131499 4.60595703 87.02587891 C7.17315321 86.36204214 9.74244729 85.70806693 12.31298828 85.05712891 C14.00065308 84.61723633 14.00065308 84.61723633 15.72241211 84.16845703 C18.52690822 83.58165094 20.94206051 83.39562049 23.79345703 83.52587891 C23.70519788 84.92280829 23.59700869 86.31848343 23.48095703 87.71337891 C23.39394531 88.87933594 23.39394531 88.87933594 23.30517578 90.06884766 C22.66514519 93.14197164 21.69990515 95.02677408 19.79345703 97.52587891 C17.29736328 98.93212891 17.29736328 98.93212891 14.35595703 100.02587891 C13.28216797 100.43837891 12.20837891 100.85087891 11.10205078 101.27587891 C10.01021484 101.68837891 8.91837891 102.10087891 7.79345703 102.52587891 C5.8323616 103.35269121 3.87396218 104.18593039 1.91845703 105.02587891 C-19.05521249 113.69609662 -19.05521249 113.69609662 -26.20654297 112.52587891 C-29.78029446 110.58362266 -30.93015089 109.28510183 -32.32218933 105.46130371 C-33.48905924 101.02520152 -33.49446782 96.68490488 -33.48120117 92.12158203 C-33.4863121 91.20521469 -33.49142303 90.28884735 -33.49668884 89.3447113 C-33.51052696 86.3321164 -33.50963269 83.3197517 -33.50732422 80.30712891 C-33.51121377 78.20397863 -33.51554897 76.10082914 -33.52030945 73.99768066 C-33.52775881 69.5964096 -33.52748927 65.19521878 -33.5222168 60.79394531 C-33.51641798 55.16166901 -33.53336951 49.5297211 -33.55656147 43.89749908 C-33.5713105 39.55656015 -33.57216901 35.21570015 -33.56905174 30.8747406 C-33.56956417 28.79836882 -33.5747871 26.72199253 -33.58486366 24.64564514 C-33.59723595 21.7402728 -33.59043194 18.83553834 -33.57885742 15.93017578 C-33.58650116 15.07801987 -33.5941449 14.22586395 -33.60202026 13.34788513 C-33.55508476 8.00245982 -32.75591531 4.25622117 -30.20654297 -0.47412109 C-22.28785114 -6.6545635 -9.13883828 -1.70145682 0 0 Z " fill="#00058C" transform="translate(71.20654296875,22.47412109375)"/>
<path d="M0 0 C4.29 0 8.58 0 13 0 C13 5.94 13 11.88 13 18 C15.34996094 17.94199219 17.69992187 17.88398437 20.12109375 17.82421875 C22.42468907 17.78510352 24.72824586 17.7548134 27.03198242 17.7253418 C28.61971897 17.70036472 30.20734252 17.66637019 31.79467773 17.62280273 C49.31017534 17.15447392 49.31017534 17.15447392 56 23 C62.27406264 29.94638625 62.50978074 36.90300996 62.34765625 45.8046875 C62.07813263 50.91774222 60.59583879 54.33443581 57 58 C56.2575 58.763125 55.515 59.52625 54.75 60.3125 C46.90772512 65.12480504 39.02486467 65.49442288 30 65.4375 C28.8759375 65.45748047 27.751875 65.47746094 26.59375 65.49804688 C18.0910351 65.49308034 11.9799124 63.94167438 5.125 58.875 C-0.09422945 51.81368957 -0.43080018 43.45825627 -0.29296875 34.9609375 C-0.28872391 33.95406891 -0.28447906 32.94720032 -0.28010559 31.90982056 C-0.2634716 28.73126121 -0.22584875 25.55336386 -0.1875 22.375 C-0.17243339 20.20443632 -0.15874847 18.03386258 -0.14648438 15.86328125 C-0.11361829 10.57527037 -0.06194345 5.28774696 0 0 Z M13 28 C11.94076541 41.31347929 11.94076541 41.31347929 16.875 53 C23.94084928 56.32510554 33.64601895 56.09123063 41.125 54.25 C44.89754162 52.60976451 47.15771412 50.68457176 49 47 C49.73451331 38.43198628 49.73451331 38.43198628 46 31 C43.15218153 28.15218153 41.04294496 28.04037374 37.06738281 27.88647461 C35.4020752 27.89432983 35.4020752 27.89432983 33.703125 27.90234375 C31.89521484 27.90717773 31.89521484 27.90717773 30.05078125 27.91210938 C28.16939453 27.92467773 28.16939453 27.92467773 26.25 27.9375 C24.98027344 27.94201172 23.71054687 27.94652344 22.40234375 27.95117188 C19.26818164 27.96295444 16.13411459 27.97940584 13 28 Z " fill="#0091CE" transform="translate(365,36)"/>
<path d="M0 0 C2.55473345 0.04206128 5.10684176 0.04104342 7.66186523 0.03417969 C9.295347 0.04466734 10.92881529 0.05760316 12.56225586 0.07324219 C13.32068283 0.0734436 14.0791098 0.07364502 14.86051941 0.07385254 C19.37015723 0.17427221 22.2645916 0.7878816 25.86303711 3.54199219 C30.08807887 8.1096049 30.28324542 11.91730636 30.19897461 17.85839844 C29.69437091 21.88936056 29.07993405 24.56607508 25.83251953 27.17041016 C21.81168301 29.02760489 18.43545109 28.91903613 14.06225586 28.83496094 C13.22588089 28.83071609 12.38950592 28.82647125 11.52778625 28.82209778 C8.86836946 28.80536583 6.20972311 28.76772445 3.55053711 28.72949219 C1.74260538 28.71443823 -0.06533828 28.70075107 -1.87329102 28.68847656 C-6.29480978 28.65548035 -10.71575591 28.60373647 -15.13696289 28.54199219 C-13.41420711 32.65493482 -13.41420711 32.65493482 -10.46606445 35.89111328 C-6.96320607 36.87000431 -3.4819711 36.90166426 0.12866211 36.95605469 C1.31875885 36.98510391 1.31875885 36.98510391 2.53289795 37.01473999 C5.05950268 37.0743758 7.58615336 37.12085662 10.11303711 37.16699219 C11.82920248 37.20518674 13.54534898 37.24423934 15.26147461 37.28417969 C19.46184167 37.38006405 23.66229845 37.46415385 27.86303711 37.54199219 C27.86303711 40.84199219 27.86303711 44.14199219 27.86303711 47.54199219 C22.3495803 47.64160989 16.83665882 47.71381129 11.32250977 47.76171875 C9.45067202 47.78171082 7.57889573 47.80891387 5.70727539 47.84375 C-15.59827539 48.23009065 -15.59827539 48.23009065 -22.13696289 43.54199219 C-29.22535612 35.05214553 -28.98417684 25.09453957 -28.13696289 14.54199219 C-27.13257674 9.60962452 -25.18548763 5.93051517 -21.14868164 2.84277344 C-14.79497822 -0.94764882 -7.15452195 -0.12448661 0 0 Z M-13.13696289 12.54199219 C-15.50676302 15.49576717 -15.50676302 15.49576717 -15.13696289 19.54199219 C-10.91945007 19.59145332 -6.70209121 19.62774045 -2.484375 19.65185547 C-1.04977477 19.66190918 0.384805 19.67555413 1.81933594 19.69287109 C3.88213149 19.71714768 5.94465596 19.72848138 8.00756836 19.73730469 C9.24869385 19.74777832 10.48981934 19.75825195 11.76855469 19.76904297 C15.03207019 19.78487289 15.03207019 19.78487289 17.86303711 17.54199219 C18.36318664 15.08457682 18.36318664 15.08457682 17.86303711 12.54199219 C16.19449854 10.27139663 15.29872886 9.61327742 12.49047852 9.15380859 C11.57443848 9.1504248 10.65839844 9.14704102 9.71459961 9.14355469 C8.70913086 9.1396875 7.70366211 9.13582031 6.66772461 9.13183594 C5.61842773 9.1434375 4.56913086 9.15503906 3.48803711 9.16699219 C2.44647461 9.15539063 1.40491211 9.14378906 0.33178711 9.13183594 C-6.94872938 9.05379584 -6.94872938 9.05379584 -13.13696289 12.54199219 Z " fill="#00098E" transform="translate(125.136962890625,53.4580078125)"/>
<path d="M0 0 C0.77538116 -0.0066568 1.55076233 -0.0133136 2.34963989 -0.02017212 C3.98518513 -0.03026694 5.6207713 -0.03499012 7.25634766 -0.03466797 C9.74321195 -0.03903685 12.22829351 -0.07537502 14.71484375 -0.11328125 C16.30988982 -0.11915121 17.90494424 -0.1231194 19.5 -0.125 C20.23564178 -0.13937103 20.97128357 -0.15374207 21.72921753 -0.16854858 C27.18672852 -0.12085303 30.36495531 1.26045498 34.8828125 4.3359375 C37.37732245 7.57057677 37.15112208 10.84444938 37.1328125 14.8359375 C37.14054687 16.52203125 37.14054687 16.52203125 37.1484375 18.2421875 C36.88611379 21.29748714 36.67184955 22.87870589 34.8828125 25.3359375 C30.39619656 28.85501059 26.52870351 28.73361917 21.08203125 28.62890625 C20.24565628 28.62466141 19.40928131 28.62041656 18.54756165 28.61604309 C15.88814485 28.59931114 13.2294985 28.56166976 10.5703125 28.5234375 C8.76238077 28.50838354 6.95443711 28.49469638 5.14648438 28.48242188 C0.72496561 28.44942566 -3.69598052 28.39768178 -8.1171875 28.3359375 C-6.39443172 32.44888013 -6.39443172 32.44888013 -3.44628906 35.68505859 C0.05656932 36.66394963 3.53780429 36.69560957 7.1484375 36.75 C8.33853424 36.77904922 8.33853424 36.77904922 9.55267334 36.8086853 C12.07927807 36.86832111 14.60592875 36.91480193 17.1328125 36.9609375 C18.84897787 36.99913205 20.56512437 37.03818465 22.28125 37.078125 C26.48161706 37.17400936 30.68207384 37.25809917 34.8828125 37.3359375 C34.8828125 40.6359375 34.8828125 43.9359375 34.8828125 47.3359375 C29.33271167 47.41047398 23.78290664 47.46472149 18.23242188 47.50073242 C16.34695353 47.51575543 14.46151975 47.53617981 12.57617188 47.56225586 C9.8553816 47.59892613 7.13505609 47.61572896 4.4140625 47.62890625 C3.58040161 47.64439011 2.74674072 47.65987396 1.88781738 47.67582703 C-4.39519301 47.67760613 -10.03447689 46.74021373 -15.140625 42.7578125 C-21.64347343 34.71382658 -21.84767659 26.41440414 -21.1171875 16.3359375 C-20.01173654 10.29913888 -18.0474458 6.20971188 -13.1171875 2.3359375 C-8.82477805 0.1309393 -4.72985333 0.01423161 0 0 Z M-6.1171875 12.3359375 C-7.85242678 14.98011164 -8.1171875 16.12059693 -8.1171875 19.3359375 C-3.73894833 19.38531899 0.63914396 19.4216479 5.01757812 19.44580078 C6.5075157 19.45586793 7.99743347 19.46952268 9.48730469 19.48681641 C11.62700278 19.51103403 13.76644003 19.52241314 15.90625 19.53125 C17.19450684 19.54172363 18.48276367 19.55219727 19.81005859 19.56298828 C22.98982056 19.66431414 22.98982056 19.66431414 24.8828125 17.3359375 C25.23919662 14.55614139 25.36937112 13.00021993 23.68505859 10.70068359 C21.27637567 8.87671481 19.73722575 8.94859232 16.734375 8.9375 C15.72890625 8.93363281 14.7234375 8.92976563 13.6875 8.92578125 C12.63820313 8.93738281 11.58890625 8.94898438 10.5078125 8.9609375 C9.46625 8.94933594 8.4246875 8.93773437 7.3515625 8.92578125 C0.08281315 8.85926743 0.08281315 8.85926743 -6.1171875 12.3359375 Z " fill="#00D5EF" transform="translate(452.1171875,53.6640625)"/>
<path d="M0 0 C0.99174728 0.00424484 1.98349457 0.00848969 3.0052948 0.01286316 C6.1639656 0.02961752 9.32199172 0.06726427 12.48046875 0.10546875 C14.62564181 0.12051976 16.7708249 0.13420743 18.91601562 0.14648438 C24.16691398 0.17951052 29.41733217 0.231271 34.66796875 0.29296875 C34.66796875 3.26296875 34.66796875 6.23296875 34.66796875 9.29296875 C33.56283936 9.31278809 32.45770996 9.33260742 31.3190918 9.35302734 C27.22071462 9.42907324 23.12269296 9.51779204 19.0246582 9.61035156 C17.25064104 9.64864554 15.47654611 9.6834977 13.70239258 9.71484375 C11.15287476 9.76048547 8.60389245 9.8184806 6.0546875 9.87890625 C5.26084152 9.89045746 4.46699554 9.90200867 3.64909363 9.91390991 C-0.17527033 10.0165226 -2.07799224 10.12360941 -5.33203125 12.29296875 C-5.00203125 13.94296875 -4.67203125 15.59296875 -4.33203125 17.29296875 C-2.97839478 17.3069873 -2.97839478 17.3069873 -1.59741211 17.32128906 C1.77834453 17.36552715 5.15287161 17.42723739 8.52807617 17.50048828 C9.98368835 17.52856461 11.43944921 17.54984507 12.89526367 17.56396484 C28.10117274 17.72024346 28.10117274 17.72024346 33.66796875 22.29296875 C36.73140188 27.43163077 37.22144675 31.48144979 36.66796875 37.29296875 C35.09096552 41.4720273 33.52864046 44.00069492 29.66796875 46.29296875 C26.86259572 47.22809309 25.18631511 47.41479782 22.28833008 47.40649414 C21.40764359 47.40641861 20.52695709 47.40634308 19.61958313 47.40626526 C18.6726207 47.40110397 17.72565826 47.39594269 16.75 47.390625 C15.77761887 47.38921005 14.80523773 47.3877951 13.8033905 47.38633728 C10.69571871 47.38073692 7.58811879 47.36818437 4.48046875 47.35546875 C2.37435 47.3504538 0.26823012 47.34589088 -1.83789062 47.34179688 C-7.00263189 47.33076737 -12.16731938 47.3135025 -17.33203125 47.29296875 C-17.33203125 43.99296875 -17.33203125 40.69296875 -17.33203125 37.29296875 C-16.19137207 37.2679126 -15.05071289 37.24285645 -13.87548828 37.21704102 C-9.65238784 37.12302582 -5.42945416 37.02279088 -1.20654297 36.9206543 C0.6228445 36.8772831 2.45227302 36.83560964 4.28173828 36.7956543 C6.90800361 36.73800457 9.53406185 36.6742951 12.16015625 36.609375 C13.39147781 36.58430626 13.39147781 36.58430626 14.64767456 36.55873108 C18.79133835 36.54983005 18.79133835 36.54983005 22.66796875 35.29296875 C22.66796875 33.64296875 22.66796875 31.99296875 22.66796875 30.29296875 C19.92442398 28.92119637 17.66157606 29.1302251 14.59375 29.08203125 C13.36849609 29.05367187 12.14324219 29.0253125 10.88085938 28.99609375 C8.30026813 28.94440439 5.71951927 28.90001929 3.13867188 28.86328125 C-11.20218113 28.50307144 -11.20218113 28.50307144 -16.76953125 22.79296875 C-18.95807601 17.89062849 -18.99406382 13.58115574 -18.33203125 8.29296875 C-14.96572803 -0.21137624 -8.00154842 -0.12925724 0 0 Z " fill="#001694" transform="translate(176.33203125,53.70703125)"/>
<path d="M0 0 C1.09441406 0.25652344 2.18882813 0.51304687 3.31640625 0.77734375 C6.58889825 1.5480253 9.85706389 2.33524877 13.125 3.125 C14.23423828 3.38627686 15.34347656 3.64755371 16.48632812 3.91674805 C17.55044922 4.17238525 18.61457031 4.42802246 19.7109375 4.69140625 C21.13865479 5.0308728 21.13865479 5.0308728 22.59521484 5.37719727 C26.08416054 6.40852719 28.37490283 7.75686077 31.125 10.125 C31.125 10.785 31.125 11.445 31.125 12.125 C24.88364675 12.35509597 19.44672486 11.50186387 13.375 10.125 C-0.0480346 6.83665676 -0.0480346 6.83665676 -12.875 10.125 C-16.70164309 15.51064583 -17.02765905 20.19089497 -17.08032227 26.64746094 C-17.09517166 27.7748745 -17.09517166 27.7748745 -17.11032104 28.92506409 C-17.14184466 31.40313596 -17.16665723 33.88122698 -17.19140625 36.359375 C-17.21198367 38.08002209 -17.23298036 39.8006642 -17.25437927 41.52130127 C-17.30951851 46.04547092 -17.35896367 50.56968557 -17.40722656 55.09393311 C-17.45750113 59.7124023 -17.51315609 64.3308063 -17.56835938 68.94921875 C-17.67584127 78.00775678 -17.77730832 87.06635147 -17.875 96.125 C-18.535 95.795 -19.195 95.465 -19.875 95.125 C-20.42353821 93.395401 -20.42353821 93.395401 -20.84887695 91.10961914 C-21.09495697 89.82283516 -21.09495697 89.82283516 -21.3460083 88.51005554 C-21.51670837 87.56958878 -21.68740845 86.62912201 -21.86328125 85.66015625 C-22.04695251 84.68790604 -22.23062378 83.71565582 -22.41986084 82.71394348 C-23.01751859 79.53997848 -23.60285255 76.36388509 -24.1875 73.1875 C-24.59164642 71.02021064 -24.99651312 68.85305548 -25.40209961 66.68603516 C-26.00492496 63.46446946 -26.60708477 60.24279697 -27.20570374 57.02044678 C-28.28348112 51.22851416 -29.39721828 45.44757167 -30.578125 39.67578125 C-30.81362061 38.5148999 -31.04911621 37.35401855 -31.29174805 36.15795898 C-31.70307759 34.14640978 -32.12290444 32.13656602 -32.55395508 30.12915039 C-34.40801628 20.92378233 -35.91296193 10.4636956 -30.875 2.125 C-22.46052068 -7.55165122 -11.09081461 -2.65920116 0 0 Z " fill="#00058C" transform="translate(50.875,5.875)"/>
<path d="M0 0 C0.83920486 0.00141495 1.67840973 0.0028299 2.54304504 0.00428772 C5.22274341 0.0098841 7.90235815 0.0224359 10.58203125 0.03515625 C12.39908733 0.04017172 14.21614473 0.04473454 16.03320312 0.04882812 C20.48701138 0.05985234 24.94075714 0.07711447 29.39453125 0.09765625 C29.39453125 3.39765625 29.39453125 6.69765625 29.39453125 10.09765625 C28.47639648 10.1227124 27.55826172 10.14776855 26.61230469 10.17358398 C23.197961 10.26885895 19.78377922 10.36808403 16.36962891 10.4699707 C14.89343735 10.5132166 13.4171991 10.55489881 11.94091797 10.5949707 C9.81593777 10.65292471 7.69119032 10.71654571 5.56640625 10.78125 C4.28862305 10.81790771 3.01083984 10.85456543 1.69433594 10.89233398 C-2.04496421 11.10909262 -2.04496421 11.10909262 -5.60546875 12.09765625 C-9.20634214 17.11315848 -9.1796651 22.16759399 -8.60546875 28.09765625 C-7.52730905 32.07855361 -7.10369918 32.76550263 -3.60546875 35.09765625 C-0.22600394 35.45185526 -0.22600394 35.45185526 3.65234375 35.4765625 C4.35600067 35.49355698 5.05965759 35.51055145 5.78463745 35.52806091 C8.02951123 35.58114546 10.2743666 35.62147965 12.51953125 35.66015625 C14.77174473 35.70404923 17.02381339 35.75069253 19.27584839 35.80296326 C21.31413749 35.84954662 23.35262873 35.88701572 25.39111328 35.92407227 C28.39453125 36.09765625 28.39453125 36.09765625 29.39453125 37.09765625 C29.46658636 38.78374591 29.47839193 40.47266284 29.45703125 42.16015625 C29.44800781 43.07925781 29.43898438 43.99835938 29.4296875 44.9453125 C29.41808594 45.65558594 29.40648437 46.36585937 29.39453125 47.09765625 C24.5931588 47.19744497 19.79240604 47.26955242 14.99023438 47.31738281 C13.36089547 47.33734704 11.7316268 47.36452855 10.10253906 47.39941406 C-10.6156647 47.83157291 -10.6156647 47.83157291 -18.04296875 40.78515625 C-22.97815604 32.29663412 -23.61561048 24.77023978 -22.60546875 15.09765625 C-21.0920735 9.93012289 -18.94150184 5.69133716 -14.48046875 2.53515625 C-9.54143032 0.06563703 -5.41100165 -0.03423691 0 0 Z " fill="#003AA5" transform="translate(271.60546875,53.90234375)"/>
<path d="M0 0 C4.29 0 8.58 0 13 0 C13 5.61 13 11.22 13 17 C18.94 17 24.88 17 31 17 C31 19.97 31 22.94 31 26 C25.06 26 19.12 26 13 26 C13.14106917 29.56274693 13.28766982 33.12511984 13.4375 36.6875 C13.47681641 37.69490234 13.51613281 38.70230469 13.55664062 39.74023438 C13.61948242 41.20493164 13.61948242 41.20493164 13.68359375 42.69921875 C13.72025146 43.59471436 13.75690918 44.49020996 13.79467773 45.4128418 C13.98240361 48.42302388 13.98240361 48.42302388 15 53 C21.93 53.495 21.93 53.495 29 54 C29 57.3 29 60.6 29 64 C9.87714938 64.62659826 9.87714938 64.62659826 2.5625 59.1875 C-1.34311236 53.71964269 -0.12829685 45.69664262 -0.09765625 39.2578125 C-0.0962413 38.13430389 -0.09482635 37.01079529 -0.09336853 35.85324097 C-0.08778664 32.27713317 -0.07523741 28.70108877 -0.0625 25.125 C-0.05748266 22.69531341 -0.05292016 20.26562583 -0.04882812 17.8359375 C-0.03782313 11.8906007 -0.02057092 5.94531109 0 0 Z " fill="#00249B" transform="translate(216,37)"/>
<path d="M0 0 C4.29 0 8.58 0 13 0 C13 5.61 13 11.22 13 17 C18.94 17 24.88 17 31 17 C31 19.97 31 22.94 31 26 C25.06 26 19.12 26 13 26 C13.14112834 29.39608841 13.2877222 32.79179133 13.4375 36.1875 C13.47681641 37.14720703 13.51613281 38.10691406 13.55664062 39.09570312 C13.61948242 40.49272461 13.61948242 40.49272461 13.68359375 41.91796875 C13.72025146 42.77156982 13.75690918 43.6251709 13.79467773 44.50463867 C14.00531094 47.06454594 14.44841536 49.49333243 15 52 C18.00778521 53.00259507 20.53820647 53.30314642 23.6875 53.5625 C24.68136719 53.64628906 25.67523438 53.73007813 26.69921875 53.81640625 C27.83810547 53.90728516 27.83810547 53.90728516 29 54 C29 57.3 29 60.6 29 64 C11.41264822 64.57628458 11.41264822 64.57628458 5 61 C0.91569501 56.81096924 -0.1271624 53.53536914 -0.11352539 47.79418945 C-0.11344986 46.73331619 -0.11337433 45.67244293 -0.11329651 44.579422 C-0.10813522 43.43559555 -0.10297394 42.2917691 -0.09765625 41.11328125 C-0.0962413 39.94113571 -0.09482635 38.76899017 -0.09336853 37.56132507 C-0.08776388 33.81169093 -0.07521056 30.06211615 -0.0625 26.3125 C-0.0574856 23.77278732 -0.05292259 21.2330737 -0.04882812 18.69335938 C-0.03779294 12.46221665 -0.02052515 6.2311184 0 0 Z " fill="#00058C" transform="translate(64,37)"/>
<path d="M0 0 C1.11310547 0.01804688 2.22621094 0.03609375 3.37304688 0.0546875 C6.10376646 0.10156681 8.83267386 0.16717181 11.5625 0.25 C11.5625 3.22 11.5625 6.19 11.5625 9.25 C10.54929687 9.31058594 9.53609375 9.37117188 8.4921875 9.43359375 C7.14061486 9.51806704 5.78905291 9.60271157 4.4375 9.6875 C3.43976563 9.74647461 3.43976563 9.74647461 2.421875 9.80664062 C-1.58768817 10.062152 -5.48744196 10.51782413 -9.4375 11.25 C-11.35258994 19.12414769 -11.84625214 26.79273622 -12.0625 34.875 C-12.12050781 36.66744141 -12.12050781 36.66744141 -12.1796875 38.49609375 C-12.27305519 41.4138342 -12.35632285 44.33189494 -12.4375 47.25 C-16.7275 47.25 -21.0175 47.25 -25.4375 47.25 C-25.48368834 43.12384118 -25.52342894 38.99835052 -25.54736328 34.87207031 C-25.55735248 33.47164858 -25.57094854 32.07124732 -25.58837891 30.67089844 C-25.80140763 13.10229392 -25.80140763 13.10229392 -21.75 6.5 C-14.92493845 -0.14060043 -9.17940798 -0.28328143 0 0 Z " fill="#0056B2" transform="translate(330.4375,53.75)"/>
<path d="M0 0 C4.29 0 8.58 0 13 0 C13 15.51 13 31.02 13 47 C8.71 47 4.42 47 0 47 C0 31.49 0 15.98 0 0 Z " fill="#0070BF" transform="translate(347,54)"/>
<path d="M0 0 C2.55885364 8.62966075 4.28098842 17.33663805 5.875 26.1875 C6.39221436 29.02410906 6.91367322 31.85991745 7.4375 34.6953125 C7.56728241 35.39840042 7.69706482 36.10148834 7.83078003 36.82588196 C9.24239463 44.40771771 10.8426729 51.94950576 12.52685547 59.4753418 C13.60610092 64.4408528 14.23704893 68.91739203 14 74 C11.15320649 70.66065277 9.75251913 67.08257525 8.3125 63 C6.00104679 56.63241933 3.5469954 50.3393923 1 44.0625 C-0.34337315 40.71226431 -1.67574528 37.35783665 -3 34 C-3.31066406 33.21318848 -3.62132812 32.42637695 -3.94140625 31.61572266 C-10.91769838 13.71821131 -10.91769838 13.71821131 -9 7 C-6.69594428 3.03788549 -4.78260948 0 0 0 Z " fill="#00058C" transform="translate(18,47)"/>
<path d="M0 0 C4.29 0 8.58 0 13 0 C13 4.29 13 8.58 13 13 C8.71 13 4.42 13 0 13 C0 8.71 0 4.42 0 0 Z " fill="#0070BF" transform="translate(347,36)"/>
</svg>
