<svg xmlns="http://www.w3.org/2000/svg" width="240" height="38" viewBox="0 0 240 38" fill="none"><path d="M32.8633 0.0849609H23.0042V23.9111H32.8633V0.0849609Z" fill="white" fill-opacity="1"></path><path d="M9.85938 0.0849609H0.000284195V13.6412L9.85938 23.9111V0.0849609Z" fill="white" fill-opacity="1"></path><path d="M9.85938 23.9121H0.000284195V37.0576H9.85938V23.9121Z" fill="white" fill-opacity="1"></path><path d="M23.0059 23.9121H9.8604L17.6655 33.7712H23.0059V23.9121Z" fill="white" fill-opacity="1"></path><path d="M42.668 0.858398H67.2016V4.4863H56.9075V32.6025H52.9621V4.4863H42.668V0.858398Z" fill="white" fill-opacity="1"></path><path d="M65.9761 21.0386C65.9761 18.6804 66.4296 16.6095 67.3366 14.8258C68.2738 13.0421 69.5738 11.6665 71.2366 10.6991C72.8994 9.7014 74.804 9.20256 76.9505 9.20256C79.0668 9.20256 80.9412 9.64093 82.5738 10.5177C84.2063 11.3944 85.4912 12.6642 86.4284 14.327C87.3656 15.9898 87.8645 17.9397 87.9249 20.177C87.9249 20.5095 87.8947 21.0386 87.8342 21.7642H69.8761V22.0816C69.9366 24.349 70.6319 26.163 71.9622 27.5234C73.2924 28.8839 75.0308 29.5641 77.1773 29.5641C78.8401 29.5641 80.2459 29.156 81.3947 28.3397C82.5738 27.4932 83.3598 26.3293 83.7528 24.8479H87.5168C87.0633 27.206 85.9296 29.1409 84.1156 30.6525C82.3017 32.1339 80.0796 32.8746 77.4494 32.8746C75.1517 32.8746 73.1412 32.3909 71.418 31.4234C69.6947 30.4258 68.3494 29.0351 67.382 27.2514C66.4448 25.4374 65.9761 23.3665 65.9761 21.0386ZM84.0703 18.6804C83.8889 16.7153 83.1482 15.1886 81.8482 14.1002C80.5784 13.0119 78.961 12.4677 76.9959 12.4677C75.2424 12.4677 73.7005 13.0421 72.3703 14.1909C71.0401 15.3398 70.2843 16.8363 70.1029 18.6804H84.0703Z" fill="white" fill-opacity="1"></path><path d="M94.982 24.9839C95.0424 26.3746 95.6471 27.5083 96.7959 28.3851C97.975 29.2618 99.4866 29.7002 101.331 29.7002C102.963 29.7002 104.278 29.3827 105.276 28.7479C106.304 28.0827 106.818 27.2211 106.818 26.163C106.818 25.256 106.576 24.5607 106.092 24.0769C105.609 23.5932 104.974 23.2607 104.188 23.0793C103.432 22.8979 102.344 22.7165 100.923 22.5351C98.9273 22.2932 97.2948 21.9758 96.025 21.5828C94.7552 21.1897 93.7273 20.57 92.9413 19.7235C92.1552 18.8467 91.7622 17.6525 91.7622 16.1409C91.7622 14.7805 92.1401 13.5712 92.8959 12.513C93.682 11.4549 94.7401 10.6386 96.0703 10.0642C97.4006 9.45954 98.8971 9.15721 100.56 9.15721C103.281 9.15721 105.488 9.7921 107.181 11.0619C108.904 12.3316 109.856 14.1456 110.038 16.5037H106.319C106.168 15.2944 105.578 14.2967 104.551 13.5107C103.523 12.7246 102.238 12.3316 100.696 12.3316C99.1238 12.3316 97.8541 12.6642 96.8866 13.3293C95.9192 13.9642 95.4355 14.8107 95.4355 15.8688C95.4355 16.6549 95.6622 17.2595 96.1157 17.6828C96.5692 18.106 97.1436 18.3932 97.8389 18.5444C98.5645 18.6956 99.6529 18.8618 101.104 19.0432C103.13 19.2851 104.792 19.6177 106.092 20.0409C107.423 20.4642 108.481 21.1444 109.267 22.0816C110.083 23.0188 110.491 24.2886 110.491 25.8909C110.491 27.2816 110.083 28.506 109.267 29.5641C108.451 30.6223 107.347 31.4386 105.956 32.013C104.566 32.5874 103.024 32.8746 101.331 32.8746C98.3075 32.8746 95.8738 32.1792 94.0296 30.7886C92.2157 29.3979 91.2936 27.463 91.2634 24.9839H94.982Z" fill="white" fill-opacity="1"></path><path d="M116.252 12.8758H112.079V9.47465H116.252V2.98979H119.97V9.47465H125.82V12.8758H119.97V26.5258C119.97 27.4932 120.152 28.1886 120.514 28.6118C120.907 29.0048 121.572 29.2013 122.51 29.2013H126.546V32.6025H122.283C120.106 32.6025 118.549 32.1188 117.612 31.1513C116.705 30.1839 116.252 28.6572 116.252 26.5711V12.8758Z" fill="white" fill-opacity="1"></path><path d="M129.735 0.858398H134.724L145.97 27.206L157.081 0.858398H161.978V32.6025H158.124V7.57001L147.603 32.6025H144.111L133.59 7.57001V32.6025H129.735V0.858398Z" fill="white" fill-opacity="1"></path><path d="M187.495 9.47465V32.6025H184.275L183.777 29.5188C182.023 31.756 179.559 32.8746 176.385 32.8746C173.634 32.8746 171.427 32.0281 169.764 30.3351C168.101 28.642 167.27 25.9816 167.27 22.3537V9.47465H170.988V22.1269C170.988 24.5153 171.502 26.3444 172.53 27.6141C173.588 28.8537 175.085 29.4734 177.02 29.4734C179.136 29.4734 180.784 28.7176 181.963 27.206C183.172 25.6944 183.777 23.6386 183.777 21.0386V9.47465H187.495Z" fill="white" fill-opacity="1"></path><path d="M202.392 32.6025L214.5 0.858398H219.171L231.234 32.6025H227.017L223.661 24.0316H209.829L206.474 32.6025H202.392ZM211.008 20.449H222.482L216.722 5.16653L211.008 20.449Z" fill="white" fill-opacity="1"></path><path d="M234.826 0.858398H238.771V32.6025H234.826V0.858398Z" fill="white" fill-opacity="1"></path><path d="M42.668 0.858398H67.2016V4.4863H56.9075V32.6025H52.9621V4.4863H42.668V0.858398Z" stroke="white" stroke-opacity="1" stroke-width="1.7159" mask="url(#path-5-outside-1_3244_80696)"></path><path d="M65.9761 21.0386C65.9761 18.6804 66.4296 16.6095 67.3366 14.8258C68.2738 13.0421 69.5738 11.6665 71.2366 10.6991C72.8994 9.7014 74.804 9.20256 76.9505 9.20256C79.0668 9.20256 80.9412 9.64093 82.5738 10.5177C84.2063 11.3944 85.4912 12.6642 86.4284 14.327C87.3656 15.9898 87.8645 17.9397 87.9249 20.177C87.9249 20.5095 87.8947 21.0386 87.8342 21.7642H69.8761V22.0816C69.9366 24.349 70.6319 26.163 71.9622 27.5234C73.2924 28.8839 75.0308 29.5641 77.1773 29.5641C78.8401 29.5641 80.2459 29.156 81.3947 28.3397C82.5738 27.4932 83.3598 26.3293 83.7528 24.8479H87.5168C87.0633 27.206 85.9296 29.1409 84.1156 30.6525C82.3017 32.1339 80.0796 32.8746 77.4494 32.8746C75.1517 32.8746 73.1412 32.3909 71.418 31.4234C69.6947 30.4258 68.3494 29.0351 67.382 27.2514C66.4448 25.4374 65.9761 23.3665 65.9761 21.0386ZM84.0703 18.6804C83.8889 16.7153 83.1482 15.1886 81.8482 14.1002C80.5784 13.0119 78.961 12.4677 76.9959 12.4677C75.2424 12.4677 73.7005 13.0421 72.3703 14.1909C71.0401 15.3398 70.2843 16.8363 70.1029 18.6804H84.0703Z" stroke="white" stroke-opacity="1" stroke-width="1.7159" mask="url(#path-5-outside-1_3244_80696)"></path><path d="M94.982 24.9839C95.0424 26.3746 95.6471 27.5083 96.7959 28.3851C97.975 29.2618 99.4866 29.7002 101.331 29.7002C102.963 29.7002 104.278 29.3827 105.276 28.7479C106.304 28.0827 106.818 27.2211 106.818 26.163C106.818 25.256 106.576 24.5607 106.092 24.0769C105.609 23.5932 104.974 23.2607 104.188 23.0793C103.432 22.8979 102.344 22.7165 100.923 22.5351C98.9273 22.2932 97.2948 21.9758 96.025 21.5828C94.7552 21.1897 93.7273 20.57 92.9413 19.7235C92.1552 18.8467 91.7622 17.6525 91.7622 16.1409C91.7622 14.7805 92.1401 13.5712 92.8959 12.513C93.682 11.4549 94.7401 10.6386 96.0703 10.0642C97.4006 9.45954 98.8971 9.15721 100.56 9.15721C103.281 9.15721 105.488 9.7921 107.181 11.0619C108.904 12.3316 109.856 14.1456 110.038 16.5037H106.319C106.168 15.2944 105.578 14.2967 104.551 13.5107C103.523 12.7246 102.238 12.3316 100.696 12.3316C99.1238 12.3316 97.8541 12.6642 96.8866 13.3293C95.9192 13.9642 95.4355 14.8107 95.4355 15.8688C95.4355 16.6549 95.6622 17.2595 96.1157 17.6828C96.5692 18.106 97.1436 18.3932 97.8389 18.5444C98.5645 18.6956 99.6529 18.8618 101.104 19.0432C103.13 19.2851 104.792 19.6177 106.092 20.0409C107.423 20.4642 108.481 21.1444 109.267 22.0816C110.083 23.0188 110.491 24.2886 110.491 25.8909C110.491 27.2816 110.083 28.506 109.267 29.5641C108.451 30.6223 107.347 31.4386 105.956 32.013C104.566 32.5874 103.024 32.8746 101.331 32.8746C98.3075 32.8746 95.8738 32.1792 94.0296 30.7886C92.2157 29.3979 91.2936 27.463 91.2634 24.9839H94.982Z" stroke="white" stroke-opacity="1" stroke-width="1.7159" mask="url(#path-5-outside-1_3244_80696)"></path><path d="M116.252 12.8758H112.079V9.47465H116.252V2.98979H119.97V9.47465H125.82V12.8758H119.97V26.5258C119.97 27.4932 120.152 28.1886 120.514 28.6118C120.907 29.0048 121.572 29.2013 122.51 29.2013H126.546V32.6025H122.283C120.106 32.6025 118.549 32.1188 117.612 31.1513C116.705 30.1839 116.252 28.6572 116.252 26.5711V12.8758Z" stroke="white" stroke-opacity="1" stroke-width="1.7159" mask="url(#path-5-outside-1_3244_80696)"></path><path d="M129.735 0.858398H134.724L145.97 27.206L157.081 0.858398H161.978V32.6025H158.124V7.57001L147.603 32.6025H144.111L133.59 7.57001V32.6025H129.735V0.858398Z" stroke="white" stroke-opacity="1" stroke-width="1.7159" mask="url(#path-5-outside-1_3244_80696)"></path><path d="M187.495 9.47465V32.6025H184.275L183.777 29.5188C182.023 31.756 179.559 32.8746 176.385 32.8746C173.634 32.8746 171.427 32.0281 169.764 30.3351C168.101 28.642 167.27 25.9816 167.27 22.3537V9.47465H170.988V22.1269C170.988 24.5153 171.502 26.3444 172.53 27.6141C173.588 28.8537 175.085 29.4734 177.02 29.4734C179.136 29.4734 180.784 28.7176 181.963 27.206C183.172 25.6944 183.777 23.6386 183.777 21.0386V9.47465H187.495Z" stroke="white" stroke-opacity="1" stroke-width="1.7159" mask="url(#path-5-outside-1_3244_80696)"></path><path d="M202.392 32.6025L214.5 0.858398H219.171L231.234 32.6025H227.017L223.661 24.0316H209.829L206.474 32.6025H202.392ZM211.008 20.449H222.482L216.722 5.16653L211.008 20.449Z" stroke="white" stroke-opacity="1" stroke-width="1.7159" mask="url(#path-5-outside-1_3244_80696)"></path><path d="M234.826 0.858398H238.771V32.6025H234.826V0.858398Z" stroke="white" stroke-opacity="1" stroke-width="1.7159" mask="url(#path-5-outside-1_3244_80696)"></path></svg>