<svg viewBox="0 0 105 32" fill="none" xmlns="http://www.w3.org/2000/svg">
  <path d="M14.3438 0H10.0401V10.4005H14.3438V0Z" fill="black" style="fill:black;fill-opacity:1;"/>
  <path d="M4.30469 0H0.0010128V5.91755L4.30469 10.4005V0Z" fill="black" style="fill:black;fill-opacity:1;"/>
  <path d="M4.30469 10.4004H0.0010128V16.1386H4.30469V10.4004Z" fill="black" style="fill:black;fill-opacity:1;"/>
  <path d="M10.043 10.4004H4.30473L7.71181 14.7041H10.043V10.4004Z" fill="black" style="fill:black;fill-opacity:1;"/>
  <path d="M18.625 0.337402H29.3344V1.92105H24.8408V14.1943H23.1186V1.92105H18.625V0.337402Z" fill="black" style="fill:black;fill-opacity:1;"/>
  <path d="M28.7995 9.14642C28.7995 8.11705 28.9974 7.21306 29.3933 6.43443C29.8024 5.65581 30.3699 5.05534 31.0957 4.63304C31.8216 4.19754 32.653 3.97978 33.59 3.97978C34.5138 3.97978 35.332 4.17114 36.0446 4.55386C36.7573 4.93657 37.3181 5.49084 37.7272 6.21668C38.1364 6.94252 38.3541 7.79373 38.3805 8.77031C38.3805 8.91548 38.3673 9.14642 38.3409 9.46315H30.5019V9.60172C30.5283 10.5915 30.8318 11.3833 31.4125 11.9772C31.9931 12.5711 32.752 12.868 33.689 12.868C34.4148 12.868 35.0285 12.6898 35.5299 12.3335C36.0446 11.964 36.3877 11.4559 36.5593 10.8093H38.2023C38.0044 11.8386 37.5095 12.6832 36.7177 13.3431C35.9258 13.9897 34.9559 14.3131 33.8077 14.3131C32.8048 14.3131 31.9271 14.1019 31.1749 13.6796C30.4227 13.2441 29.8354 12.637 29.4131 11.8584C29.004 11.0666 28.7995 10.1626 28.7995 9.14642ZM36.6979 8.11705C36.6187 7.25925 36.2954 6.5928 35.7279 6.1177C35.1736 5.64261 34.4676 5.40506 33.6098 5.40506C32.8443 5.40506 32.1713 5.65581 31.5906 6.1573C31.01 6.65878 30.68 7.31204 30.6008 8.11705H36.6979Z" fill="black" style="fill:black;fill-opacity:1;"/>
  <path d="M41.461 10.8686C41.4874 11.4757 41.7514 11.9706 42.2528 12.3533C42.7675 12.736 43.4274 12.9274 44.2324 12.9274C44.945 12.9274 45.5191 12.7888 45.9546 12.5117C46.4033 12.2213 46.6277 11.8452 46.6277 11.3833C46.6277 10.9874 46.5221 10.6839 46.3109 10.4727C46.0998 10.2616 45.8226 10.1164 45.4795 10.0372C45.1496 9.95804 44.6745 9.87886 44.0542 9.79968C43.1832 9.6941 42.4706 9.55553 41.9163 9.38397C41.362 9.21241 40.9133 8.94187 40.5702 8.57235C40.2271 8.18964 40.0555 7.66836 40.0555 7.0085C40.0555 6.41464 40.2205 5.88676 40.5504 5.42486C40.8936 4.96296 41.3554 4.60664 41.9361 4.3559C42.5168 4.09196 43.17 3.95999 43.8959 3.95999C45.0836 3.95999 46.047 4.23713 46.786 4.7914C47.5383 5.34568 47.954 6.1375 48.0331 7.16687H46.4099C46.3439 6.63899 46.0866 6.20349 45.6379 5.86036C45.1892 5.51724 44.6283 5.34568 43.9553 5.34568C43.269 5.34568 42.7147 5.49084 42.2924 5.78118C41.8701 6.05832 41.659 6.42783 41.659 6.88973C41.659 7.23285 41.758 7.49679 41.9559 7.68155C42.1539 7.86631 42.4046 7.99168 42.7081 8.05767C43.0249 8.12365 43.5 8.19624 44.1334 8.27542C45.0176 8.381 45.7435 8.52616 46.3109 8.71092C46.8916 8.89568 47.3535 9.19261 47.6966 9.60172C48.0529 10.0108 48.2311 10.5651 48.2311 11.2645C48.2311 11.8716 48.0529 12.4061 47.6966 12.868C47.3403 13.3299 46.8586 13.6862 46.2516 13.9369C45.6445 14.1877 44.9714 14.3131 44.2324 14.3131C42.9127 14.3131 41.8503 14.0095 41.0453 13.4025C40.2535 12.7954 39.851 11.9508 39.8378 10.8686H41.461Z" fill="black" style="fill:black;fill-opacity:1;"/>
  <path d="M50.7456 5.58322H48.9244V4.09856H50.7456V1.26779H52.3688V4.09856H54.9225V5.58322H52.3688V11.5417C52.3688 11.964 52.448 12.2675 52.6064 12.4523C52.7779 12.6238 53.0683 12.7096 53.4774 12.7096H55.2392V14.1943H53.3784C52.4282 14.1943 51.7486 13.9831 51.3395 13.5608C50.9436 13.1385 50.7456 12.4721 50.7456 11.5615V5.58322Z" fill="black" style="fill:black;fill-opacity:1;"/>
  <path d="M56.6315 0.337402H58.809L63.7183 11.8386L68.5683 0.337402H70.7062V14.1943H69.0235V3.26714L64.431 14.1943H62.9067L58.3142 3.26714V14.1943H56.6315V0.337402Z" fill="black" style="fill:black;fill-opacity:1;"/>
  <path d="M81.8447 4.09856V14.1943H80.4392L80.2215 12.8482C79.4561 13.8248 78.3805 14.3131 76.9948 14.3131C75.7939 14.3131 74.8305 13.9435 74.1047 13.2045C73.3788 12.4655 73.0159 11.3041 73.0159 9.7205V4.09856H74.6391V9.62152C74.6391 10.6641 74.8635 11.4625 75.3122 12.0168C75.7741 12.5579 76.4273 12.8284 77.272 12.8284C78.1957 12.8284 78.915 12.4985 79.4297 11.8386C79.9576 11.1788 80.2215 10.2814 80.2215 9.14642V4.09856H81.8447Z" fill="black" style="fill:black;fill-opacity:1;"/>
  <path d="M88.3476 14.1943L93.633 0.337402H95.6719L100.938 14.1943H99.0965L97.6317 10.4529H91.594L90.1292 14.1943H88.3476ZM92.1087 8.88908H97.117L94.603 2.21798L92.1087 8.88908Z" fill="black" style="fill:black;fill-opacity:1;"/>
  <path d="M102.505 0.337402H104.228V14.1943H102.505V0.337402Z" fill="black" style="fill:black;fill-opacity:1;"/>
  <path d="M18.625 0.337402H29.3344V1.92105H24.8408V14.1943H23.1186V1.92105H18.625V0.337402Z" stroke="black" style="stroke:black;stroke-opacity:1;" stroke-width="0.37451"/>
  <path d="M28.7995 9.14642C28.7995 8.11705 28.9974 7.21306 29.3933 6.43443C29.8024 5.65581 30.3699 5.05534 31.0957 4.63304C31.8216 4.19754 32.653 3.97978 33.59 3.97978C34.5138 3.97978 35.332 4.17114 36.0446 4.55386C36.7573 4.93657 37.3181 5.49084 37.7272 6.21668C38.1364 6.94252 38.3541 7.79373 38.3805 8.77031C38.3805 8.91548 38.3673 9.14642 38.3409 9.46315H30.5019V9.60172C30.5283 10.5915 30.8318 11.3833 31.4125 11.9772C31.9931 12.5711 32.752 12.868 33.689 12.868C34.4148 12.868 35.0285 12.6898 35.5299 12.3335C36.0446 11.964 36.3877 11.4559 36.5593 10.8093H38.2023C38.0044 11.8386 37.5095 12.6832 36.7177 13.3431C35.9258 13.9897 34.9559 14.3131 33.8077 14.3131C32.8048 14.3131 31.9271 14.1019 31.1749 13.6796C30.4227 13.2441 29.8354 12.637 29.4131 11.8584C29.004 11.0666 28.7995 10.1626 28.7995 9.14642ZM36.6979 8.11705C36.6187 7.25925 36.2954 6.5928 35.7279 6.1177C35.1736 5.64261 34.4676 5.40506 33.6098 5.40506C32.8443 5.40506 32.1713 5.65581 31.5906 6.1573C31.01 6.65878 30.68 7.31204 30.6008 8.11705H36.6979Z" stroke="black" style="stroke:black;stroke-opacity:1;" stroke-width="0.37451"/>
  <path d="M41.461 10.8686C41.4874 11.4757 41.7514 11.9706 42.2528 12.3533C42.7675 12.736 43.4274 12.9274 44.2324 12.9274C44.945 12.9274 45.5191 12.7888 45.9546 12.5117C46.4033 12.2213 46.6277 11.8452 46.6277 11.3833C46.6277 10.9874 46.5221 10.6839 46.3109 10.4727C46.0998 10.2616 45.8226 10.1164 45.4795 10.0372C45.1496 9.95804 44.6745 9.87886 44.0542 9.79968C43.1832 9.6941 42.4706 9.55553 41.9163 9.38397C41.362 9.21241 40.9133 8.94187 40.5702 8.57235C40.2271 8.18964 40.0555 7.66836 40.0555 7.0085C40.0555 6.41464 40.2205 5.88676 40.5504 5.42486C40.8936 4.96296 41.3554 4.60664 41.9361 4.3559C42.5168 4.09196 43.17 3.95999 43.8959 3.95999C45.0836 3.95999 46.047 4.23713 46.786 4.7914C47.5383 5.34568 47.954 6.1375 48.0331 7.16687H46.4099C46.3439 6.63899 46.0866 6.20349 45.6379 5.86036C45.1892 5.51724 44.6283 5.34568 43.9553 5.34568C43.269 5.34568 42.7147 5.49084 42.2924 5.78118C41.8701 6.05832 41.659 6.42783 41.659 6.88973C41.659 7.23285 41.758 7.49679 41.9559 7.68155C42.1539 7.86631 42.4046 7.99168 42.7081 8.05767C43.0249 8.12365 43.5 8.19624 44.1334 8.27542C45.0176 8.381 45.7435 8.52616 46.3109 8.71092C46.8916 8.89568 47.3535 9.19261 47.6966 9.60172C48.0529 10.0108 48.2311 10.5651 48.2311 11.2645C48.2311 11.8716 48.0529 12.4061 47.6966 12.868C47.3403 13.3299 46.8586 13.6862 46.2516 13.9369C45.6445 14.1877 44.9714 14.3131 44.2324 14.3131C42.9127 14.3131 41.8503 14.0095 41.0453 13.4025C40.2535 12.7954 39.851 11.9508 39.8378 10.8686H41.461Z" stroke="black" style="stroke:black;stroke-opacity:1;" stroke-width="0.37451"/>
  <path d="M50.7456 5.58322H48.9244V4.09856H50.7456V1.26779H52.3688V4.09856H54.9225V5.58322H52.3688V11.5417C52.3688 11.964 52.448 12.2675 52.6064 12.4523C52.7779 12.6238 53.0683 12.7096 53.4774 12.7096H55.2392V14.1943H53.3784C52.4282 14.1943 51.7486 13.9831 51.3395 13.5608C50.9436 13.1385 50.7456 12.4721 50.7456 11.5615V5.58322Z" stroke="black" style="stroke:black;stroke-opacity:1;" stroke-width="0.37451"/>
  <path d="M56.6315 0.337402H58.809L63.7183 11.8386L68.5683 0.337402H70.7062V14.1943H69.0235V3.26714L64.431 14.1943H62.9067L58.3142 3.26714V14.1943H56.6315V0.337402Z" stroke="black" style="stroke:black;stroke-opacity:1;" stroke-width="0.37451"/>
  <path d="M81.8447 4.09856V14.1943H80.4392L80.2215 12.8482C79.4561 13.8248 78.3805 14.3131 76.9948 14.3131C75.7939 14.3131 74.8305 13.9435 74.1047 13.2045C73.3788 12.4655 73.0159 11.3041 73.0159 9.7205V4.09856H74.6391V9.62152C74.6391 10.6641 74.8635 11.4625 75.3122 12.0168C75.7741 12.5579 76.4273 12.8284 77.272 12.8284C78.1957 12.8284 78.915 12.4985 79.4297 11.8386C79.9576 11.1788 80.2215 10.2814 80.2215 9.14642V4.09856H81.8447Z" stroke="black" style="stroke:black;stroke-opacity:1;" stroke-width="0.37451"/>
  <path d="M88.3476 14.1943L93.633 0.337402H95.6719L100.938 14.1943H99.0965L97.6317 10.4529H91.594L90.1292 14.1943H88.3476ZM92.1087 8.88908H97.117L94.603 2.21798L92.1087 8.88908Z" stroke="black" style="stroke:black;stroke-opacity:1;" stroke-width="0.37451"/>
  <path d="M102.505 0.337402H104.228V14.1943H102.505V0.337402Z" stroke="black" style="stroke:black;stroke-opacity:1;" stroke-width="0.37451"/>
  <path d="M0 21.7529H4.7971V22.6352H0.959419V25.2157H4.13543V26.0979H0.959419V29.4724H0V21.7529Z" fill="black" style="fill:black;fill-opacity:1;"/>
  <path d="M7.86541 29.5386C7.32137 29.5386 6.83615 29.4173 6.40974 29.1746C5.99068 28.932 5.66353 28.5938 5.42827 28.1601C5.19301 27.7263 5.07538 27.2264 5.07538 26.6603C5.07538 26.0942 5.19301 25.5943 5.42827 25.1605C5.66353 24.7268 5.99068 24.3886 6.40974 24.146C6.83615 23.9034 7.32137 23.782 7.86541 23.782C8.40945 23.782 8.891 23.9034 9.31005 24.146C9.73646 24.3886 10.0673 24.7268 10.3026 25.1605C10.5378 25.5943 10.6554 26.0942 10.6554 26.6603C10.6554 27.2264 10.5378 27.7263 10.3026 28.1601C10.0673 28.5938 9.73646 28.932 9.31005 29.1746C8.891 29.4173 8.40945 29.5386 7.86541 29.5386ZM7.86541 28.7335C8.233 28.7335 8.55649 28.6453 8.83586 28.4689C9.12258 28.2924 9.34314 28.0461 9.49753 27.73C9.65192 27.4139 9.72911 27.0573 9.72911 26.6603C9.72911 26.2633 9.65192 25.9067 9.49753 25.5906C9.34314 25.2745 9.12258 25.0282 8.83586 24.8517C8.55649 24.6753 8.233 24.5871 7.86541 24.5871C7.49782 24.5871 7.17066 24.6753 6.88394 24.8517C6.60457 25.0282 6.38768 25.2745 6.2333 25.5906C6.07891 25.9067 6.00171 26.2633 6.00171 26.6603C6.00171 27.0573 6.07891 27.4139 6.2333 27.73C6.38768 28.0461 6.60457 28.2924 6.88394 28.4689C7.17066 28.6453 7.49782 28.7335 7.86541 28.7335Z" fill="black" style="fill:black;fill-opacity:1;"/>
  <path d="M14.5486 23.8482V24.7304H14.0965C13.5598 24.7304 13.1738 24.9106 12.9385 25.2708C12.7106 25.631 12.5967 26.0758 12.5967 26.6052V29.4724H11.6924V23.8482H12.4754L12.5967 24.6974C12.7584 24.44 12.968 24.2342 13.2253 24.0798C13.4826 23.9254 13.8392 23.8482 14.295 23.8482H14.5486Z" fill="black" style="fill:black;fill-opacity:1;"/>
  <path d="M21.6503 23.782C22.2826 23.782 22.7936 23.9805 23.1832 24.3775C23.5802 24.7745 23.7787 25.3921 23.7787 26.2302V29.4724H22.8744V26.2854C22.8744 25.7413 22.7568 25.3259 22.5215 25.0392C22.2936 24.7525 21.9665 24.6091 21.5401 24.6091C21.0695 24.6091 20.6983 24.7745 20.4263 25.1054C20.1616 25.4362 20.0293 25.8884 20.0293 26.4618V29.4724H19.125V26.2854C19.125 25.7413 19.0073 25.3259 18.7721 25.0392C18.5368 24.7525 18.2023 24.6091 17.7686 24.6091C17.3127 24.6091 16.9488 24.7856 16.6768 25.1385C16.4121 25.484 16.2798 25.9398 16.2798 26.5059V29.4724H15.3755V23.8482H16.1585L16.2798 24.6202C16.6842 24.0614 17.2319 23.782 17.9229 23.782C18.3273 23.782 18.6839 23.8739 18.9926 24.0577C19.3088 24.2342 19.544 24.4989 19.6984 24.8517C20.1028 24.1386 20.7534 23.782 21.6503 23.782Z" fill="black" style="fill:black;fill-opacity:1;"/>
  <path d="M24.7402 26.6603C24.7402 26.0869 24.8505 25.5833 25.071 25.1495C25.2989 24.7157 25.6151 24.3812 26.0194 24.146C26.4238 23.9034 26.8869 23.782 27.4089 23.782C27.9236 23.782 28.3794 23.8886 28.7764 24.1019C29.1734 24.3151 29.4858 24.6238 29.7137 25.0282C29.9416 25.4325 30.063 25.9067 30.0777 26.4508C30.0777 26.5316 30.0703 26.6603 30.0556 26.8367H25.6886V26.9139C25.7033 27.4653 25.8724 27.9064 26.1959 28.2373C26.5194 28.5681 26.9421 28.7335 27.4641 28.7335C27.8684 28.7335 28.2103 28.6343 28.4897 28.4358C28.7764 28.2299 28.9675 27.9469 29.0631 27.5866H29.9784C29.8681 28.1601 29.5924 28.6306 29.1513 28.9982C28.7102 29.3584 28.1698 29.5386 27.5302 29.5386C26.9715 29.5386 26.4826 29.4209 26.0635 29.1857C25.6445 28.9431 25.3173 28.6049 25.0821 28.1711C24.8542 27.73 24.7402 27.2264 24.7402 26.6603ZM29.1403 26.0869C29.0962 25.609 28.9161 25.2377 28.5999 24.973C28.2912 24.7084 27.8978 24.576 27.42 24.576C26.9935 24.576 26.6186 24.7157 26.2951 24.9951C25.9716 25.2745 25.7878 25.6384 25.7437 26.0869H29.1403Z" fill="black" style="fill:black;fill-opacity:1;"/>
  <path d="M33.9657 23.8482V24.7304H33.5136C32.9769 24.7304 32.5909 24.9106 32.3557 25.2708C32.1278 25.631 32.0138 26.0758 32.0138 26.6052V29.4724H31.1095V23.8482H31.8925L32.0138 24.6974C32.1756 24.44 32.3851 24.2342 32.6424 24.0798C32.8997 23.9254 33.2563 23.8482 33.7121 23.8482H33.9657Z" fill="black" style="fill:black;fill-opacity:1;"/>
  <path d="M34.7926 21.7529H35.6969V29.4724H34.7926V21.7529Z" fill="black" style="fill:black;fill-opacity:1;"/>
  <path d="M37.3327 23.8482L39.0641 28.4358L40.7403 23.8482H41.6998L39.1082 30.4208C38.9759 30.759 38.8583 31.0126 38.7553 31.1817C38.6524 31.3508 38.5238 31.4758 38.3694 31.5567C38.215 31.6375 38.0091 31.678 37.7518 31.678H36.6711V30.8509H37.4761C37.6525 30.8509 37.7849 30.8325 37.8731 30.7957C37.9613 30.759 38.0312 30.6965 38.0826 30.6083C38.1414 30.5274 38.2113 30.3877 38.2922 30.1892L38.5789 29.5165L36.3733 23.8482H37.3327Z" fill="black" style="fill:black;fill-opacity:1;"/>
  <path fill-rule="evenodd" clip-rule="evenodd" d="M48.9561 25.2277C49.0735 25.1458 49.2294 25.1386 49.3555 25.2102L49.4941 25.2902L53.6406 27.6477V27.4172C53.6406 27.2269 53.85 27.1074 54.0176 27.2023L54.8203 27.6574C54.898 27.7016 54.9462 27.7831 54.9463 27.8713V28.6242C54.9463 28.6887 54.9199 28.7508 54.874 28.7971L54.4961 29.177C54.3543 29.3553 54.1458 29.4267 53.96 29.3215L50.9785 27.6203L50.9775 30.8293C50.988 30.9496 50.9376 31.0676 50.8418 31.1438C50.7478 31.2186 50.7469 31.2189 50.291 31.5813C50.2227 31.6434 50.1335 31.6779 50.04 31.6779C49.8361 31.6779 49.6709 31.5154 49.6709 31.3147V26.8762L49.1689 26.59L48.915 26.7346C48.9029 26.7429 48.9068 26.7403 48.6504 26.8859C48.4697 26.9899 48.2416 26.9344 48.1377 26.758C48.1132 26.7164 48.1126 26.7158 47.9961 26.5178L47.8564 26.2795C47.7514 26.1012 47.8072 25.8778 47.9863 25.7756C48.0302 25.7508 48.0305 25.7506 48.2334 25.6359L48.8457 25.2893L48.9561 25.2277ZM50.3369 21.4104C50.4579 21.4161 50.5774 21.4554 50.6611 21.5139L52.5215 22.5715L52.625 22.6291C52.6449 22.6404 53.2658 22.9931 54.5156 23.7043L54.6182 23.7629C54.7191 23.8204 54.8021 23.9021 54.8594 24.0012C54.9159 24.0993 54.9453 24.2112 54.9443 24.3225V26.383C54.9444 26.5735 54.735 26.6932 54.5674 26.5979L53.7646 26.1408C53.6872 26.0966 53.6396 26.0151 53.6396 25.927V24.6887L52.0059 23.759C51.9917 23.7521 51.9595 23.7342 51.8711 23.6838L50.3066 22.7922L48.6777 23.718C48.6625 23.7278 48.6624 23.728 48.6533 23.7336C48.6478 23.737 48.542 23.7978 48.5381 23.8L46.9736 24.6887V28.4826L48.6084 29.4133C48.6191 29.4186 48.6427 29.4313 48.7451 29.4895L48.7793 29.5197L48.8066 29.5559C48.8684 29.6023 48.9052 29.6748 48.9053 29.7522V30.6613C48.9053 30.8538 48.6916 30.9724 48.5215 30.8713L48.0918 30.5998L47.9893 30.5432C47.9819 30.5391 47.388 30.2012 46.0977 29.467L45.9951 29.4084C45.8941 29.351 45.8112 29.2692 45.7539 29.1701C45.6972 29.0717 45.6678 28.9598 45.6689 28.8488L45.668 26.5861V24.3186C45.668 24.1983 45.7024 24.0806 45.7666 23.9797C45.8302 23.8784 45.9229 23.7957 46.0186 23.7502L47.8848 22.6887L47.9863 22.6301C48.0202 22.611 48.0203 22.6109 48.0889 22.5725L49.876 21.5568L49.9805 21.4953C50.0891 21.4337 50.2123 21.4047 50.3369 21.4104Z" fill="black" style="fill:black;fill-opacity:1;"/>
  <path fill-rule="evenodd" clip-rule="evenodd" d="M57.6257 28.6478C57.5787 28.6478 57.5375 28.6304 57.5022 28.5959C57.467 28.5613 57.4492 28.521 57.4492 28.4749V23.9795C57.4492 23.9289 57.467 23.8873 57.5022 23.8551C57.5375 23.8228 57.5787 23.8066 57.6257 23.8066H58.6136C58.6653 23.8066 58.7076 23.8228 58.7406 23.8551C58.7735 23.8873 58.7899 23.9289 58.7899 23.9795V27.562H60.9068C60.9585 27.562 61.0021 27.5792 61.0373 27.6138C61.0726 27.6485 61.0903 27.6911 61.0903 27.7418V28.4749C61.0903 28.5256 61.0726 28.5672 61.0373 28.5994C61.0021 28.6316 60.9585 28.6478 60.9068 28.6478H57.6257ZM61.4092 28.6478C61.3716 28.6478 61.3374 28.6328 61.3069 28.6028C61.2763 28.5728 61.261 28.5394 61.261 28.5025C61.261 28.4749 61.2634 28.4541 61.2681 28.4403L62.9122 24.0072C62.9592 23.8735 63.0533 23.8066 63.1944 23.8066H64.2952C64.4362 23.8066 64.5304 23.8735 64.5774 24.0072L66.2215 28.4403C66.2263 28.4541 66.2286 28.4749 66.2286 28.5025C66.2286 28.5394 66.2132 28.5728 66.1827 28.6028C66.1521 28.6328 66.118 28.6478 66.0804 28.6478H65.163C65.0502 28.6478 64.9702 28.597 64.9232 28.4956L64.6691 27.8248H62.8205L62.5664 28.4956C62.5194 28.597 62.4394 28.6478 62.3265 28.6478H61.4092ZM63.1165 26.7873H64.3724L63.7444 25.0237L63.1165 26.7873ZM66.9457 28.6478C66.8939 28.6478 66.8504 28.6316 66.8151 28.5994C66.7799 28.5672 66.7623 28.5256 66.7623 28.4749V23.9864C66.7623 23.9358 66.7799 23.8931 66.8151 23.8586C66.8504 23.8239 66.8939 23.8066 66.9457 23.8066H67.7431C67.8606 23.8066 67.9454 23.8574 67.997 23.9587L69.2107 26.0888L70.4315 23.9587C70.4831 23.8574 70.5679 23.8066 70.6854 23.8066H71.4828C71.5346 23.8066 71.5781 23.8239 71.6134 23.8586C71.6486 23.8931 71.6662 23.9358 71.6662 23.9864V28.4749C71.6662 28.5256 71.6486 28.5672 71.6134 28.5994C71.5781 28.6316 71.5346 28.6478 71.4828 28.6478H70.5866C70.5396 28.6478 70.4985 28.6304 70.4632 28.5959C70.4279 28.5613 70.4103 28.521 70.4103 28.4749V25.9574L69.6482 27.3269C69.5871 27.4329 69.5047 27.4859 69.4012 27.4859H69.0202C68.9261 27.4859 68.8438 27.4329 68.7732 27.3269L68.0182 25.9574V28.4749C68.0182 28.5256 68.0006 28.5672 67.9654 28.5994C67.93 28.6316 67.8865 28.6478 67.8348 28.6478H66.9457ZM72.8012 28.6478C72.7542 28.6478 72.713 28.6304 72.6778 28.5959C72.6425 28.5613 72.6248 28.521 72.6248 28.4749V23.9864C72.6248 23.9358 72.6413 23.8931 72.6742 23.8586C72.7071 23.8239 72.7495 23.8066 72.8012 23.8066H74.9816C75.579 23.8066 76.0235 23.9265 76.3152 24.1663C76.6068 24.406 76.7527 24.7472 76.7527 25.1898C76.7527 25.4111 76.6927 25.6025 76.5728 25.7638C76.4528 25.9252 76.3199 26.0428 76.1741 26.1165C76.367 26.1995 76.5292 26.3367 76.661 26.528C76.7927 26.7194 76.8585 26.935 76.8585 27.1747C76.8585 27.6402 76.7021 28.0023 76.3893 28.2605C76.0765 28.5186 75.6284 28.6478 75.045 28.6478H72.8012ZM74.8377 25.7217C75.0117 25.7217 75.1457 25.6756 75.2398 25.5834C75.3338 25.4912 75.3809 25.3715 75.3809 25.224C75.3809 25.0811 75.335 24.9647 75.2433 24.8749C75.1517 24.7849 75.0164 24.7401 74.8377 24.7401H73.9562V25.7217H74.8377ZM74.9012 27.7138C75.0846 27.7138 75.2269 27.6619 75.3279 27.5582C75.429 27.4546 75.4796 27.3267 75.4796 27.1746C75.4796 27.0179 75.4279 26.8877 75.3244 26.7839C75.2209 26.6804 75.08 26.6285 74.9012 26.6285H73.9562V27.7138H74.9012ZM77.7947 28.6478C77.7476 28.6478 77.7065 28.6304 77.6712 28.5959C77.6359 28.5613 77.6182 28.521 77.6182 28.4749V23.9864C77.6182 23.9358 77.6348 23.8931 77.6677 23.8586C77.7006 23.8239 77.743 23.8066 77.7947 23.8066H79.6505C80.3467 23.8066 80.8876 23.9691 81.2734 24.2943C81.6591 24.6192 81.8615 25.0861 81.8801 25.6947C81.8849 25.8284 81.8873 26.0059 81.8873 26.2272C81.8873 26.4485 81.8849 26.6236 81.8801 26.7528C81.8331 28.016 81.1016 28.6478 79.6857 28.6478H77.7947ZM79.652 27.6102C79.9483 27.6102 80.167 27.5411 80.3083 27.4027C80.4493 27.2645 80.5246 27.0431 80.534 26.7388C80.5434 26.6051 80.5481 26.4322 80.5481 26.2201C80.5481 26.008 80.5434 25.8374 80.534 25.7083C80.5246 25.4132 80.4434 25.1954 80.2906 25.0548C80.1376 24.9141 79.9131 24.8438 79.6167 24.8438H78.9464V27.6102H79.652ZM82.4148 28.6478C82.3772 28.6478 82.3431 28.6328 82.3125 28.6028C82.2819 28.5728 82.2666 28.5394 82.2666 28.5025C82.2666 28.4749 82.2689 28.4541 82.2737 28.4403L83.9177 24.0072C83.9648 23.8735 84.059 23.8066 84.2 23.8066H85.3008C85.4419 23.8066 85.536 23.8735 85.583 24.0072L87.2271 28.4403C87.2319 28.4541 87.2341 28.4749 87.2341 28.5025C87.2341 28.5394 87.2188 28.5728 87.1883 28.6028C87.1578 28.6328 87.1237 28.6478 87.086 28.6478H86.1687C86.0558 28.6478 85.9758 28.597 85.9288 28.4956L85.6747 27.8248H83.826L83.5719 28.4956C83.525 28.597 83.4451 28.6478 83.3322 28.6478H82.4148ZM84.1221 26.7873H85.378L84.7501 25.0237L84.1221 26.7873Z" fill="black" style="fill:black;fill-opacity:1;"/>
  <path fill-rule="evenodd" clip-rule="evenodd" d="M88.6947 28.7165C88.643 28.7165 88.5996 28.7004 88.5642 28.6682C88.5289 28.6359 88.5113 28.5944 88.5113 28.5437V25.0027H87.2695C87.2177 25.0027 87.1742 24.9865 87.1389 24.9543C87.1036 24.922 87.0859 24.8805 87.0859 24.8298V24.0552C87.0859 24.0046 87.1036 23.9618 87.1389 23.9273C87.1742 23.8927 87.2177 23.8754 87.2695 23.8754H91.1009C91.1526 23.8754 91.1962 23.8927 91.2315 23.9273C91.2667 23.9618 91.2844 24.0046 91.2844 24.0552V24.8298C91.2844 24.8805 91.2667 24.922 91.2315 24.9543C91.1962 24.9865 91.1526 25.0027 91.1009 25.0027H89.859V28.5437C89.859 28.5944 89.8413 28.6359 89.8061 28.6682C89.7708 28.7004 89.7273 28.7165 89.6757 28.7165H88.6947ZM92.0832 28.7165C92.0363 28.7165 91.995 28.6992 91.9598 28.6647C91.9245 28.6301 91.9068 28.5897 91.9068 28.5437V24.0552C91.9068 24.0046 91.9233 23.9618 91.9563 23.9273C91.9893 23.8927 92.0316 23.8754 92.0832 23.8754H95.4137C95.4655 23.8754 95.509 23.8927 95.5443 23.9273C95.5796 23.9618 95.5972 24.0046 95.5972 24.0552V24.7399C95.5972 24.7906 95.5796 24.8321 95.5443 24.8643C95.509 24.8967 95.4655 24.9128 95.4137 24.9128H93.1841V25.7911H95.2585C95.3103 25.7911 95.3537 25.8084 95.3891 25.8429C95.4244 25.8776 95.442 25.9202 95.442 25.9709V26.6002C95.442 26.651 95.4244 26.6936 95.3891 26.7282C95.3537 26.7627 95.3103 26.7801 95.2585 26.7801H93.1841V27.6791H95.4702C95.5219 27.6791 95.5655 27.6965 95.6008 27.731C95.636 27.7656 95.6536 27.8082 95.6536 27.8589V28.5437C95.6536 28.5944 95.636 28.6359 95.6008 28.6682C95.5655 28.7004 95.5219 28.7165 95.4702 28.7165H92.0832ZM98.3069 28.786C97.8507 28.786 97.4626 28.7215 97.1426 28.5924C96.8228 28.4633 96.5805 28.2927 96.4159 28.0805C96.2512 27.8686 96.1642 27.638 96.1548 27.389C96.1548 27.3475 96.1701 27.3129 96.2006 27.2852C96.2312 27.2576 96.2676 27.2438 96.31 27.2438H97.2485C97.3049 27.2438 97.3508 27.253 97.3861 27.2715C97.4214 27.2899 97.4601 27.3221 97.5025 27.3682C97.5637 27.4789 97.6589 27.5699 97.7883 27.6414C97.9177 27.7129 98.0904 27.7486 98.3069 27.7486C98.561 27.7486 98.7562 27.7106 98.8926 27.6346C99.029 27.5585 99.0972 27.4536 99.0972 27.3198C99.0972 27.2231 99.0619 27.1435 98.9913 27.0813C98.9208 27.019 98.8079 26.9636 98.6527 26.9153C98.4975 26.8669 98.274 26.8127 97.9823 26.7528C97.4132 26.6421 96.9874 26.4738 96.7051 26.2479C96.4229 26.022 96.2819 25.6992 96.2819 25.2797C96.2819 24.9938 96.3629 24.7391 96.5252 24.5155C96.6875 24.2918 96.918 24.1179 97.2167 23.9933C97.5154 23.8688 97.8624 23.8066 98.2575 23.8066C98.6714 23.8066 99.0302 23.877 99.3336 24.0175C99.637 24.1582 99.8699 24.3333 100.032 24.5431C100.194 24.7529 100.28 24.9592 100.29 25.1621C100.29 25.2036 100.276 25.2394 100.247 25.2693C100.219 25.2993 100.184 25.3142 100.142 25.3142H99.1537C99.0502 25.3142 98.9702 25.2728 98.9138 25.1897C98.8854 25.0929 98.8127 25.0111 98.695 24.9443C98.5775 24.8774 98.4316 24.844 98.2575 24.844C98.06 24.844 97.907 24.8786 97.7988 24.9477C97.6907 25.0169 97.6365 25.1183 97.6365 25.252C97.6365 25.3857 97.7072 25.4907 97.8483 25.5667C97.9894 25.6428 98.2529 25.72 98.6385 25.7984C99.0807 25.8767 99.4324 25.9747 99.6934 26.0923C99.9545 26.2098 100.147 26.3621 100.272 26.5487C100.397 26.7355 100.459 26.9718 100.459 27.2576C100.459 27.5711 100.367 27.8432 100.184 28.0737C100 28.3042 99.7464 28.4805 99.4218 28.6028C99.0972 28.725 98.7255 28.786 98.3069 28.786ZM102.405 28.7165C102.354 28.7165 102.31 28.7004 102.275 28.6682C102.24 28.6359 102.222 28.5944 102.222 28.5437V25.0027H100.98C100.928 25.0027 100.885 24.9865 100.85 24.9543C100.814 24.922 100.797 24.8805 100.797 24.8298V24.0552C100.797 24.0046 100.814 23.9618 100.85 23.9273C100.885 23.8927 100.928 23.8754 100.98 23.8754H104.811C104.863 23.8754 104.907 23.8927 104.942 23.9273C104.977 23.9618 104.995 24.0046 104.995 24.0552V24.8298C104.995 24.8805 104.977 24.922 104.942 24.9543C104.907 24.9865 104.863 25.0027 104.811 25.0027H103.57V28.5437C103.57 28.5944 103.552 28.6359 103.517 28.6682C103.481 28.7004 103.438 28.7165 103.386 28.7165H102.405Z" fill="black" style="fill:black;fill-opacity:1;"/>
</svg>
