<svg class="h-10 w-auto hover:filter hover:drop-shadow-4 text-white-500 m-auto" width="1001" height="258" viewBox="0 0 1001 258" fill="none" xmlns="http://www.w3.org/2000/svg" data-phx-id="m2-phx-GBtRuHGOBqszmjyj">
  
  <style type="text/css">
    .logo-icon { fill: #4C2EFF; }
    .logo-text { fill: #000000; }
  </style>
  <path d="M197.549 58.9141C175.821 59.0587 154.963 60.2734 134.744 62.298L144.346 2.86329L133.526 0L110.289 65.1902C98.6855 66.7809 87.3429 68.6897 76.2034 70.8589L36.6929 36.9623L28.2513 42.6599L52.909 75.8913C34.8073 80.1718 17.2278 85.1174 0.228433 90.844C-1.71518 166.562 8.90215 217.117 26.0466 254.6C93.899 263.624 159.344 254.716 222.294 227.5C221.191 137.958 212.227 85.1464 197.549 58.9141ZM195.547 195.975C159.46 215.989 118.934 223.885 74.3758 220.848C64.5707 195.339 59.4651 160.604 60.0453 114.878C98.0763 100.301 138.515 94.0832 181.884 98.0166C192.443 130.438 196.91 163.091 195.547 195.975Z" class="logo-icon"></path>
  <path d="M156.907 111.147C151.743 111.986 147.769 118.031 145.854 126.649C145.796 126.649 145.767 126.649 145.738 126.649C143.185 135.037 138.486 140.908 132.568 141.862C127.404 142.672 122.299 139.606 118.209 133.967C117.715 133.186 109.912 119.911 98.9755 122.224C86.7917 124.827 78.6691 142.412 81.0189 162.918C83.3686 183.452 95.1463 197.971 107.446 196.525C123.604 194.645 121.197 164.248 137.558 161.211C142.924 160.228 148.233 163.67 152.439 169.627C155.92 175.036 160.214 178.044 164.478 177.35C173.123 175.961 178.461 160.025 176.372 141.747C174.254 123.468 165.552 109.759 156.907 111.147Z" class="logo-icon"></path>
  <path d="M571.999 81.7625H538.087V229.091H648.757V199.793H571.999V81.7625Z" class="logo-text"></path>
  <path d="M742.747 138.334H742.283C735.408 128.356 723.253 122.571 707.443 122.571C676.983 122.571 654.733 145.42 654.733 176.945C654.733 208.441 676.954 231.318 707.443 231.318C723.485 231.318 735.407 225.331 742.515 215.122H742.979L743.907 229.091H768.884V124.827H743.907L742.747 138.334ZM712.519 205.578C696.245 205.578 685.019 193.806 685.019 176.945C685.019 160.083 696.245 148.312 712.519 148.312C728.561 148.312 739.788 160.083 739.788 176.945C739.788 193.806 728.561 205.578 712.519 205.578Z" class="logo-text"></path>
  <path d="M850.98 122.6C837.694 122.6 827.164 126.592 819.824 133.909H819.36V73.78H789.336V229.091H814.312L815.444 215.324H815.908C822.783 225.302 835.141 231.289 850.951 231.289C881.411 231.289 903.661 208.441 903.661 176.916C903.69 145.449 881.44 122.6 850.98 122.6ZM845.932 205.578C829.658 205.578 818.664 193.806 818.664 176.945C818.664 160.083 829.658 148.312 845.932 148.312C862.439 148.312 873.433 160.083 873.433 176.945C873.433 193.806 862.439 205.578 845.932 205.578Z" class="logo-text"></path>
  <path d="M960.142 163.872C945.927 162.975 942.272 160.98 942.272 156.323C942.272 149.903 948.016 146.577 959.677 146.577C973.66 146.577 984.654 150.134 991.761 157.018H992.893V129.281C984.422 125.059 972.035 122.629 958.981 122.629C931.713 122.629 914.075 136.165 914.075 157.249C914.075 177.87 924.837 185.882 952.106 188.311C967.22 189.642 971.803 191.869 971.803 197.422C971.803 204.074 966.088 207.4 954.398 207.4C937.659 207.4 924.837 202.946 916.367 194.096H915.003V222.063C924.17 228.281 937.92 231.376 955.79 231.376C983.523 231.376 1000 218.737 1000 197.422C1000 175.412 988.774 165.636 960.142 163.872Z" class="logo-text"></path>
  <path d="M443.923 195.368H443.488L395.362 81.7625H395.159H250.694L260.934 106.954H310.742V229.091H341.84V106.954H373.402L426.315 229.091H461.097L523.409 81.7625H490.222L443.923 195.368Z" class="logo-text"></path>
</svg>