<?xml version="1.0" encoding="utf-8"?>
<!-- Generator: Adobe Illustrator 27.3.1, SVG Export Plug-In . SVG Version: 6.00 Build 0)  -->
<svg version="1.1" id="Ebene_1" xmlns="http://www.w3.org/2000/svg" xmlns:xlink="http://www.w3.org/1999/xlink" x="0px" y="0px"
	 viewBox="93.4 102.6 920.7 175.3" style="enable-background:new 93.4 102.6 920.7 175.3;" xml:space="preserve">
<style type="text/css">
	.st0{fill:#FFFFFF;}
	.st1{fill:#0000A0;}
	.st2{fill:#3C0078;}
	.st3{fill:#0000E1;}
	.st4{fill:#5000AA;}
	.st5{fill:#AA0055;}
	.st6{fill:#010101;}
</style>
<path class="st0" d="M974.2,165.1c13.1,0,19.9,7.8,21.2,20.3H951C953.1,172.5,961.2,165.1,974.2,165.1 M1012.9,209.9h-20.1
	c-2.8,7.1-8.7,11-18.6,11c-13.5,0-21.8-7.4-23.3-20.8h63.2v-8.7c0-10.5-2.8-20.6-9.4-28.5c-6.5-7.8-16.5-12.7-30.6-12.7
	c-17.2,0-29.7,7.3-36.6,20.1c-3.4,6.5-5.1,13.8-5.1,22.6v2c0,25.3,13.5,41.3,41.1,41.3C994.9,236.2,1008.2,226.5,1012.9,209.9
	 M920.8,234.1v-17.4h-5.8c-9.1,0-13.4-1-14.7-6.4c-0.7-2.7-1.1-6.7-1.1-12.1v-29.5h21.6v-16.5h-21.6v-27.7h-15.9
	c0,2.4-0.1,12.9-0.3,16.5c-0.4,6.7-1.3,9.8-4,11.1c-1.3,0.6-3.1,0.9-5.8,0.9h-7.3v15.8h15.9v32.6c0,16.6,2.6,25.6,10.8,29.7
	c4,1.8,10,3,17.6,3H920.8z M808.6,221.8c-8.5,0-12.8-3.4-12.8-10.2c0-3.6,1.6-6.4,4.8-8.5c3.8-2.4,7.8-3.6,17.8-5.1
	c7.4-1.1,13.1-2.8,16.5-5.3v4.4c0,7.8-4.4,16.1-12.4,21.1C818.5,220.6,814,221.8,808.6,221.8 M835.6,217.7l2,16.4h15.1v-55.2
	c0-11.8-4.3-20.5-14.9-25c-5.4-2.4-12.2-3.6-21.2-3.6c-23.5,0-37.1,12.2-38.4,30.9h19.2c0.6-10.5,6.7-16.4,20.2-16.4
	c12.8,0,17.2,4.3,17.2,11.1c0,6.7-5.8,8.7-20.5,10.5c-10.2,1.6-16.4,2.7-21.2,4.4c-2.3,0.7-4.7,1.8-7,3.4
	c-6.7,4.1-10.7,11-10.7,20.1c0,13.4,9,21.9,26.7,21.9C819.1,236.2,830.1,228.4,835.6,217.7 M652.4,234.1v-43.8
	c0-14.1,5.7-23.8,17.9-23.8c8.5,0,13.2,4,15.1,10.2c1.1,3.3,1.6,6.7,1.6,10.5v46.8h18.5v-46.4c0-12.4,4.8-21.2,17.1-21.2
	c12.5,0,17.1,8.5,17.1,21.5v46.1h18.6v-51.2c0-20.3-9.8-32.6-29-32.6c-13.4,0-22.3,6.5-26.5,17.1c-3.6-10.7-11.7-17.1-25.8-17.1
	c-12.9,0-21.5,6.7-25.9,16.9l-1.7-14.9h-15.7v81.8H652.4z M574.6,219.7c-13.4,0-21.9-10-21.9-26.9v-1.4c0-15.1,8.8-25.5,22.3-25.5
	c12.8,0,21.5,9.5,21.5,25.9v1.7C596.5,210.9,588.7,219.7,574.6,219.7 M580.3,236.2c21.5,0,35.1-15.5,35.1-42.5v-2.1
	c0-18.4-6.1-30.3-16.6-36.6c-5.4-3-11.1-4.7-17.9-4.7c-13.4,0-22.9,6.8-27.7,17.6v-43.4H535v109.6h15.8l1.7-16.5
	C557,228.8,566.2,236.2,580.3,236.2 M477.1,165.1c13.1,0,19.9,7.8,21.2,20.3h-44.4C456,172.5,464.2,165.1,477.1,165.1 M515.8,209.9
	h-20.1c-2.8,7.1-8.7,11-18.6,11c-13.5,0-21.8-7.4-23.3-20.8h63.2v-8.7c0-10.5-2.8-20.6-9.4-28.5c-6.5-7.8-16.5-12.7-30.6-12.7
	c-17.2,0-29.7,7.3-36.6,20.1c-3.4,6.5-5.1,13.8-5.1,22.6v2c0,25.3,13.5,41.3,41.1,41.3C497.9,236.2,511.1,226.5,515.8,209.9
	 M366.3,179.6l19.5,54.5h16.6l25.5-81.8h-18.2l-17.1,58.1l-19.9-58.1h-12.2l-21.5,58.2l-14.4-58.2h-18.5l22.1,81.8h16.9L366.3,179.6
	z"/>
<path class="st0" d="M268.7,235v-89.5c0-23.7-19.2-42.9-42.9-42.9h-89.5c-23.7,0-42.9,19.2-42.9,42.9V235
	c0,23.7,19.2,42.9,42.9,42.9h89.5C249.5,277.9,268.7,258.7,268.7,235"/>
<path class="st1" d="M148.5,222.4c-1.4,0-2.9-0.3-4.3-1c-4.9-2.4-6.9-8.2-4.5-13.1l21.8-44.7c2.4-4.9,8.2-6.9,13.1-4.5
	c4.9,2.4,6.9,8.2,4.5,13.1l-21.8,44.7C155.6,220.4,152.1,222.4,148.5,222.4"/>
<path class="st2" d="M192.1,222.4c-1.4,0-2.9-0.3-4.3-1c-4.9-2.4-6.9-8.2-4.5-13.1l21.8-44.7c2.4-4.9,8.2-6.9,13.1-4.5
	c4.9,2.4,6.9,8.2,4.5,13.1l-21.8,44.7C199.2,220.4,195.7,222.4,192.1,222.4"/>
<path class="st3" d="M148.5,222.4c-3.6,0-7.1-2-8.8-5.5l-21.8-44.7c-2.4-4.9-0.3-10.7,4.5-13.1c4.9-2.4,10.7-0.4,13.1,4.5l21.8,44.7
	c2.4,4.9,0.3,10.7-4.5,13.1C151.4,222.1,149.9,222.4,148.5,222.4"/>
<path class="st4" d="M192.1,222.4c-3.6,0-7.1-2-8.8-5.5l-21.8-44.7c-2.4-4.9-0.4-10.7,4.5-13.1c4.9-2.4,10.7-0.4,13.1,4.5l21.8,44.7
	c2.4,4.9,0.3,10.7-4.5,13.1C195,222.1,193.5,222.4,192.1,222.4"/>
<path class="st5" d="M235.7,222.4c-3.6,0-7.1-2-8.8-5.5l-21.8-44.7c-2.4-4.9-0.4-10.7,4.5-13.1c4.9-2.4,10.7-0.4,13.1,4.5l21.8,44.7
	c2.4,4.9,0.3,10.7-4.5,13.1C238.6,222.1,237.1,222.4,235.7,222.4"/>
</svg>
